<mxfile host="65bd71144e">
    <diagram id="RpXpx4TxDOEs9rkcwsn6" name="f1">
        <mxGraphModel dx="3072" dy="3872" grid="0" gridSize="10" guides="1" tooltips="1" connect="1" arrows="1" fold="1" page="0" pageScale="1" pageWidth="827" pageHeight="1169" background="none" math="0" shadow="0">
            <root>
                <mxCell id="0"/>
                <mxCell id="1" parent="0"/>
                <mxCell id="137" value="&lt;font size=&quot;1&quot; style=&quot;&quot;&gt;&lt;b style=&quot;&quot;&gt;&lt;i style=&quot;font-size: 36px;&quot;&gt;CyberFlux-Framework&lt;/i&gt;&lt;/b&gt;&lt;/font&gt;" style="fontStyle=0;verticalAlign=top;align=center;spacingTop=-2;fillColor=none;rounded=0;whiteSpace=wrap;html=1;strokeColor=#919191;strokeWidth=2;dashed=1;container=1;collapsible=0;expand=0;recursiveResize=0;labelBackgroundColor=none;fontFamily=Helvetica;fontSize=16;fontColor=#808080;movable=0;resizable=0;rotatable=0;deletable=0;editable=0;connectable=0;" parent="1" vertex="1">
                    <mxGeometry x="-390" y="-1313" width="1400" height="1400" as="geometry"/>
                </mxCell>
                <mxCell id="158" style="edgeStyle=none;rounded=0;sketch=0;jumpStyle=gap;html=1;exitX=1;exitY=0.5;exitDx=0;exitDy=0;entryX=0;entryY=0.5;entryDx=0;entryDy=0;shadow=0;strokeColor=#919191;strokeWidth=2;fontFamily=Helvetica;fontSize=18;fontColor=none;startArrow=none;startFill=0;endArrow=classicThin;endFill=1;sourcePerimeterSpacing=0;targetPerimeterSpacing=0;shape=flexArrow;" parent="137" source="112" target="148" edge="1">
                    <mxGeometry relative="1" as="geometry"/>
                </mxCell>
                <mxCell id="112" value="&lt;b&gt;&lt;font color=&quot;#808080&quot; style=&quot;font-size: 18px;&quot;&gt;Redis Cluster&lt;/font&gt;&lt;/b&gt;" style="fontStyle=0;verticalAlign=top;align=center;spacingTop=-2;fillColor=none;rounded=0;whiteSpace=wrap;html=1;strokeColor=#919191;strokeWidth=2;dashed=1;container=1;collapsible=0;expand=0;recursiveResize=0;labelBackgroundColor=none;fontFamily=Helvetica;fontSize=14;fontColor=#FFFFFF;movable=0;resizable=0;rotatable=0;deletable=0;editable=0;connectable=0;" parent="137" vertex="1">
                    <mxGeometry x="428" y="62" width="442" height="297" as="geometry"/>
                </mxCell>
                <mxCell id="120" value="" style="edgeStyle=none;rounded=0;sketch=0;jumpStyle=gap;html=1;shadow=0;strokeColor=#919191;fontFamily=Helvetica;fontSize=14;fontColor=#FFFFFF;startArrow=classicThin;startFill=1;endArrow=classicThin;endFill=1;sourcePerimeterSpacing=0;targetPerimeterSpacing=0;entryX=0.511;entryY=-0.079;entryDx=0;entryDy=0;entryPerimeter=0;exitX=0.01;exitY=0.925;exitDx=0;exitDy=0;exitPerimeter=0;strokeWidth=2;" parent="112" source="113" target="119" edge="1">
                    <mxGeometry relative="1" as="geometry">
                        <mxPoint x="183" y="170" as="sourcePoint"/>
                        <mxPoint x="116" y="202" as="targetPoint"/>
                    </mxGeometry>
                </mxCell>
                <mxCell id="122" value="" style="edgeStyle=none;rounded=0;sketch=0;jumpStyle=gap;html=1;shadow=1;strokeColor=#919191;fontFamily=Helvetica;fontSize=16;fontColor=#FFFFFF;startArrow=classicThin;startFill=1;endArrow=classicThin;endFill=1;sourcePerimeterSpacing=0;targetPerimeterSpacing=0;entryX=0.436;entryY=-0.048;entryDx=0;entryDy=0;entryPerimeter=0;exitX=0.97;exitY=0.914;exitDx=0;exitDy=0;exitPerimeter=0;strokeWidth=2;" parent="112" source="113" target="123" edge="1">
                    <mxGeometry relative="1" as="geometry">
                        <mxPoint x="247" y="147" as="sourcePoint"/>
                        <mxPoint x="319.4499999999998" y="214.55600000000004" as="targetPoint"/>
                    </mxGeometry>
                </mxCell>
                <mxCell id="113" value="" style="sketch=0;aspect=fixed;html=1;points=[];align=center;image;fontSize=12;image=img/lib/mscae/Cache_Redis_Product.svg;labelBackgroundColor=none;strokeColor=#919191;fontFamily=Helvetica;fontColor=#FFFFFF;" parent="112" vertex="1">
                    <mxGeometry x="196" y="127.5" width="50" height="42" as="geometry"/>
                </mxCell>
                <mxCell id="125" value="" style="edgeStyle=none;rounded=0;sketch=0;jumpStyle=gap;html=1;shadow=0;strokeColor=#919191;strokeWidth=2;fontFamily=Helvetica;fontSize=16;fontColor=#FFFFFF;startArrow=classicThin;startFill=1;endArrow=classicThin;endFill=1;sourcePerimeterSpacing=0;targetPerimeterSpacing=0;" parent="112" source="115" target="113" edge="1">
                    <mxGeometry relative="1" as="geometry"/>
                </mxCell>
                <mxCell id="115" value="" style="sketch=0;aspect=fixed;html=1;points=[];align=center;image;fontSize=12;image=img/lib/mscae/Cache_Redis_Product.svg;labelBackgroundColor=none;strokeColor=#919191;fontFamily=Helvetica;fontColor=#FFFFFF;" parent="112" vertex="1">
                    <mxGeometry x="199" y="33" width="50" height="42" as="geometry"/>
                </mxCell>
                <mxCell id="127" value="" style="edgeStyle=none;rounded=0;sketch=0;jumpStyle=gap;html=1;shadow=1;strokeColor=#919191;strokeWidth=2;fontFamily=Helvetica;fontSize=16;fontColor=#FFFFFF;startArrow=classicThin;startFill=1;endArrow=classicThin;endFill=1;sourcePerimeterSpacing=0;targetPerimeterSpacing=0;entryX=0.06;entryY=0.033;entryDx=0;entryDy=0;entryPerimeter=0;" parent="112" source="117" target="119" edge="1">
                    <mxGeometry relative="1" as="geometry">
                        <mxPoint x="85" y="240.5" as="targetPoint"/>
                    </mxGeometry>
                </mxCell>
                <mxCell id="117" value="" style="sketch=0;aspect=fixed;html=1;points=[];align=center;image;fontSize=12;image=img/lib/mscae/Cache_Redis_Product.svg;labelBackgroundColor=none;strokeColor=#919191;fontFamily=Helvetica;fontColor=#FFFFFF;" parent="112" vertex="1">
                    <mxGeometry x="48" y="127.5" width="50" height="42" as="geometry"/>
                </mxCell>
                <mxCell id="118" value="" style="sketch=0;aspect=fixed;html=1;points=[];align=center;image;fontSize=12;image=img/lib/mscae/Cache_Redis_Product.svg;labelBackgroundColor=none;strokeColor=#919191;fontFamily=Helvetica;fontColor=#FFFFFF;" parent="112" vertex="1">
                    <mxGeometry x="344" y="127.5" width="50" height="42" as="geometry"/>
                </mxCell>
                <mxCell id="124" value="" style="edgeStyle=none;rounded=0;sketch=0;jumpStyle=gap;html=1;shadow=0;strokeColor=#919191;fontFamily=Helvetica;fontSize=16;fontColor=#FFFFFF;startArrow=classicThin;startFill=1;endArrow=classicThin;endFill=1;sourcePerimeterSpacing=0;targetPerimeterSpacing=0;strokeWidth=2;" parent="112" source="119" target="123" edge="1">
                    <mxGeometry relative="1" as="geometry"/>
                </mxCell>
                <mxCell id="119" value="" style="sketch=0;aspect=fixed;html=1;points=[];align=center;image;fontSize=12;image=img/lib/mscae/Cache_Redis_Product.svg;labelBackgroundColor=none;strokeColor=#919191;fontFamily=Helvetica;fontColor=#FFFFFF;fillColor=rgb(24, 20, 29);" parent="112" vertex="1">
                    <mxGeometry x="132" y="227" width="50" height="42" as="geometry"/>
                </mxCell>
                <mxCell id="129" value="" style="edgeStyle=none;rounded=0;sketch=0;jumpStyle=gap;html=1;shadow=0;strokeColor=#919191;strokeWidth=2;fontFamily=Helvetica;fontSize=16;fontColor=#FFFFFF;startArrow=classicThin;startFill=1;endArrow=classicThin;endFill=1;sourcePerimeterSpacing=0;targetPerimeterSpacing=0;exitX=1.008;exitY=-0.019;exitDx=0;exitDy=0;exitPerimeter=0;" parent="112" source="123" target="118" edge="1">
                    <mxGeometry relative="1" as="geometry"/>
                </mxCell>
                <mxCell id="123" value="" style="sketch=0;aspect=fixed;html=1;points=[];align=center;image;fontSize=12;image=img/lib/mscae/Cache_Redis_Product.svg;labelBackgroundColor=none;strokeColor=#919191;fontFamily=Helvetica;fontColor=#FFFFFF;fillColor=rgb(24, 20, 29);" parent="112" vertex="1">
                    <mxGeometry x="264" y="227" width="50" height="42" as="geometry"/>
                </mxCell>
                <mxCell id="171" style="edgeStyle=none;shape=flexArrow;rounded=0;sketch=0;jumpStyle=gap;html=1;exitX=0;exitY=0.5;exitDx=0;exitDy=0;entryX=1;entryY=0.5;entryDx=0;entryDy=0;shadow=0;strokeColor=#919191;strokeWidth=2;fontFamily=Helvetica;fontSize=18;fontColor=#808080;startArrow=none;startFill=0;endArrow=classicThin;endFill=1;sourcePerimeterSpacing=0;targetPerimeterSpacing=0;" parent="137" source="21" target="164" edge="1">
                    <mxGeometry relative="1" as="geometry"/>
                </mxCell>
                <mxCell id="176" style="edgeStyle=none;shape=flexArrow;rounded=0;sketch=0;jumpStyle=gap;html=1;exitX=0.75;exitY=0;exitDx=0;exitDy=0;entryX=0.5;entryY=0;entryDx=0;entryDy=0;shadow=0;strokeColor=#919191;strokeWidth=2;fontFamily=Helvetica;fontSize=18;fontColor=#808080;startArrow=none;startFill=0;endArrow=classicThin;endFill=1;sourcePerimeterSpacing=0;targetPerimeterSpacing=0;" parent="137" source="21" target="175" edge="1">
                    <mxGeometry relative="1" as="geometry">
                        <Array as="points">
                            <mxPoint x="724" y="412"/>
                            <mxPoint x="1300" y="412"/>
                            <mxPoint x="1295" y="805"/>
                            <mxPoint x="1169" y="805"/>
                        </Array>
                    </mxGeometry>
                </mxCell>
                <mxCell id="21" value="&lt;b&gt;&lt;font color=&quot;#808080&quot; style=&quot;font-size: 18px;&quot;&gt;NodeEngine-Cluster&lt;/font&gt;&lt;/b&gt;" style="fontStyle=0;verticalAlign=top;align=center;spacingTop=-2;fillColor=none;rounded=0;whiteSpace=wrap;html=1;strokeColor=#919191;strokeWidth=2;dashed=1;container=1;collapsible=0;expand=0;recursiveResize=0;movable=0;resizable=0;rotatable=0;deletable=0;editable=0;connectable=0;" parent="137" vertex="1">
                    <mxGeometry x="499" y="459" width="300" height="240" as="geometry"/>
                </mxCell>
                <mxCell id="29" value="" style="edgeStyle=none;html=1;fontSize=16;rounded=1;startArrow=blockThin;startFill=1;endArrow=blockThin;endFill=1;entryX=0.5;entryY=0;entryDx=0;entryDy=0;exitX=0;exitY=0.75;exitDx=0;exitDy=0;strokeColor=#919191;strokeWidth=2;fillColor=#1ba1e2;" parent="21" source="26" target="28" edge="1">
                    <mxGeometry relative="1" as="geometry"/>
                </mxCell>
                <mxCell id="26" value="" style="shape=image;verticalLabelPosition=bottom;labelBackgroundColor=default;verticalAlign=top;aspect=fixed;imageAspect=0;image=data:image/svg+xml,PHN2ZyB4bWxuczp4bGluaz0iaHR0cDovL3d3dy53My5vcmcvMTk5OS94bGluayIgeG1sbnM9Imh0dHA6Ly93d3cudzMub3JnLzIwMDAvc3ZnIiBoZWlnaHQ9IjQ4IiB3aWR0aD0iNDgiIHZlcnNpb249IjEuMSIgdmlld0JveD0iMCAwIDEwMjQgMTAyNCIgY2xhc3M9Imljb24iPjxwYXRoIGZpbGw9IiM0MmQzYTUiIGQ9Ik03MDUuOCAxODVIMzI3LjNMMTM4LjEgNTEzbDE4OS4yIDMyOGgzNzguNGwxODkuMi0zMjgtMTg5LjEtMzI4eiBtLTQxLjYgNTg0SDM2OC45TDIyMS4yIDUxM2wxNDcuNy0yNTZoMjk1LjNsMTQ3LjcgMjU2LTE0Ny43IDI1NnoiLz48cGF0aCBmaWxsPSIjNDJkM2E1IiBkPSJNNjcwIDU0OGMtMTIgMC0yMyA0LjMtMzEuNSAxMS41bC0xNjMuNy05NS4zYzEuNC01LjUgMi4yLTExLjIgMi4yLTE3LjIgMC0wLjggMC0xLjUtMC4xLTIuM2wxMjMuNi0zNy40YzcuNSA5IDE4LjggMTQuNyAzMS41IDE0LjcgMjIuNiAwIDQxLTE4LjQgNDEtNDFzLTE4LjQtNDEtNDEtNDFjLTIxLjIgMC0zOC42IDE2LTQwLjggMzYuNmwtMTIzIDM3LjNDNDU2LjcgMzkzLjcgNDM1IDM4MCA0MTAgMzgwYy0zNyAwLTY3IDMwLTY3IDY3IDAgMzIuNCAyMyA1OS41IDUzLjYgNjUuN2w5LjIgODMuMmMtMTAuMiA3LjUtMTYuOCAxOS41LTE2LjggMzMuMSAwIDIyLjYgMTguNCA0MSA0MSA0MXM0MS0xOC40IDQxLTQxYzAtMjAuMi0xNC42LTM2LjktMzMuOC00MC40bC04LjYtNzcuM2MxMi0zLjUgMjIuNi0xMC4yIDMwLjctMTkuMUw2MjIgNTg3Yy0wLjcgMy4yLTEgNi42LTEgMTAgMCAyNy4xIDIxLjkgNDkgNDkgNDlzNDktMjEuOSA0OS00OS0yMS45LTQ5LTQ5LTQ5eiIvPjwvc3ZnPg==;" parent="21" vertex="1">
                    <mxGeometry x="114" y="29" width="72" height="72" as="geometry"/>
                </mxCell>
                <mxCell id="31" value="" style="edgeStyle=none;html=1;fontSize=16;startArrow=blockThin;startFill=1;endArrow=blockThin;endFill=1;exitX=1;exitY=0.75;exitDx=0;exitDy=0;entryX=0;entryY=0.75;entryDx=0;entryDy=0;strokeColor=#919191;strokeWidth=2;" parent="21" source="28" target="30" edge="1">
                    <mxGeometry relative="1" as="geometry"/>
                </mxCell>
                <mxCell id="28" value="" style="shape=image;verticalLabelPosition=bottom;labelBackgroundColor=default;verticalAlign=top;aspect=fixed;imageAspect=0;image=data:image/svg+xml,PHN2ZyB4bWxuczp4bGluaz0iaHR0cDovL3d3dy53My5vcmcvMTk5OS94bGluayIgeG1sbnM9Imh0dHA6Ly93d3cudzMub3JnLzIwMDAvc3ZnIiBoZWlnaHQ9IjQ4IiB3aWR0aD0iNDgiIHZlcnNpb249IjEuMSIgdmlld0JveD0iMCAwIDEwMjQgMTAyNCIgY2xhc3M9Imljb24iPjxwYXRoIGZpbGw9IiM0MmQzYTUiIGQ9Ik03MDUuOCAxODVIMzI3LjNMMTM4LjEgNTEzbDE4OS4yIDMyOGgzNzguNGwxODkuMi0zMjgtMTg5LjEtMzI4eiBtLTQxLjYgNTg0SDM2OC45TDIyMS4yIDUxM2wxNDcuNy0yNTZoMjk1LjNsMTQ3LjcgMjU2LTE0Ny43IDI1NnoiLz48cGF0aCBmaWxsPSIjNDJkM2E1IiBkPSJNNjcwIDU0OGMtMTIgMC0yMyA0LjMtMzEuNSAxMS41bC0xNjMuNy05NS4zYzEuNC01LjUgMi4yLTExLjIgMi4yLTE3LjIgMC0wLjggMC0xLjUtMC4xLTIuM2wxMjMuNi0zNy40YzcuNSA5IDE4LjggMTQuNyAzMS41IDE0LjcgMjIuNiAwIDQxLTE4LjQgNDEtNDFzLTE4LjQtNDEtNDEtNDFjLTIxLjIgMC0zOC42IDE2LTQwLjggMzYuNmwtMTIzIDM3LjNDNDU2LjcgMzkzLjcgNDM1IDM4MCA0MTAgMzgwYy0zNyAwLTY3IDMwLTY3IDY3IDAgMzIuNCAyMyA1OS41IDUzLjYgNjUuN2w5LjIgODMuMmMtMTAuMiA3LjUtMTYuOCAxOS41LTE2LjggMzMuMSAwIDIyLjYgMTguNCA0MSA0MSA0MXM0MS0xOC40IDQxLTQxYzAtMjAuMi0xNC42LTM2LjktMzMuOC00MC40bC04LjYtNzcuM2MxMi0zLjUgMjIuNi0xMC4yIDMwLjctMTkuMUw2MjIgNTg3Yy0wLjcgMy4yLTEgNi42LTEgMTAgMCAyNy4xIDIxLjkgNDkgNDkgNDlzNDktMjEuOSA0OS00OS0yMS45LTQ5LTQ5LTQ5eiIvPjwvc3ZnPg==;" parent="21" vertex="1">
                    <mxGeometry x="42" y="137" width="72" height="72" as="geometry"/>
                </mxCell>
                <mxCell id="34" value="" style="edgeStyle=none;html=1;fontSize=16;endArrow=blockThin;endFill=1;startArrow=blockThin;startFill=1;exitX=0.5;exitY=0;exitDx=0;exitDy=0;entryX=1;entryY=0.75;entryDx=0;entryDy=0;strokeColor=#919191;strokeWidth=2;" parent="21" source="30" target="26" edge="1">
                    <mxGeometry relative="1" as="geometry"/>
                </mxCell>
                <mxCell id="30" value="" style="shape=image;verticalLabelPosition=bottom;labelBackgroundColor=default;verticalAlign=top;aspect=fixed;imageAspect=0;image=data:image/svg+xml,PHN2ZyB4bWxuczp4bGluaz0iaHR0cDovL3d3dy53My5vcmcvMTk5OS94bGluayIgeG1sbnM9Imh0dHA6Ly93d3cudzMub3JnLzIwMDAvc3ZnIiBoZWlnaHQ9IjQ4IiB3aWR0aD0iNDgiIHZlcnNpb249IjEuMSIgdmlld0JveD0iMCAwIDEwMjQgMTAyNCIgY2xhc3M9Imljb24iPjxwYXRoIGZpbGw9IiM0MmQzYTUiIGQ9Ik03MDUuOCAxODVIMzI3LjNMMTM4LjEgNTEzbDE4OS4yIDMyOGgzNzguNGwxODkuMi0zMjgtMTg5LjEtMzI4eiBtLTQxLjYgNTg0SDM2OC45TDIyMS4yIDUxM2wxNDcuNy0yNTZoMjk1LjNsMTQ3LjcgMjU2LTE0Ny43IDI1NnoiLz48cGF0aCBmaWxsPSIjNDJkM2E1IiBkPSJNNjcwIDU0OGMtMTIgMC0yMyA0LjMtMzEuNSAxMS41bC0xNjMuNy05NS4zYzEuNC01LjUgMi4yLTExLjIgMi4yLTE3LjIgMC0wLjggMC0xLjUtMC4xLTIuM2wxMjMuNi0zNy40YzcuNSA5IDE4LjggMTQuNyAzMS41IDE0LjcgMjIuNiAwIDQxLTE4LjQgNDEtNDFzLTE4LjQtNDEtNDEtNDFjLTIxLjIgMC0zOC42IDE2LTQwLjggMzYuNmwtMTIzIDM3LjNDNDU2LjcgMzkzLjcgNDM1IDM4MCA0MTAgMzgwYy0zNyAwLTY3IDMwLTY3IDY3IDAgMzIuNCAyMyA1OS41IDUzLjYgNjUuN2w5LjIgODMuMmMtMTAuMiA3LjUtMTYuOCAxOS41LTE2LjggMzMuMSAwIDIyLjYgMTguNCA0MSA0MSA0MXM0MS0xOC40IDQxLTQxYzAtMjAuMi0xNC42LTM2LjktMzMuOC00MC40bC04LjYtNzcuM2MxMi0zLjUgMjIuNi0xMC4yIDMwLjctMTkuMUw2MjIgNTg3Yy0wLjcgMy4yLTEgNi42LTEgMTAgMCAyNy4xIDIxLjkgNDkgNDkgNDlzNDktMjEuOSA0OS00OS0yMS45LTQ5LTQ5LTQ5eiIvPjwvc3ZnPg==;" parent="21" vertex="1">
                    <mxGeometry x="186" y="137" width="72" height="72" as="geometry"/>
                </mxCell>
                <mxCell id="130" style="edgeStyle=none;rounded=0;sketch=0;jumpStyle=gap;html=1;exitX=0.5;exitY=1;exitDx=0;exitDy=0;entryX=0.5;entryY=0;entryDx=0;entryDy=0;shadow=0;strokeColor=#808080;strokeWidth=2;fontFamily=Helvetica;fontSize=16;fontColor=#FFFFFF;startArrow=classicThin;startFill=1;endArrow=classicThin;endFill=1;sourcePerimeterSpacing=0;targetPerimeterSpacing=0;shape=flexArrow;" parent="137" source="112" target="21" edge="1">
                    <mxGeometry relative="1" as="geometry"/>
                </mxCell>
                <mxCell id="150" style="edgeStyle=none;shape=flexArrow;rounded=0;sketch=0;jumpStyle=gap;html=1;exitX=0.5;exitY=0;exitDx=0;exitDy=0;entryX=0.5;entryY=1;entryDx=0;entryDy=0;shadow=0;strokeColor=#919191;strokeWidth=2;fontFamily=Helvetica;fontSize=18;fontColor=#808080;startArrow=none;startFill=0;endArrow=classicThin;endFill=1;sourcePerimeterSpacing=0;targetPerimeterSpacing=0;" parent="137" source="131" target="148" edge="1">
                    <mxGeometry relative="1" as="geometry"/>
                </mxCell>
                <mxCell id="132" style="edgeStyle=none;shape=flexArrow;rounded=0;sketch=0;jumpStyle=gap;html=1;exitX=1;exitY=0.5;exitDx=0;exitDy=0;shadow=0;strokeColor=#808080;strokeWidth=2;fontFamily=Helvetica;fontSize=16;fontColor=#FFFFFF;startArrow=classicThin;startFill=1;endArrow=classicThin;endFill=1;sourcePerimeterSpacing=0;targetPerimeterSpacing=0;" parent="137" source="21" target="131" edge="1">
                    <mxGeometry relative="1" as="geometry"/>
                </mxCell>
                <mxCell id="47" value="&lt;span style=&quot;letter-spacing: 0.32px; text-align: start;&quot;&gt;&lt;b style=&quot;&quot;&gt;&lt;font style=&quot;font-size: 18px;&quot; color=&quot;#808080&quot;&gt;IoT Access Device Group&lt;/font&gt;&lt;/b&gt;&lt;/span&gt;" style="fontStyle=0;verticalAlign=top;align=center;spacingTop=-2;fillColor=none;rounded=0;whiteSpace=wrap;html=1;strokeColor=#919191;strokeWidth=2;dashed=1;container=1;collapsible=0;expand=0;recursiveResize=0;fontSize=16;movable=0;resizable=0;rotatable=0;deletable=0;editable=0;connectable=0;" parent="137" vertex="1">
                    <mxGeometry x="347.5" y="970" width="603" height="354" as="geometry"/>
                </mxCell>
                <mxCell id="67" style="edgeStyle=none;rounded=1;jumpStyle=gap;html=1;exitX=0.5;exitY=1;exitDx=0;exitDy=0;strokeColor=#919191;fontSize=14;fontColor=#FFFFFF;startArrow=blockThin;startFill=1;endArrow=blockThin;endFill=1;startSize=6;endSize=6;sourcePerimeterSpacing=0;targetPerimeterSpacing=0;strokeWidth=2;" parent="47" source="48" target="61" edge="1">
                    <mxGeometry relative="1" as="geometry"/>
                </mxCell>
                <mxCell id="68" style="edgeStyle=none;rounded=1;jumpStyle=gap;html=1;exitX=1;exitY=0.5;exitDx=0;exitDy=0;strokeColor=#919191;fontSize=14;fontColor=#FFFFFF;startArrow=blockThin;startFill=1;endArrow=blockThin;endFill=1;startSize=6;endSize=6;sourcePerimeterSpacing=0;targetPerimeterSpacing=0;strokeWidth=2;" parent="47" source="48" target="58" edge="1">
                    <mxGeometry relative="1" as="geometry"/>
                </mxCell>
                <mxCell id="69" style="edgeStyle=none;rounded=1;jumpStyle=gap;html=1;exitX=1;exitY=0.75;exitDx=0;exitDy=0;strokeColor=#919191;fontSize=14;fontColor=#FFFFFF;startArrow=blockThin;startFill=1;endArrow=blockThin;endFill=1;startSize=6;endSize=6;sourcePerimeterSpacing=0;targetPerimeterSpacing=0;strokeWidth=2;" parent="47" source="48" target="49" edge="1">
                    <mxGeometry relative="1" as="geometry"/>
                </mxCell>
                <mxCell id="48" value="" style="aspect=fixed;perimeter=ellipsePerimeter;html=1;align=center;shadow=0;dashed=0;fontColor=#4277BB;labelBackgroundColor=#ffffff;fontSize=12;spacingTop=3;image;image=img/lib/ibm/users/browser.svg;strokeColor=#FF3333;" parent="47" vertex="1">
                    <mxGeometry x="62" y="31" width="60" height="60" as="geometry"/>
                </mxCell>
                <mxCell id="71" style="edgeStyle=none;rounded=1;jumpStyle=gap;html=1;exitX=1;exitY=0.5;exitDx=0;exitDy=0;strokeColor=#919191;fontSize=14;fontColor=#FFFFFF;startArrow=blockThin;startFill=1;endArrow=blockThin;endFill=1;startSize=6;endSize=6;sourcePerimeterSpacing=0;targetPerimeterSpacing=0;strokeWidth=2;" parent="47" source="49" target="57" edge="1">
                    <mxGeometry relative="1" as="geometry"/>
                </mxCell>
                <mxCell id="74" style="edgeStyle=none;rounded=1;jumpStyle=gap;html=1;exitX=0;exitY=1;exitDx=0;exitDy=0;entryX=1;entryY=0;entryDx=0;entryDy=0;strokeColor=#919191;fontSize=14;fontColor=#FFFFFF;startArrow=blockThin;startFill=1;endArrow=blockThin;endFill=1;startSize=6;endSize=6;sourcePerimeterSpacing=0;targetPerimeterSpacing=0;strokeWidth=2;" parent="47" source="49" target="61" edge="1">
                    <mxGeometry relative="1" as="geometry"/>
                </mxCell>
                <mxCell id="49" value="" style="aspect=fixed;perimeter=ellipsePerimeter;html=1;align=center;shadow=0;dashed=0;fontColor=#4277BB;labelBackgroundColor=#ffffff;fontSize=12;spacingTop=3;image;image=img/lib/ibm/users/device.svg;strokeColor=#FF3333;" parent="47" vertex="1">
                    <mxGeometry x="160" y="163" width="60" height="60" as="geometry"/>
                </mxCell>
                <mxCell id="64" style="edgeStyle=none;rounded=1;jumpStyle=gap;html=1;exitX=0.5;exitY=1;exitDx=0;exitDy=0;entryX=0.5;entryY=0;entryDx=0;entryDy=0;strokeColor=#919191;fontSize=14;fontColor=#FFFFFF;startArrow=blockThin;startFill=1;endArrow=blockThin;endFill=1;startSize=6;endSize=6;sourcePerimeterSpacing=0;targetPerimeterSpacing=0;strokeWidth=2;" parent="47" source="50" target="62" edge="1">
                    <mxGeometry relative="1" as="geometry"/>
                </mxCell>
                <mxCell id="65" style="edgeStyle=none;rounded=1;jumpStyle=gap;html=1;exitX=0.25;exitY=1;exitDx=0;exitDy=0;entryX=0.75;entryY=0;entryDx=0;entryDy=0;strokeColor=#919191;fontSize=14;fontColor=#FFFFFF;startArrow=blockThin;startFill=1;endArrow=blockThin;endFill=1;startSize=6;endSize=6;sourcePerimeterSpacing=0;targetPerimeterSpacing=0;strokeWidth=2;" parent="47" source="50" target="57" edge="1">
                    <mxGeometry relative="1" as="geometry"/>
                </mxCell>
                <mxCell id="50" value="" style="aspect=fixed;perimeter=ellipsePerimeter;html=1;align=center;shadow=0;dashed=0;fontColor=#4277BB;labelBackgroundColor=#ffffff;fontSize=14;spacingTop=3;image;image=img/lib/ibm/users/sensor.svg;strokeColor=#FF3333;" parent="47" vertex="1">
                    <mxGeometry x="484" y="31" width="60" height="60" as="geometry"/>
                </mxCell>
                <mxCell id="75" style="edgeStyle=none;rounded=1;jumpStyle=gap;html=1;exitX=1;exitY=0.75;exitDx=0;exitDy=0;entryX=0;entryY=0;entryDx=0;entryDy=0;strokeColor=#919191;fontSize=14;fontColor=#FFFFFF;startArrow=blockThin;startFill=1;endArrow=blockThin;endFill=1;startSize=6;endSize=6;sourcePerimeterSpacing=0;targetPerimeterSpacing=0;strokeWidth=2;" parent="47" source="57" target="62" edge="1">
                    <mxGeometry relative="1" as="geometry"/>
                </mxCell>
                <mxCell id="57" value="" style="aspect=fixed;perimeter=ellipsePerimeter;html=1;align=center;shadow=0;dashed=0;fontColor=#4277BB;labelBackgroundColor=#ffffff;fontSize=12;spacingTop=3;image;image=img/lib/ibm/users/device.svg;strokeColor=#FFFFFF;" parent="47" vertex="1">
                    <mxGeometry x="387" y="165" width="60" height="60" as="geometry"/>
                </mxCell>
                <mxCell id="63" style="edgeStyle=none;rounded=1;jumpStyle=gap;html=1;exitX=1;exitY=0.5;exitDx=0;exitDy=0;strokeColor=#919191;fontSize=14;fontColor=#FFFFFF;startArrow=blockThin;startFill=1;endArrow=blockThin;endFill=1;startSize=6;endSize=6;sourcePerimeterSpacing=0;targetPerimeterSpacing=0;strokeWidth=2;" parent="47" source="58" target="50" edge="1">
                    <mxGeometry relative="1" as="geometry"/>
                </mxCell>
                <mxCell id="66" style="edgeStyle=none;rounded=1;jumpStyle=gap;html=1;exitX=0.75;exitY=1;exitDx=0;exitDy=0;strokeColor=#919191;fontSize=14;fontColor=#FFFFFF;startArrow=blockThin;startFill=1;endArrow=blockThin;endFill=1;startSize=6;endSize=6;sourcePerimeterSpacing=0;targetPerimeterSpacing=0;strokeWidth=2;" parent="47" source="58" target="57" edge="1">
                    <mxGeometry relative="1" as="geometry"/>
                </mxCell>
                <mxCell id="70" style="edgeStyle=none;rounded=1;jumpStyle=gap;html=1;exitX=0;exitY=1;exitDx=0;exitDy=0;entryX=1;entryY=0;entryDx=0;entryDy=0;strokeColor=#919191;fontSize=14;fontColor=#FFFFFF;startArrow=blockThin;startFill=1;endArrow=blockThin;endFill=1;startSize=6;endSize=6;sourcePerimeterSpacing=0;targetPerimeterSpacing=0;strokeWidth=2;" parent="47" source="58" target="49" edge="1">
                    <mxGeometry relative="1" as="geometry"/>
                </mxCell>
                <mxCell id="76" style="edgeStyle=none;rounded=1;jumpStyle=gap;html=1;exitX=0.5;exitY=1;exitDx=0;exitDy=0;strokeColor=#919191;fontSize=14;fontColor=#FFFFFF;startArrow=blockThin;startFill=1;endArrow=blockThin;endFill=1;startSize=6;endSize=6;sourcePerimeterSpacing=0;targetPerimeterSpacing=0;strokeWidth=2;" parent="47" source="58" target="60" edge="1">
                    <mxGeometry relative="1" as="geometry"/>
                </mxCell>
                <mxCell id="58" value="" style="aspect=fixed;perimeter=ellipsePerimeter;html=1;align=center;shadow=0;dashed=0;fontColor=#4277BB;labelBackgroundColor=#ffffff;fontSize=12;spacingTop=3;image;image=img/lib/ibm/users/sensor.svg;strokeColor=#FFFFFF;" parent="47" vertex="1">
                    <mxGeometry x="271.5" y="52" width="60" height="60" as="geometry"/>
                </mxCell>
                <mxCell id="73" style="edgeStyle=none;rounded=1;jumpStyle=gap;html=1;exitX=1;exitY=0.5;exitDx=0;exitDy=0;strokeColor=#919191;fontSize=14;fontColor=#FFFFFF;startArrow=blockThin;startFill=1;endArrow=blockThin;endFill=1;startSize=6;endSize=6;sourcePerimeterSpacing=0;targetPerimeterSpacing=0;strokeWidth=2;" parent="47" source="60" target="62" edge="1">
                    <mxGeometry relative="1" as="geometry"/>
                </mxCell>
                <mxCell id="60" value="" style="aspect=fixed;perimeter=ellipsePerimeter;html=1;align=center;shadow=0;dashed=0;fontColor=#4277BB;labelBackgroundColor=#ffffff;fontSize=12;spacingTop=3;image;image=img/lib/ibm/users/browser.svg;strokeColor=#FFFFFF;" parent="47" vertex="1">
                    <mxGeometry x="271.5" y="247" width="60" height="60" as="geometry"/>
                </mxCell>
                <mxCell id="72" style="edgeStyle=none;rounded=1;jumpStyle=gap;html=1;exitX=1;exitY=0.5;exitDx=0;exitDy=0;strokeColor=#919191;fontSize=14;fontColor=#FFFFFF;startArrow=blockThin;startFill=1;endArrow=blockThin;endFill=1;startSize=6;endSize=6;sourcePerimeterSpacing=0;targetPerimeterSpacing=0;strokeWidth=2;" parent="47" source="61" target="60" edge="1">
                    <mxGeometry relative="1" as="geometry"/>
                </mxCell>
                <mxCell id="61" value="" style="aspect=fixed;perimeter=ellipsePerimeter;html=1;align=center;shadow=0;dashed=0;fontColor=#4277BB;labelBackgroundColor=#ffffff;fontSize=12;spacingTop=3;image;image=img/lib/ibm/users/sensor.svg;strokeColor=#FFFFFF;" parent="47" vertex="1">
                    <mxGeometry x="62" y="269" width="60" height="60" as="geometry"/>
                </mxCell>
                <mxCell id="62" value="" style="aspect=fixed;perimeter=ellipsePerimeter;html=1;align=center;shadow=0;dashed=0;fontColor=#4277BB;labelBackgroundColor=#ffffff;fontSize=12;spacingTop=3;image;image=img/lib/ibm/users/device.svg;strokeColor=#FFFFFF;" parent="47" vertex="1">
                    <mxGeometry x="481" y="264" width="60" height="60" as="geometry"/>
                </mxCell>
                <mxCell id="79" value="&lt;font size=&quot;1&quot; style=&quot;&quot; color=&quot;#808080&quot;&gt;&lt;b style=&quot;font-size: 18px;&quot;&gt;Security Auth Service&lt;/b&gt;&lt;/font&gt;" style="fontStyle=0;verticalAlign=top;align=center;spacingTop=-2;fillColor=none;rounded=0;whiteSpace=wrap;html=1;strokeColor=#919191;strokeWidth=2;dashed=1;container=1;collapsible=0;expand=0;recursiveResize=0;labelBackgroundColor=none;fontSize=14;fontColor=#FFFFFF;movable=0;resizable=0;rotatable=0;deletable=0;editable=0;connectable=0;" parent="137" vertex="1">
                    <mxGeometry x="298" y="770" width="201" height="111" as="geometry"/>
                </mxCell>
                <mxCell id="77" value="" style="sketch=0;aspect=fixed;html=1;points=[];align=center;image;fontSize=12;image=img/lib/mscae/Security_Center.svg;labelBackgroundColor=none;strokeColor=#FFFFFF;fontColor=#FFFFFF;" parent="79" vertex="1">
                    <mxGeometry x="32" y="46" width="36" height="50" as="geometry"/>
                </mxCell>
                <mxCell id="78" value="" style="sketch=0;aspect=fixed;html=1;points=[];align=center;image;fontSize=12;image=img/lib/mscae/Key_Vaults.svg;labelBackgroundColor=none;strokeColor=#FFFFFF;fontColor=#FFFFFF;" parent="79" vertex="1">
                    <mxGeometry x="123" y="46" width="48" height="50" as="geometry"/>
                </mxCell>
                <mxCell id="103" style="edgeStyle=none;shape=flexArrow;rounded=0;sketch=0;jumpStyle=gap;html=1;exitX=0;exitY=1;exitDx=0;exitDy=0;entryX=0.75;entryY=0;entryDx=0;entryDy=0;shadow=0;strokeColor=#808080;fontFamily=Helvetica;fontSize=14;fontColor=#FFFFFF;startArrow=none;startFill=0;endArrow=blockThin;endFill=1;sourcePerimeterSpacing=0;targetPerimeterSpacing=0;strokeWidth=2;" parent="137" source="21" target="79" edge="1">
                    <mxGeometry relative="1" as="geometry"/>
                </mxCell>
                <mxCell id="110" style="edgeStyle=none;shape=flexArrow;rounded=0;sketch=0;jumpStyle=gap;html=1;exitX=0.5;exitY=1;exitDx=0;exitDy=0;entryX=0.086;entryY=-0.002;entryDx=0;entryDy=0;entryPerimeter=0;shadow=0;strokeColor=#808080;fontFamily=Helvetica;fontSize=14;fontColor=#FFFFFF;startArrow=block;startFill=0;endArrow=block;endFill=0;sourcePerimeterSpacing=0;targetPerimeterSpacing=0;strokeWidth=2;" parent="137" source="79" target="47" edge="1">
                    <mxGeometry relative="1" as="geometry"/>
                </mxCell>
                <mxCell id="80" value="&lt;div style=&quot;text-align: start;&quot;&gt;&lt;span style=&quot;background-color: initial; font-size: 18px; letter-spacing: 0.32px;&quot;&gt;&lt;font color=&quot;#808080&quot;&gt;&lt;b style=&quot;&quot;&gt;Message Service&lt;/b&gt;&lt;/font&gt;&lt;/span&gt;&lt;/div&gt;" style="fontStyle=0;verticalAlign=top;align=center;spacingTop=-2;fillColor=none;rounded=0;whiteSpace=wrap;html=1;strokeColor=#919191;strokeWidth=2;dashed=1;container=1;collapsible=0;expand=0;recursiveResize=0;labelBackgroundColor=none;fontSize=14;fontColor=#FFFFFF;movable=0;resizable=0;rotatable=0;deletable=0;editable=0;connectable=0;" parent="137" vertex="1">
                    <mxGeometry x="549" y="770" width="200" height="110" as="geometry"/>
                </mxCell>
                <mxCell id="85" value="" style="sketch=0;aspect=fixed;html=1;points=[];align=center;image;fontSize=12;image=img/lib/mscae/On_Premises_Data_Gateways.svg;labelBackgroundColor=#18141D;strokeColor=#919191;fontColor=#FFFFFF;" parent="80" vertex="1">
                    <mxGeometry x="127" y="40" width="50" height="50" as="geometry"/>
                </mxCell>
                <mxCell id="108" value="" style="sketch=0;aspect=fixed;html=1;points=[];align=center;image;fontSize=12;image=img/lib/mscae/Virtual_Network.svg;labelBackgroundColor=none;strokeColor=#919191;fontFamily=Helvetica;fontColor=#FFFFFF;" parent="80" vertex="1">
                    <mxGeometry x="25" y="51" width="50" height="28.000000000000004" as="geometry"/>
                </mxCell>
                <mxCell id="90" style="edgeStyle=none;rounded=0;jumpStyle=gap;html=1;exitX=0.5;exitY=1;exitDx=0;exitDy=0;entryX=0.5;entryY=0;entryDx=0;entryDy=0;strokeColor=#808080;fontSize=14;fontColor=#FFFFFF;startArrow=block;startFill=0;endArrow=blockThin;endFill=1;sourcePerimeterSpacing=0;targetPerimeterSpacing=0;shape=flexArrow;shadow=0;strokeWidth=2;" parent="137" source="80" target="47" edge="1">
                    <mxGeometry relative="1" as="geometry"/>
                </mxCell>
                <object label="" t="" id="93">
                    <mxCell style="edgeStyle=none;rounded=0;sketch=0;jumpStyle=gap;html=1;exitX=0.5;exitY=1;exitDx=0;exitDy=0;entryX=0.5;entryY=0;entryDx=0;entryDy=0;shadow=0;strokeColor=#808080;fontFamily=Helvetica;fontSize=14;fontColor=#FFFFFF;startArrow=none;startFill=0;endArrow=blockThin;endFill=1;sourcePerimeterSpacing=0;targetPerimeterSpacing=0;shape=flexArrow;strokeWidth=2;" parent="137" source="21" target="80" edge="1">
                        <mxGeometry relative="1" as="geometry"/>
                    </mxCell>
                </object>
                <mxCell id="86" value="&lt;span style=&quot;letter-spacing: 0.32px; text-align: start;&quot;&gt;&lt;font size=&quot;1&quot; color=&quot;#808080&quot; style=&quot;&quot;&gt;&lt;b style=&quot;font-size: 18px;&quot;&gt;Monitoring Service&lt;/b&gt;&lt;/font&gt;&lt;/span&gt;" style="fontStyle=0;verticalAlign=top;align=center;spacingTop=-2;fillColor=none;rounded=0;whiteSpace=wrap;html=1;strokeColor=#919191;strokeWidth=2;dashed=1;container=1;collapsible=0;expand=0;recursiveResize=0;labelBackgroundColor=none;fontSize=14;fontColor=#FFFFFF;movable=0;resizable=0;rotatable=0;deletable=0;editable=0;connectable=0;" parent="137" vertex="1">
                    <mxGeometry x="799" y="767" width="200" height="111" as="geometry"/>
                </mxCell>
                <mxCell id="106" value="" style="sketch=0;aspect=fixed;html=1;points=[];align=center;image;fontSize=12;image=img/lib/mscae/Traffic_Manager.svg;labelBackgroundColor=none;strokeColor=#919191;fontFamily=Helvetica;fontColor=#FFFFFF;" parent="86" vertex="1">
                    <mxGeometry x="30" y="41" width="50" height="50" as="geometry"/>
                </mxCell>
                <mxCell id="107" value="" style="sketch=0;aspect=fixed;html=1;points=[];align=center;image;fontSize=12;image=img/lib/mscae/Time_Series_Insights_environments.svg;labelBackgroundColor=none;strokeColor=#919191;fontFamily=Helvetica;fontColor=#FFFFFF;" parent="86" vertex="1">
                    <mxGeometry x="123" y="41" width="49" height="50" as="geometry"/>
                </mxCell>
                <mxCell id="104" style="edgeStyle=none;shape=flexArrow;rounded=0;sketch=0;jumpStyle=gap;html=1;exitX=1;exitY=1;exitDx=0;exitDy=0;entryX=0.25;entryY=0;entryDx=0;entryDy=0;shadow=0;strokeColor=#808080;fontFamily=Helvetica;fontSize=14;fontColor=#FFFFFF;startArrow=none;startFill=0;endArrow=blockThin;endFill=1;sourcePerimeterSpacing=0;targetPerimeterSpacing=0;strokeWidth=2;" parent="137" source="21" target="86" edge="1">
                    <mxGeometry relative="1" as="geometry"/>
                </mxCell>
                <mxCell id="109" style="edgeStyle=none;shape=flexArrow;rounded=0;sketch=0;jumpStyle=gap;html=1;exitX=0.5;exitY=1;exitDx=0;exitDy=0;entryX=0.915;entryY=-0.002;entryDx=0;entryDy=0;entryPerimeter=0;shadow=0;strokeColor=#808080;fontFamily=Helvetica;fontSize=14;fontColor=#FFFFFF;startArrow=block;startFill=0;endArrow=block;endFill=0;sourcePerimeterSpacing=0;targetPerimeterSpacing=0;strokeWidth=2;" parent="137" source="86" target="47" edge="1">
                    <mxGeometry relative="1" as="geometry"/>
                </mxCell>
                <mxCell id="148" value="&lt;span style=&quot;font-size: 18px;&quot;&gt;&lt;b&gt;Dashboard&lt;/b&gt;&lt;/span&gt;" style="fontStyle=0;verticalAlign=top;align=center;spacingTop=-2;fillColor=none;rounded=0;whiteSpace=wrap;html=1;strokeColor=#919191;strokeWidth=2;dashed=1;container=1;collapsible=0;expand=0;recursiveResize=0;labelBackgroundColor=none;fontFamily=Helvetica;fontSize=16;fontColor=#808080;movable=0;resizable=0;rotatable=0;deletable=0;editable=0;connectable=0;" parent="137" vertex="1">
                    <mxGeometry x="940" y="142.75" width="280" height="135.5" as="geometry"/>
                </mxCell>
                <mxCell id="149" value="" style="shape=image;verticalLabelPosition=bottom;labelBackgroundColor=default;verticalAlign=top;aspect=fixed;imageAspect=0;image=data:image/svg+xml,PHN2ZyB4bWxuczp4bGluaz0iaHR0cDovL3d3dy53My5vcmcvMTk5OS94bGluayIgeG1sbnM9Imh0dHA6Ly93d3cudzMub3JnLzIwMDAvc3ZnIiB4bWw6c3BhY2U9InByZXNlcnZlIiBzdHlsZT0iZW5hYmxlLWJhY2tncm91bmQ6bmV3IDAgMCAzNTEgMzY1OyIgdmlld0JveD0iMCAwIDM1MSAzNjUiIGhlaWdodD0iMzY1cHgiIHdpZHRoPSIzNTFweCIgeT0iMHB4IiB4PSIwcHgiIGlkPSJMYXllcl8xIiB2ZXJzaW9uPSIxLjEiPgo8c3R5bGUgdHlwZT0idGV4dC9jc3MiPgoJLnN0MHtmaWxsOnVybCgjU1ZHSURfMV8pO30KPC9zdHlsZT4KPGcgaWQ9IkxheWVyXzFfMV8iPgo8L2c+CjxsaW5lYXJHcmFkaWVudCB5Mj0iOTklIiB4Mj0iMTc1LjUiIHkxPSIzMCUiIHgxPSIxNzUuNSIgZ3JhZGllbnRVbml0cz0idXNlclNwYWNlT25Vc2UiIGlkPSJTVkdJRF8xXyI+Cgk8c3RvcCBzdHlsZT0ic3RvcC1jb2xvcjojRjA1QTI4IiBvZmZzZXQ9IjAiLz4KCTxzdG9wIHN0eWxlPSJzdG9wLWNvbG9yOiNGQkNBMEEiIG9mZnNldD0iMSIvPgo8L2xpbmVhckdyYWRpZW50Pgo8cGF0aCBkPSJNMzQyLDE2MS4yYy0wLjYtNi4xLTEuNi0xMy4xLTMuNi0yMC45Yy0yLTcuNy01LTE2LjItOS40LTI1Yy00LjQtOC44LTEwLjEtMTcuOS0xNy41LTI2LjgmIzEwOyYjOTtjLTIuOS0zLjUtNi4xLTYuOS05LjUtMTAuMmM1LjEtMjAuMy02LjItMzcuOS02LjItMzcuOWMtMTkuNS0xLjItMzEuOSw2LjEtMzYuNSw5LjRjLTAuOC0wLjMtMS41LTAuNy0yLjMtMSYjMTA7JiM5O2MtMy4zLTEuMy02LjctMi42LTEwLjMtMy43Yy0zLjUtMS4xLTcuMS0yLjEtMTAuOC0zYy0zLjctMC45LTcuNC0xLjYtMTEuMi0yLjJjLTAuNy0wLjEtMS4zLTAuMi0yLTAuMyYjMTA7JiM5O2MtOC41LTI3LjItMzIuOS0zOC42LTMyLjktMzguNmMtMjcuMywxNy4zLTMyLjQsNDEuNS0zMi40LDQxLjVzLTAuMSwwLjUtMC4zLDEuNGMtMS41LDAuNC0zLDAuOS00LjUsMS4zYy0yLjEsMC42LTQuMiwxLjQtNi4yLDIuMiYjMTA7JiM5O2MtMi4xLDAuOC00LjEsMS42LTYuMiwyLjVjLTQuMSwxLjgtOC4yLDMuOC0xMi4yLDZjLTMuOSwyLjItNy43LDQuNi0xMS40LDcuMWMtMC41LTAuMi0xLTAuNC0xLTAuNGMtMzcuOC0xNC40LTcxLjMsMi45LTcxLjMsMi45JiMxMDsmIzk7Yy0zLjEsNDAuMiwxNS4xLDY1LjUsMTguNyw3MC4xYy0wLjksMi41LTEuNyw1LTIuNSw3LjVjLTIuOCw5LjEtNC45LDE4LjQtNi4yLDI4LjFjLTAuMiwxLjQtMC40LDIuOC0wLjUsNC4yJiMxMDsmIzk7QzE4LjgsMTkyLjcsOC41LDIyOCw4LjUsMjI4YzI5LjEsMzMuNSw2My4xLDM1LjYsNjMuMSwzNS42YzAsMCwwLjEtMC4xLDAuMS0wLjFjNC4zLDcuNyw5LjMsMTUsMTQuOSwyMS45YzIuNCwyLjksNC44LDUuNiw3LjQsOC4zJiMxMDsmIzk7Yy0xMC42LDMwLjQsMS41LDU1LjYsMS41LDU1LjZjMzIuNCwxLjIsNTMuNy0xNC4yLDU4LjItMTcuN2MzLjIsMS4xLDYuNSwyLjEsOS44LDIuOWMxMCwyLjYsMjAuMiw0LjEsMzAuNCw0LjUmIzEwOyYjOTtjMi41LDAuMSw1LjEsMC4yLDcuNiwwLjFsMS4yLDBsMC44LDBsMS42LDBsMS42LTAuMWwwLDAuMWMxNS4zLDIxLjgsNDIuMSwyNC45LDQyLjEsMjQuOWMxOS4xLTIwLjEsMjAuMi00MC4xLDIwLjItNDQuNGwwLDAmIzEwOyYjOTtjMCwwLDAtMC4xLDAtMC4zYzAtMC40LDAtMC42LDAtMC42bDAsMGMwLTAuMywwLTAuNiwwLTAuOWM0LTIuOCw3LjgtNS44LDExLjQtOS4xYzcuNi02LjksMTQuMy0xNC44LDE5LjktMjMuMyYjMTA7JiM5O2MwLjUtMC44LDEtMS42LDEuNS0yLjRjMjEuNiwxLjIsMzYuOS0xMy40LDM2LjktMTMuNGMtMy42LTIyLjUtMTYuNC0zMy41LTE5LjEtMzUuNmwwLDBjMCwwLTAuMS0wLjEtMC4zLTAuMiYjMTA7JiM5O2MtMC4yLTAuMS0wLjItMC4yLTAuMi0wLjJjMCwwLDAsMCwwLDBjLTAuMS0wLjEtMC4zLTAuMi0wLjUtMC4zYzAuMS0xLjQsMC4yLTIuNywwLjMtNC4xYzAuMi0yLjQsMC4yLTQuOSwwLjItNy4zbDAtMS44bDAtMC45JiMxMDsmIzk7bDAtMC41YzAtMC42LDAtMC40LDAtMC42bC0wLjEtMS41bC0wLjEtMmMwLTAuNy0wLjEtMS4zLTAuMi0xLjljLTAuMS0wLjYtMC4xLTEuMy0wLjItMS45bC0wLjItMS45bC0wLjMtMS45JiMxMDsmIzk7Yy0wLjQtMi41LTAuOC00LjktMS40LTcuNGMtMi4zLTkuNy02LjEtMTguOS0xMS0yNy4yYy01LTguMy0xMS4yLTE1LjYtMTguMy0yMS44Yy03LTYuMi0xNC45LTExLjItMjMuMS0xNC45JiMxMDsmIzk7Yy04LjMtMy43LTE2LjktNi4xLTI1LjUtNy4yYy00LjMtMC42LTguNi0wLjgtMTIuOS0wLjdsLTEuNiwwbC0wLjQsMGMtMC4xLDAtMC42LDAtMC41LDBsLTAuNywwbC0xLjYsMC4xYy0wLjYsMC0xLjIsMC4xLTEuNywwLjEmIzEwOyYjOTtjLTIuMiwwLjItNC40LDAuNS02LjUsMC45Yy04LjYsMS42LTE2LjcsNC43LTIzLjgsOWMtNy4xLDQuMy0xMy4zLDkuNi0xOC4zLDE1LjZjLTUsNi04LjksMTIuNy0xMS42LDE5LjZjLTIuNyw2LjktNC4yLDE0LjEtNC42LDIxJiMxMDsmIzk7Yy0wLjEsMS43LTAuMSwzLjUtMC4xLDUuMmMwLDAuNCwwLDAuOSwwLDEuM2wwLjEsMS40YzAuMSwwLjgsMC4xLDEuNywwLjIsMi41YzAuMywzLjUsMSw2LjksMS45LDEwLjFjMS45LDYuNSw0LjksMTIuNCw4LjYsMTcuNCYjMTA7JiM5O2MzLjcsNSw4LjIsOS4xLDEyLjksMTIuNGM0LjcsMy4yLDkuOCw1LjUsMTQuOCw3YzUsMS41LDEwLDIuMSwxNC43LDIuMWMwLjYsMCwxLjIsMCwxLjcsMGMwLjMsMCwwLjYsMCwwLjksMGMwLjMsMCwwLjYsMCwwLjktMC4xJiMxMDsmIzk7YzAuNSwwLDEtMC4xLDEuNS0wLjFjMC4xLDAsMC4zLDAsMC40LTAuMWwwLjUtMC4xYzAuMywwLDAuNi0wLjEsMC45LTAuMWMwLjYtMC4xLDEuMS0wLjIsMS43LTAuM2MwLjYtMC4xLDEuMS0wLjIsMS42LTAuNCYjMTA7JiM5O2MxLjEtMC4yLDIuMS0wLjYsMy4xLTAuOWMyLTAuNyw0LTEuNSw1LjctMi40YzEuOC0wLjksMy40LTIsNS0zYzAuNC0wLjMsMC45LTAuNiwxLjMtMWMxLjYtMS4zLDEuOS0zLjcsMC42LTUuMyYjMTA7JiM5O2MtMS4xLTEuNC0zLjEtMS44LTQuNy0wLjljLTAuNCwwLjItMC44LDAuNC0xLjIsMC42Yy0xLjQsMC43LTIuOCwxLjMtNC4zLDEuOGMtMS41LDAuNS0zLjEsMC45LTQuNywxLjJjLTAuOCwwLjEtMS42LDAuMi0yLjUsMC4zJiMxMDsmIzk7Yy0wLjQsMC0wLjgsMC4xLTEuMywwLjFjLTAuNCwwLTAuOSwwLTEuMiwwYy0wLjQsMC0wLjgsMC0xLjIsMGMtMC41LDAtMSwwLTEuNS0wLjFjMCwwLTAuMywwLTAuMSwwbC0wLjIsMGwtMC4zLDAmIzEwOyYjOTtjLTAuMiwwLTAuNSwwLTAuNy0wLjFjLTAuNS0wLjEtMC45LTAuMS0xLjQtMC4yYy0zLjctMC41LTcuNC0xLjYtMTAuOS0zLjJjLTMuNi0xLjYtNy0zLjgtMTAuMS02LjZjLTMuMS0yLjgtNS44LTYuMS03LjktOS45JiMxMDsmIzk7Yy0yLjEtMy44LTMuNi04LTQuMy0xMi40Yy0wLjMtMi4yLTAuNS00LjUtMC40LTYuN2MwLTAuNiwwLjEtMS4yLDAuMS0xLjhjMCwwLjIsMC0wLjEsMC0wLjFsMC0wLjJsMC0wLjVjMC0wLjMsMC4xLTAuNiwwLjEtMC45JiMxMDsmIzk7YzAuMS0xLjIsMC4zLTIuNCwwLjUtMy42YzEuNy05LjYsNi41LTE5LDEzLjktMjYuMWMxLjktMS44LDMuOS0zLjQsNi00LjljMi4xLTEuNSw0LjQtMi44LDYuOC0zLjljMi40LTEuMSw0LjgtMiw3LjQtMi43JiMxMDsmIzk7YzIuNS0wLjcsNS4xLTEuMSw3LjgtMS40YzEuMy0wLjEsMi42LTAuMiw0LTAuMmMwLjQsMCwwLjYsMCwwLjksMGwxLjEsMGwwLjcsMGMwLjMsMCwwLDAsMC4xLDBsMC4zLDBsMS4xLDAuMSYjMTA7JiM5O2MyLjksMC4yLDUuNywwLjYsOC41LDEuM2M1LjYsMS4yLDExLjEsMy4zLDE2LjIsNi4xYzEwLjIsNS43LDE4LjksMTQuNSwyNC4yLDI1LjFjMi43LDUuMyw0LjYsMTEsNS41LDE2LjljMC4yLDEuNSwwLjQsMywwLjUsNC41JiMxMDsmIzk7bDAuMSwxLjFsMC4xLDEuMWMwLDAuNCwwLDAuOCwwLDEuMWMwLDAuNCwwLDAuOCwwLDEuMWwwLDFsMCwxLjFjMCwwLjctMC4xLDEuOS0wLjEsMi42Yy0wLjEsMS42LTAuMywzLjMtMC41LDQuOSYjMTA7JiM5O2MtMC4yLDEuNi0wLjUsMy4yLTAuOCw0LjhjLTAuMywxLjYtMC43LDMuMi0xLjEsNC43Yy0wLjgsMy4xLTEuOCw2LjItMyw5LjNjLTIuNCw2LTUuNiwxMS44LTkuNCwxNy4xJiMxMDsmIzk7Yy03LjcsMTAuNi0xOC4yLDE5LjItMzAuMiwyNC43Yy02LDIuNy0xMi4zLDQuNy0xOC44LDUuN2MtMy4yLDAuNi02LjUsMC45LTkuOCwxbC0wLjYsMGwtMC41LDBsLTEuMSwwbC0xLjYsMGwtMC44LDAmIzEwOyYjOTtjMC40LDAtMC4xLDAtMC4xLDBsLTAuMywwYy0xLjgsMC0zLjUtMC4xLTUuMy0wLjNjLTctMC41LTEzLjktMS44LTIwLjctMy43Yy02LjctMS45LTEzLjItNC42LTE5LjQtNy44JiMxMDsmIzk7Yy0xMi4zLTYuNi0yMy40LTE1LjYtMzItMjYuNWMtNC4zLTUuNC04LjEtMTEuMy0xMS4yLTE3LjRjLTMuMS02LjEtNS42LTEyLjYtNy40LTE5LjFjLTEuOC02LjYtMi45LTEzLjMtMy40LTIwLjFsLTAuMS0xLjNsMC0wLjMmIzEwOyYjOTtsMC0wLjNsMC0wLjZsMC0xLjFsMC0wLjNsMC0wLjRsMC0wLjhsMC0xLjZsMC0wLjNjMCwwLDAsMC4xLDAtMC4xbDAtMC42YzAtMC44LDAtMS43LDAtMi41YzAuMS0zLjMsMC40LTYuOCwwLjgtMTAuMiYjMTA7JiM5O2MwLjQtMy40LDEtNi45LDEuNy0xMC4zYzAuNy0zLjQsMS41LTYuOCwyLjUtMTAuMmMxLjktNi43LDQuMy0xMy4yLDcuMS0xOS4zYzUuNy0xMi4yLDEzLjEtMjMuMSwyMi0zMS44YzIuMi0yLjIsNC41LTQuMiw2LjktNi4yJiMxMDsmIzk7YzIuNC0xLjksNC45LTMuNyw3LjUtNS40YzIuNS0xLjcsNS4yLTMuMiw3LjktNC42YzEuMy0wLjcsMi43LTEuNCw0LjEtMmMwLjctMC4zLDEuNC0wLjYsMi4xLTAuOWMwLjctMC4zLDEuNC0wLjYsMi4xLTAuOSYjMTA7JiM5O2MyLjgtMS4yLDUuNy0yLjIsOC43LTMuMWMwLjctMC4yLDEuNS0wLjQsMi4yLTAuN2MwLjctMC4yLDEuNS0wLjQsMi4yLTAuNmMxLjUtMC40LDMtMC44LDQuNS0xLjFjMC43LTAuMiwxLjUtMC4zLDIuMy0wLjUmIzEwOyYjOTtjMC44LTAuMiwxLjUtMC4zLDIuMy0wLjVjMC44LTAuMSwxLjUtMC4zLDIuMy0wLjRsMS4xLTAuMmwxLjItMC4yYzAuOC0wLjEsMS41LTAuMiwyLjMtMC4zYzAuOS0wLjEsMS43LTAuMiwyLjYtMC4zJiMxMDsmIzk7YzAuNy0wLjEsMS45LTAuMiwyLjYtMC4zYzAuNS0wLjEsMS4xLTAuMSwxLjYtMC4ybDEuMS0wLjFsMC41LTAuMWwwLjYsMGMwLjktMC4xLDEuNy0wLjEsMi42LTAuMmwxLjMtMC4xYzAsMCwwLjUsMCwwLjEsMGwwLjMsMCYjMTA7JiM5O2wwLjYsMGMwLjcsMCwxLjUtMC4xLDIuMi0wLjFjMi45LTAuMSw1LjktMC4xLDguOCwwYzUuOCwwLjIsMTEuNSwwLjksMTcsMS45YzExLjEsMi4xLDIxLjUsNS42LDMxLDEwLjMmIzEwOyYjOTtjOS41LDQuNiwxNy45LDEwLjMsMjUuMywxNi41YzAuNSwwLjQsMC45LDAuOCwxLjQsMS4yYzAuNCwwLjQsMC45LDAuOCwxLjMsMS4yYzAuOSwwLjgsMS43LDEuNiwyLjYsMi40YzAuOSwwLjgsMS43LDEuNiwyLjUsMi40JiMxMDsmIzk7YzAuOCwwLjgsMS42LDEuNiwyLjQsMi41YzMuMSwzLjMsNiw2LjYsOC42LDEwYzUuMiw2LjcsOS40LDEzLjUsMTIuNywxOS45YzAuMiwwLjQsMC40LDAuOCwwLjYsMS4yYzAuMiwwLjQsMC40LDAuOCwwLjYsMS4yJiMxMDsmIzk7YzAuNCwwLjgsMC44LDEuNiwxLjEsMi40YzAuNCwwLjgsMC43LDEuNSwxLjEsMi4zYzAuMywwLjgsMC43LDEuNSwxLDIuM2MxLjIsMywyLjQsNS45LDMuMyw4LjZjMS41LDQuNCwyLjYsOC4zLDMuNSwxMS43JiMxMDsmIzk7YzAuMywxLjQsMS42LDIuMywzLDIuMWMxLjUtMC4xLDIuNi0xLjMsMi42LTIuOEMzNDIuNiwxNzAuNCwzNDIuNSwxNjYuMSwzNDIsMTYxLjJ6IiBjbGFzcz0ic3QwIi8+Cjwvc3ZnPg==;" parent="148" vertex="1">
                    <mxGeometry x="206.5" y="53" width="50.01" height="52" as="geometry"/>
                </mxCell>
                <mxCell id="157" style="edgeStyle=none;rounded=0;sketch=0;jumpStyle=gap;html=1;exitX=1;exitY=0.5;exitDx=0;exitDy=0;entryX=0;entryY=0.5;entryDx=0;entryDy=0;shadow=0;strokeColor=#919191;strokeWidth=2;fontFamily=Helvetica;fontSize=18;fontColor=none;startArrow=none;startFill=0;endArrow=classicThin;endFill=1;sourcePerimeterSpacing=0;targetPerimeterSpacing=0;" parent="148" source="151" target="149" edge="1">
                    <mxGeometry relative="1" as="geometry"/>
                </mxCell>
                <mxCell id="151" value="" style="shape=image;verticalLabelPosition=bottom;labelBackgroundColor=default;verticalAlign=top;aspect=fixed;imageAspect=0;image=data:image/svg+xml,PHN2ZyB4bWxuczp4bGluaz0iaHR0cDovL3d3dy53My5vcmcvMTk5OS94bGluayIgeG1sbnM9Imh0dHA6Ly93d3cudzMub3JnLzIwMDAvc3ZnIiBoZWlnaHQ9IjEyOCIgd2lkdGg9IjEyOCIgdmVyc2lvbj0iMS4xIiB2aWV3Qm94PSIwIDAgMTAyNCAxMDI0IiBjbGFzcz0iaWNvbiI+PHBhdGggZmlsbD0iI0ZGNkEwMCIgZD0iTTQ2NS42ODUzMzMgMzgzLjY1ODY2N2MwIDMuMTM2IDM3LjYxMDY2Ny0yMC45MDY2NjcgMzcuNjEwNjY3LTc1LjQxMzMzNGExODQuNzI1MzMzIDE4NC43MjUzMzMgMCAwIDEgMTAuOTY1MzMzLTc1Ljk0NjY2NiA3MzkuOTQ2NjY3IDczOS45NDY2NjcgMCAwIDEgOTIuMTE3MzM0IDEyNy44NTA2NjZjMjIuOTk3MzMzIDUwLjEzMzMzMyAzOS41NTIgODUuMzMzMzMzIDI0LjIxMzMzMyAxNTIuNzI1MzM0YTEwOC41MDEzMzMgMTA4LjUwMTMzMyAwIDAgMS0xMy4yMjY2NjcgMzIuMjEzMzMzIDE1OC40NjQgMTU4LjQ2NCAwIDAgMS03OC4zNzg2NjYgNjQuOTZjMS45Mi0xNy40MDggMjIuOTk3MzMzLTYyLjE2NTMzMy04LjcwNC04Ny4wODI2NjctMjAuNzE0NjY3LTE3LjQwOC0zOC44MjY2NjctMjcuNjkwNjY3LTMyLjc0NjY2Ny02OS42NTMzMzMgMy4zMjgtMTAuMDkwNjY3IDguMDIxMzMzLTE5LjQ5ODY2NyAxNC4xMjI2NjctMjguMjAyNjY3LTkuMDY2NjY3IDMuMTE0NjY3LTY0LjQyNjY2NyAyNS42LTc1LjI0MjY2NyA4MS4zMjI2NjdhMTQ0Ljg3NDY2NyAxNDQuODc0NjY3IDAgMCAwIDI0Ljc0NjY2NyA5OS4wOTMzMzNjLTEyLjU0NC0wLjg3NDY2Ny02MS40ODI2NjctNy44NTA2NjctODIuMjE4NjY3LTgyLjE5NzMzMy03LjMxNzMzMy00Mi4zMjUzMzMtMTUuNDg4LTY5LjY3NDY2NyAzNC44MzczMzMtMTQwLjg4NTMzMyAxNy41Nzg2NjctMTguMzA0IDI3LjE1NzMzMy00Mi42NjY2NjcgMjYuODE2LTY3LjkyNTMzNCAyLjQzMi0xLjM4NjY2NyAyNy44NjEzMzMgMi45NjUzMzMgMjUuMDg4IDY5LjEyek01OTcuMzMzMzMzIDcyOC4yOTg2NjdjMCA0NC41ODY2NjctNDEuMTA5MzMzIDgwLjgxMDY2Ny05MS43NzYgODAuODEwNjY2LTUwLjY4OCAwLTkxLjc3Ni0zNi4yMjQtOTEuNzc2LTgwLjgxMDY2Nk0zNjguODUzMzMzIDY2OS4wNzczMzNoMjczLjIzNzMzNHY0Ny44OTMzMzRIMzY4Ljg1MzMzM3oiLz48cGF0aCBmaWxsPSIjRkY2QTAwIiBkPSJNMjg5LjA4OCA1NjUuOTczMzMzczIxMi44MjEzMzMgNjkuNjc0NjY3IDQyOC40MTYgMGMwIDEzLjA3NzMzMy0yNi4zMDQgNzYuOC00OS42NDI2NjcgODcuMDgyNjY3SDM0MC42MjkzMzNzLTQ0LjA1MzMzMy00NC4wNTMzMzMtNTEuNTQxMzMzLTg3LjA2MTMzM3oiLz48cGF0aCBmaWxsPSIjRkY2QTAwIiBkPSJNMTkyLjk2IDIzMy4xNzMzMzNhNTIuOTQ5MzMzIDUyLjk0OTMzMyAwIDAgMSA3LjE0NjY2NyAxMDUuNDI5MzM0bDIuNDMyLTQuMDUzMzM0Yy0xMDIuOTMzMzMzIDE2NS45NzMzMzMtNTEuOTA0IDM4NCAxMTQuMjQgNDg2LjkxMmEzNTMuODEzMzMzIDM1My44MTMzMzMgMCAwIDAgNDEyLjkwNjY2Ni0yOC45MDY2NjYgMzIuMzg0IDMyLjM4NCAwIDAgMSA0NS42MzIgMC44NTMzMzNjMTIuMzczMzMzIDEyLjkwNjY2NyAxMS44NCAzMy4yOC0wLjg3NDY2NiA0NS42NTMzMzMtMS4wNDUzMzMgMS4wNDUzMzMtMi4yNjEzMzMgMS45Mi0zLjMwNjY2NyAyLjc3MzMzNGE0MTcuOTYyNjY3IDQxNy45NjI2NjcgMCAwIDEtMjY3Ljg0IDk2LjY0QzI3Mi41NTQ2NjcgOTM4LjY2NjY2NyA4NS4zMzMzMzMgNzUxLjQ2NjY2NyA4NS4zMzMzMzMgNTIwLjcyNTMzM2MwLTc1LjMwNjY2NyAyMC4zMDkzMzMtMTQ5LjMzMzMzMyA1OC44NTg2NjctMjEzLjkwOTMzM2E1Mi45NzA2NjcgNTIuOTcwNjY3IDAgMCAxIDQ4Ljc2OC03My42eiBtNjY2Ljk4NjY2NyA2OS41MDRhNDE4LjYwMjY2NyA0MTguNjAyNjY3IDAgMCAxIDYxLjMxMiAyMTguMDI2NjY3IDQxNC4zNTczMzMgNDE0LjM1NzMzMyAwIDAgMS0zNS4wMDggMTY3LjYxNiA1Mi45NDkzMzMgNTIuOTQ5MzMzIDAgMSAxLTU0LjY5ODY2Ny0zNS43NzYgMzQ4LjI4OCAzNDguMjg4IDAgMCAwIDI1LjQyOTMzMy0xMzEuODRjMC0xOTUuMi0xNTguMjkzMzMzLTM1My43MDY2NjctMzUzLjcwNjY2Ni0zNTMuNzA2NjY3LTY0LjkzODY2NyAwLTEyOC44NTMzMzMgMTcuOTQxMzMzLTE4NC4yMzQ2NjcgNTEuNzMzMzM0YTMyLjM2MjY2NyAzMi4zNjI2NjcgMCAwIDEtNDMuNzEyLTEzLjA1NiAzMi4xMjggMzIuMTI4IDAgMCAxIDEwLjExMi00MS44MTMzMzRjMTk2Ljk0OTMzMy0xMjAuMzIgNDU0LjE4NjY2Ny01OC4xNTQ2NjcgNTc0LjUwNjY2NyAxMzguODE2eiIvPjwvc3ZnPg==;" parent="148" vertex="1">
                    <mxGeometry x="112" y="45.63" width="66.75" height="66.75" as="geometry"/>
                </mxCell>
                <mxCell id="155" style="edgeStyle=none;rounded=0;sketch=0;jumpStyle=gap;html=1;exitX=1;exitY=0.5;exitDx=0;exitDy=0;shadow=0;strokeColor=#919191;strokeWidth=2;fontFamily=Helvetica;fontSize=18;fontColor=none;startArrow=none;startFill=0;endArrow=classicThin;endFill=1;sourcePerimeterSpacing=0;targetPerimeterSpacing=0;" parent="148" source="154" target="151" edge="1">
                    <mxGeometry relative="1" as="geometry"/>
                </mxCell>
                <mxCell id="154" value="" style="shape=image;verticalLabelPosition=bottom;labelBackgroundColor=default;verticalAlign=top;aspect=fixed;imageAspect=0;image=data:image/svg+xml,PHN2ZyB4bWxucz0iaHR0cDovL3d3dy53My5vcmcvMjAwMC9zdmciIHZpZXdCb3g9IjAgMCAxODkuMTA1NzQgMTg5LjEwNzM4IiBoZWlnaHQ9IjE4OS4xMDczOCIgd2lkdGg9IjE4OS4xMDU3NCIgeG1sOnNwYWNlPSJwcmVzZXJ2ZSIgdmVyc2lvbj0iMS4xIiBpZD0ic3ZnMzM1NSI+PG1ldGFkYXRhIGlkPSJtZXRhZGF0YTMzNjEiPmltYWdlL3N2Zyt4bWw8L21ldGFkYXRhPjxkZWZzIGlkPSJkZWZzMzM1OSI+PGNsaXBQYXRoIGlkPSJjbGlwUGF0aDMzNjkiIGNsaXBQYXRoVW5pdHM9InVzZXJTcGFjZU9uVXNlIj48cGF0aCBpZD0icGF0aDMzNzEiIGQ9Ik0gMCw3NjggMTM2Niw3NjggMTM2NiwwIDAsMCAwLDc2OCBaIi8+PC9jbGlwUGF0aD48L2RlZnM+PGcgdHJhbnNmb3JtPSJtYXRyaXgoMS4yNSwwLDAsLTEuMjUsLTQ2OC4wMzM3NSw1NzMuOTI4NzUpIiBpZD0iZzMzNjMiPjxnIGlkPSJnMzM2NSI+PGcgY2xpcC1wYXRoPSJ1cmwoI2NsaXBQYXRoMzM2OSkiIGlkPSJnMzM2NyI+PGcgdHJhbnNmb3JtPSJ0cmFuc2xhdGUoMzk1LjgxMywzNTAuNTg1KSIgaWQ9ImczMzczIj48cGF0aCBpZD0icGF0aDMzNzUiIHN0eWxlPSJmaWxsOiMxYmE4OWM7ZmlsbC1vcGFjaXR5OjE7ZmlsbC1ydWxlOm5vbnplcm87c3Ryb2tlOm5vbmUiIGQ9Im0gMCwwIDYuMTUzLDEzLjk4NCAxMy42MDEsNC4xNjMgMTAuMTE1LDQ3LjU4OSAyNC40ODUsLTI3LjcwNiAyMy45MjEsMjcuMjQ5IDExLjE4MywtNDAuMSA3LjM1MSwxLjcxOSAxNC45ODMsMzAuMTA5IDEwLjgzMSw4LjMwOCBjIC0xMi4xMzcsMjUuNTY1IC0zOC4xODYsNDMuMjQzIC02OC4zNjcsNDMuMjQzIC00MS43NzYsMCAtNzUuNjQyLC0zMy44NjcgLTc1LjY0MiwtNzUuNjQzIDAsLTEyLjQxNCAyLjk5LC0yNC4xMyA4LjI5MSwtMzQuNDY2IEwgMCwwIFoiLz48L2c+PGcgdHJhbnNmb3JtPSJ0cmFuc2xhdGUoNTE0LjcwMjYsNDAxLjc0NTEpIiBpZD0iZzMzNzciPjxwYXRoIGlkPSJwYXRoMzM3OSIgc3R5bGU9ImZpbGw6IzExN2E3MTtmaWxsLW9wYWNpdHk6MTtmaWxsLXJ1bGU6bm9uemVybztzdHJva2U6bm9uZSIgZD0ibSAwLDAgLTE1LjkzOCwtMzIuMDI0IC0xOS44MTUsLTQuNjM4IC05LjA0NiwzMi40MzUgLTE5LjcxNSwtMjIuNDU3IC0xOS40NDIsMjIgLTcuNTEzLC0zNS4zNSAtMTQuNzIsLTQuNTA3IC02LjU2MiwtMTQuOTE0IC0xNC4xOTIsLTEuNjgxIGMgMTMuNjQ0LC0xOS43ODMgMzYuNDYxLC0zMi43NTIgNjIuMzEsLTMyLjc1MiA0MS43NzYsMCA3NS42NDIsMzMuODY3IDc1LjY0Miw3NS42NDMgMCw4LjMwMyAtMS4zNDIsMTYuMjkxIC0zLjgxNCwyMy43NjUgTCAwLDAgWiIvPjwvZz48ZyB0cmFuc2Zvcm09InRyYW5zbGF0ZSg2MDcuMTQ5NCwzNjMuNjE4MikiIGlkPSJnMzM4MSIvPjxnIHRyYW5zZm9ybT0idHJhbnNsYXRlKDY3NC44MzY0LDM2Ni41OTk2KSIgaWQ9ImczMzg3Ii8+PGcgdHJhbnNmb3JtPSJ0cmFuc2xhdGUoNzA1LjA4MiwzOTAuNzk2NCkiIGlkPSJnMzM5MSIvPjxnIHRyYW5zZm9ybT0idHJhbnNsYXRlKDc1Ny4xMTYyLDM4My41MTQyKSIgaWQ9ImczMzk1Ii8+PGcgdHJhbnNmb3JtPSJ0cmFuc2xhdGUoODIyLjk5NzEsMzYzLjYxODIpIiBpZD0iZzMzOTkiLz48ZyB0cmFuc2Zvcm09InRyYW5zbGF0ZSg4NjIuOTkwMiwzNjMuNjE4MikiIGlkPSJnMzQwMyIvPjxnIHRyYW5zZm9ybT0idHJhbnNsYXRlKDkwOS4xMTgyLDM5My42OTE5KSIgaWQ9ImczNDA3Ii8+PGcgdHJhbnNmb3JtPSJ0cmFuc2xhdGUoOTQ2LjA3MjMsMzYzLjYxODIpIiBpZD0iZzM0MTEiLz48ZyB0cmFuc2Zvcm09InRyYW5zbGF0ZSg5NzYuMjksMzkwLjc5NjQpIiBpZD0iZzM0MTUiLz48L2c+PHRleHQgdHJhbnNmb3JtPSJzY2FsZSgxLC0xKSIgaWQ9InRleHQ0MjE5IiB5PSItMzg0LjY2NjA4IiB4PSIxMDMxLjgxMDMiIHN0eWxlPSJmb250LXN0eWxlOm5vcm1hbDtmb250LXZhcmlhbnQ6bm9ybWFsO2ZvbnQtd2VpZ2h0Om5vcm1hbDtmb250LXN0cmV0Y2g6bm9ybWFsO2xpbmUtaGVpZ2h0OjAlO2ZvbnQtZmFtaWx5OidHaWxsIFNhbnMnOy1pbmtzY2FwZS1mb250LXNwZWNpZmljYXRpb246J0dpbGwgU2Fucyc7bGV0dGVyLXNwYWNpbmc6MHB4O3dvcmQtc3BhY2luZzowcHg7ZmlsbDojMDAwMDAwO2ZpbGwtb3BhY2l0eToxO3N0cm9rZTpub25lO3N0cm9rZS13aWR0aDoxcHg7c3Ryb2tlLWxpbmVjYXA6YnV0dDtzdHJva2UtbGluZWpvaW46bWl0ZXI7c3Ryb2tlLW9wYWNpdHk6MSIgeG1sOnNwYWNlPSJwcmVzZXJ2ZSI+PHRzcGFuIHN0eWxlPSJmb250LXNpemU6MzJweDtsaW5lLWhlaWdodDoxLjI1IiB5PSItMzg0LjY2NjA4IiB4PSIxMDMxLjgxMDMiIGlkPSJ0c3BhbjQyMjEiPsKgPC90c3Bhbj48L3RleHQ+CjxyZWN0IHN0eWxlPSJmb250LXN0eWxlOm5vcm1hbDtmb250LXZhcmlhbnQ6bm9ybWFsO2ZvbnQtd2VpZ2h0Om5vcm1hbDtmb250LXN0cmV0Y2g6bm9ybWFsO2ZvbnQtZmFtaWx5OidHaWxsIFNhbnMnOy1pbmtzY2FwZS1mb250LXNwZWNpZmljYXRpb246J0dpbGwgU2FucyciIHk9IjQxOS43NzA0MiIgeD0iNzA0LjI3ODM4IiBoZWlnaHQ9IjE0OS45MDY2MyIgd2lkdGg9IjUyMy4yNTkwMyIgaWQ9InJlY3Q0MjI3Ii8+wqA8dGV4dCB0cmFuc2Zvcm09InNjYWxlKDEsLTEpIiBpZD0idGV4dDQyMzEiIHk9Ii0zNDUuMDY4MTIiIHg9IjYxNy43Mjg0NSIgc3R5bGU9ImZvbnQtc3R5bGU6bm9ybWFsO2ZvbnQtdmFyaWFudDpub3JtYWw7Zm9udC13ZWlnaHQ6bm9ybWFsO2ZvbnQtc3RyZXRjaDpub3JtYWw7bGluZS1oZWlnaHQ6MCU7Zm9udC1mYW1pbHk6J0dpbGwgU2Fucyc7LWlua3NjYXBlLWZvbnQtc3BlY2lmaWNhdGlvbjonR2lsbCBTYW5zJztsZXR0ZXItc3BhY2luZzowcHg7d29yZC1zcGFjaW5nOjBweDtmaWxsOiMwMDAwMDA7ZmlsbC1vcGFjaXR5OjE7c3Ryb2tlOm5vbmU7c3Ryb2tlLXdpZHRoOjFweDtzdHJva2UtbGluZWNhcDpidXR0O3N0cm9rZS1saW5lam9pbjptaXRlcjtzdHJva2Utb3BhY2l0eToxIiB4bWw6c3BhY2U9InByZXNlcnZlIj48dHNwYW4gc3R5bGU9ImZvbnQtc2l6ZTozMnB4O2xpbmUtaGVpZ2h0OjEuMjUiIHk9Ii0zNDUuMDY4MTIiIHg9IjYxNy43Mjg0NSIgaWQ9InRzcGFuNDIzMyI+wqA8L3RzcGFuPjwvdGV4dD4KPC9nPjwvZz48L3N2Zz4=;" parent="148" vertex="1">
                    <mxGeometry x="19" y="53.38" width="51.62" height="51.62" as="geometry"/>
                </mxCell>
                <mxCell id="170" style="edgeStyle=none;shape=flexArrow;rounded=0;sketch=0;jumpStyle=gap;html=1;exitX=0.5;exitY=1;exitDx=0;exitDy=0;entryX=0.5;entryY=0;entryDx=0;entryDy=0;shadow=0;strokeColor=#919191;strokeWidth=2;fontFamily=Helvetica;fontSize=18;fontColor=#808080;startArrow=none;startFill=0;endArrow=classicThin;endFill=1;sourcePerimeterSpacing=0;targetPerimeterSpacing=0;" parent="137" source="159" target="164" edge="1">
                    <mxGeometry relative="1" as="geometry"/>
                </mxCell>
                <mxCell id="159" value="&lt;b&gt;&lt;font color=&quot;#808080&quot;&gt;User Group&lt;/font&gt;&lt;/b&gt;" style="fontStyle=0;verticalAlign=top;align=center;spacingTop=-2;fillColor=none;rounded=0;whiteSpace=wrap;html=1;strokeColor=#919191;strokeWidth=2;dashed=1;container=1;collapsible=0;expand=0;recursiveResize=0;labelBackgroundColor=none;fontFamily=Helvetica;fontSize=18;fontColor=none;movable=0;resizable=0;rotatable=0;deletable=0;editable=0;connectable=0;" parent="137" vertex="1">
                    <mxGeometry x="146" y="182" width="200" height="200" as="geometry"/>
                </mxCell>
                <mxCell id="160" value="" style="aspect=fixed;perimeter=ellipsePerimeter;html=1;align=center;shadow=0;dashed=0;fontColor=#4277BB;labelBackgroundColor=#ffffff;fontSize=12;spacingTop=3;image;image=img/lib/ibm/users/user.svg;strokeColor=#919191;fontFamily=Helvetica;" parent="159" vertex="1">
                    <mxGeometry x="18" y="45" width="60" height="60" as="geometry"/>
                </mxCell>
                <mxCell id="161" value="" style="aspect=fixed;perimeter=ellipsePerimeter;html=1;align=center;shadow=0;dashed=0;fontColor=#4277BB;labelBackgroundColor=#ffffff;fontSize=12;spacingTop=3;image;image=img/lib/ibm/users/user.svg;strokeColor=#919191;fontFamily=Helvetica;" parent="159" vertex="1">
                    <mxGeometry x="122" y="45" width="60" height="60" as="geometry"/>
                </mxCell>
                <mxCell id="162" value="" style="aspect=fixed;perimeter=ellipsePerimeter;html=1;align=center;shadow=0;dashed=0;fontColor=#4277BB;labelBackgroundColor=#ffffff;fontSize=12;spacingTop=3;image;image=img/lib/ibm/users/user.svg;strokeColor=#919191;fontFamily=Helvetica;" parent="159" vertex="1">
                    <mxGeometry x="18" y="129" width="60" height="60" as="geometry"/>
                </mxCell>
                <mxCell id="163" value="" style="aspect=fixed;perimeter=ellipsePerimeter;html=1;align=center;shadow=0;dashed=0;fontColor=#4277BB;labelBackgroundColor=#ffffff;fontSize=12;spacingTop=3;image;image=img/lib/ibm/users/user.svg;strokeColor=#919191;fontFamily=Helvetica;" parent="159" vertex="1">
                    <mxGeometry x="127" y="129" width="60" height="60" as="geometry"/>
                </mxCell>
                <mxCell id="173" style="edgeStyle=none;shape=flexArrow;rounded=0;sketch=0;jumpStyle=gap;html=1;exitX=0.5;exitY=1;exitDx=0;exitDy=0;entryX=0;entryY=0.5;entryDx=0;entryDy=0;shadow=0;strokeColor=#919191;strokeWidth=2;fontFamily=Helvetica;fontSize=18;fontColor=#808080;startArrow=block;startFill=0;endArrow=classicThin;endFill=1;sourcePerimeterSpacing=0;targetPerimeterSpacing=0;" parent="137" source="164" target="47" edge="1">
                    <mxGeometry relative="1" as="geometry">
                        <Array as="points">
                            <mxPoint x="246" y="1147"/>
                        </Array>
                    </mxGeometry>
                </mxCell>
                <mxCell id="164" value="&lt;b&gt;Web User Service&lt;/b&gt;" style="fontStyle=0;verticalAlign=top;align=center;spacingTop=-2;fillColor=none;rounded=0;whiteSpace=wrap;html=1;strokeColor=#919191;strokeWidth=2;dashed=1;container=1;collapsible=0;expand=0;recursiveResize=0;labelBackgroundColor=none;fontFamily=Helvetica;fontSize=18;fontColor=#808080;movable=0;resizable=0;rotatable=0;deletable=0;editable=0;connectable=0;" parent="137" vertex="1">
                    <mxGeometry x="64" y="525.5" width="364" height="107" as="geometry"/>
                </mxCell>
                <mxCell id="166" value="" style="sketch=0;aspect=fixed;html=1;points=[];align=center;image;fontSize=12;image=img/lib/mscae/Azure_Database_Migration_Services.svg;labelBackgroundColor=none;strokeColor=#919191;fontFamily=Helvetica;fontColor=#808080;" parent="164" vertex="1">
                    <mxGeometry x="286" y="43" width="50" height="50" as="geometry"/>
                </mxCell>
                <mxCell id="167" value="" style="sketch=0;aspect=fixed;html=1;points=[];align=center;image;fontSize=12;image=img/lib/mscae/Network_Security_Groups_Classic.svg;labelBackgroundColor=none;strokeColor=#919191;fontFamily=Helvetica;fontColor=#808080;" parent="164" vertex="1">
                    <mxGeometry x="218" y="43" width="37" height="50" as="geometry"/>
                </mxCell>
                <mxCell id="168" value="" style="sketch=0;aspect=fixed;html=1;points=[];align=center;image;fontSize=12;image=img/lib/mscae/ClassicIPAddress.svg;labelBackgroundColor=none;strokeColor=#919191;fontFamily=Helvetica;fontColor=#808080;" parent="164" vertex="1">
                    <mxGeometry x="32" y="43" width="50" height="42" as="geometry"/>
                </mxCell>
                <mxCell id="169" value="" style="sketch=0;aspect=fixed;html=1;points=[];align=center;image;fontSize=12;image=img/lib/mscae/Network_watcher.svg;labelBackgroundColor=none;strokeColor=#919191;fontFamily=Helvetica;fontColor=#808080;" parent="164" vertex="1">
                    <mxGeometry x="125" y="43" width="50" height="50" as="geometry"/>
                </mxCell>
                <mxCell id="175" value="&lt;span style=&quot;font-family: system-ui, -apple-system, &amp;quot;Segoe UI&amp;quot;, Roboto, Helvetica, Arial, sans-serif, &amp;quot;Apple Color Emoji&amp;quot;, &amp;quot;Segoe UI Emoji&amp;quot;; letter-spacing: 0.32px; text-align: start;&quot;&gt;&lt;b&gt;Message Queuing&lt;/b&gt;&lt;/span&gt;" style="fontStyle=0;verticalAlign=top;align=center;spacingTop=-2;fillColor=none;rounded=0;whiteSpace=wrap;html=1;strokeColor=#919191;strokeWidth=2;dashed=1;container=1;collapsible=0;expand=0;recursiveResize=0;labelBackgroundColor=none;fontFamily=Helvetica;fontSize=18;fontColor=#808080;movable=0;resizable=0;rotatable=0;deletable=0;editable=0;connectable=0;" parent="137" vertex="1">
                    <mxGeometry x="1017" y="972" width="303" height="356" as="geometry"/>
                </mxCell>
                <mxCell id="177" value="" style="shape=image;verticalLabelPosition=bottom;labelBackgroundColor=default;verticalAlign=top;aspect=fixed;imageAspect=0;image=data:image/svg+xml,PHN2ZyB4bWxucz0iaHR0cDovL3d3dy53My5vcmcvMjAwMC9zdmciIHZpZXdCb3g9IjAgMCAyNTcuNDUgNDAuOTgiIGRhdGEtbmFtZT0iTGF5ZXIgMSIgaWQ9IkxheWVyXzEiPjxkZWZzPjxzdHlsZT4uY2xzLTF7ZmlsbDojYTliNWFmO30uY2xzLTJ7ZmlsbDojZjYwO308L3N0eWxlPjwvZGVmcz48dGl0bGU+UmFiYml0TVFfTG9nb19SR0I8L3RpdGxlPjxwYXRoIHRyYW5zZm9ybT0idHJhbnNsYXRlKC0xLjExIC0wLjk4KSIgZD0iTTI1OCwzNS43MmwtMS44Miw1LjY4aC0wLjU2bC0xLjgzLTUuNjhoMFY0MS40aC0wLjQ5VjM1LjIzaDAuODlsMS43Myw1LjQxaDBsMS43My01LjQxaDAuODdWNDEuNGgtMC40OVYzNS43MmgwWm0wLDAiIGNsYXNzPSJjbHMtMSIvPjxwb2x5Z29uIHBvaW50cz0iMjUxLjYgMzQuMjUgMjQ5LjA2IDM0LjI1IDI0OC41NyAzNC4yNSAyNDYuMDQgMzQuMjUgMjQ2LjA0IDM0Ljc0IDI0OC41NyAzNC43NCAyNDguNTcgNDAuNDIgMjQ5LjA2IDQwLjQyIDI0OS4wNiAzNC43NCAyNTEuNiAzNC43NCAyNTEuNiAzNC4yNSIgY2xhc3M9ImNscy0xIi8+PHBhdGggdHJhbnNmb3JtPSJ0cmFuc2xhdGUoLTEuMTEgLTAuOTgpIiBkPSJNMTk0LDQxLjMxaC0zLjYyTDE3OC40OCw0LjgzVjQxLjMxaC0zLjE3VjEuNjZIMTgxbDExLjA4LDM0LjcxaDAuMTJMMjAzLjMyLDEuNjZoNS41NlY0MS4zMWgtMy4xNFY0LjgzWiIgY2xhc3M9ImNscy0xIi8+PHBhdGggdHJhbnNmb3JtPSJ0cmFuc2xhdGUoLTEuMTEgLTAuOTgpIiBkPSJNNDcuOCwxLjY1VjQxLjMxaDMuNDRWMjMuMzhINTZhMTAuNDgsMTAuNDgsMCwwLDEsMy43LjZjMy41MSwxLjMzLDMuOTEsNS40LDQuNTQsOGwyLDkuMzhINjkuN2wtMi4yNS0xMC43Yy0wLjY2LTMuMjItMS4xLTQuNi0yLTYtMS4xOS0xLjg1LTQuNTktMi44NS00LjU5LTIuODUsNS41OC0xLjA5LDgtNC44Myw4LTkuOTMsMC00LjY4LTIuMjctMTAuMTUtMTIuNjktMTAuMTVINDcuOFptMy40NCwzLjE2aDQuNTRjOS4wNywwLDkuNiw0LjgyLDkuNiw3LDAsMS44MS0uMzMsOC40MS0xMSw4LjQxSDUxLjI0VjQuODJoMFptMCwwIiBjbGFzcz0iY2xzLTIiLz48cGF0aCB0cmFuc2Zvcm09InRyYW5zbGF0ZSgtMS4xMSAtMC45OCkiIGQ9Ik03My43OSwyMC41MWgzLjUyYzAuMzItMS42LDEtNC40NCw1LjY5LTQuNDQsNi4xNCwwLDUuOTQsNS4zMiw1Ljk0LDcuMzh2Mi40cy0yLDAtMy4yNC4xMmMtNC42OS4zNi0xMi4zNSwxLjU4LTEyLjM1LDguNjVzNS44Niw3LjMxLDcsNy4zMWExMC4wNiwxMC4wNiwwLDAsMCw0Ljg0LTEuMTUsMTAuMzEsMTAuMzEsMCwwLDAsMy42Ni0zLjM0aDAuMTJ2My44N2gyLjg1VjIyLjYzYzAtMi43OS4yNi05LjMtOC41NS05LjNTNzMuNzksMTkuMjEsNzMuNzksMjAuNTFabTE1LjE0LDguMDhhMjUuNTIsMjUuNTIsMCwwLDEtLjIsMy4xNiw3LjkzLDcuOTMsMCwwLDEtNy44Niw2LjczLDMuNzEsMy43MSwwLDAsMS00LjA2LTMuNzFjMC0xLjQ1LjU2LTQuODQsNi4xMy01LjkxQzg0LjExLDI4LjY0LDg4LjkzLDI4LjU5LDg4LjkzLDI4LjU5WiIgY2xhc3M9ImNscy0yIi8+PHBhdGggdHJhbnNmb3JtPSJ0cmFuc2xhdGUoLTEuMTEgLTAuOTgpIiBkPSJNOTYuNTQsMS42NVYzMC4xMWMwLDEuNTQuMDUsMTEuODMsOS41MywxMS44MywyLjI4LDAsMTAuNi0uOCwxMC42LTE0cy03LjMtMTQuNTktOS41LTE0LjU5YTcuODksNy44OSwwLDAsMC03LjY0LDUuNzhoLTAuMVYxLjY1aC0yLjlabTE2LjY3LDI2LjIxYzAsMTEuMDctNi4xOCwxMS4zLTcuMTQsMTEuM3MtNi41MywwLTYuNTMtMTAuODVjMC05LDQuMzMtMTIuMjUsNy4zMS0xMi4yNVMxMTMuMjEsMTkuMTMsMTEzLjIxLDI3Ljg3WiIgY2xhc3M9ImNscy0yIi8+PHBhdGggdHJhbnNmb3JtPSJ0cmFuc2xhdGUoLTEuMTEgLTAuOTgpIiBkPSJNMTIxLjEzLDEuNjVWMzAuMTFjMCwxLjU0LjA1LDExLjgzLDkuNTMsMTEuODMsMi4yOCwwLDEwLjYtLjgsMTAuNi0xNHMtNy4zLTE0LjU5LTkuNS0xNC41OWE3Ljg5LDcuODksMCwwLDAtNy42NCw1Ljc4SDEyNFYxLjY1aC0yLjlabTE2LjY3LDI2LjIxYzAsMTEuMDctNi4xOCwxMS4zLTcuMTQsMTEuM3MtNi41MywwLTYuNTMtMTAuODVjMC05LDQuMzMtMTIuMjUsNy4zMS0xMi4yNVMxMzcuNzksMTkuMTMsMTM3Ljc5LDI3Ljg3WiIgY2xhc3M9ImNscy0yIi8+PHBhdGggdHJhbnNmb3JtPSJ0cmFuc2xhdGUoLTEuMTEgLTAuOTgpIiBkPSJNMTQ5LDEzLjk1VjQxLjMxaC0yLjg3VjEzLjk1SDE0OVoiIGNsYXNzPSJjbHMtMiIvPjxwYXRoIHRyYW5zZm9ybT0idHJhbnNsYXRlKC0xLjExIC0wLjk4KSIgZD0iTTE0OS42NiwxLjY2VjYuMzFoLTQuMjRWMS42Nmg0LjI0Wm0wLDAiIGNsYXNzPSJjbHMtMiIvPjxwYXRoIHRyYW5zZm9ybT0idHJhbnNsYXRlKC0xLjExIC0wLjk4KSIgZD0iTTE2OSw0MS42OWEyOC4xOSwyOC4xOSwwLDAsMS0yLjkyLjI1LDguNDgsOC40OCwwLDAsMS01LjQ1LTEuNTdjLTEuMi0xLTEuNzktMi43Ni0xLjc5LTUuMTdWMTYuNjloLTQuMzhWMTMuOTVoNC4zOFY3LjYzbDIuODUtMS45MXY4LjIySDE2OXYyLjc0aC03LjN2MTcuNmMwLDAuNzktLjE5LDQuODcsNC4xNCw0Ljg3YTExLjE4LDExLjE4LDAsMCwwLDMuMTYtLjQ5djNoMFptMCwwIiBjbGFzcz0iY2xzLTIiLz48cGF0aCB0cmFuc2Zvcm09InRyYW5zbGF0ZSgtMS4xMSAtMC45OCkiIGQ9Ik0zOS40MiwxNy4zN0gyNi42NWExLjU5LDEuNTksMCwwLDEtMS42LTEuNlYzYTEuNTksMS41OSwwLDAsMC0xLjYtMS41OUgxOC42N0ExLjU5LDEuNTksMCwwLDAsMTcuMDcsM1YxNS43N2ExLjU5LDEuNTksMCwwLDEtMS42LDEuNkgxMC42OWExLjU5LDEuNTksMCwwLDEtMS42LTEuNlYzQTEuNTksMS41OSwwLDAsMCw3LjQ5LDEuNEgyLjdBMS41OSwxLjU5LDAsMCwwLDEuMTEsM1YzOS43MmExLjU5LDEuNTksMCwwLDAsMS42LDEuNkgzOS40MmExLjU5LDEuNTksMCwwLDAsMS42LTEuNlYxOUExLjU5LDEuNTksMCwwLDAsMzkuNDIsMTcuMzdaTTMzLDMwLjkzYTIuMzksMi4zOSwwLDAsMS0yLjM5LDIuNGgtMy4yYTIuMzksMi4zOSwwLDAsMS0yLjM5LTIuNFYyNy43NGEyLjM5LDIuMzksMCwwLDEsMi4zOS0yLjRoMy4yQTIuMzksMi4zOSwwLDAsMSwzMywyNy43NHYzLjE5WiIgY2xhc3M9ImNscy0yIi8+PHBhdGggdHJhbnNmb3JtPSJ0cmFuc2xhdGUoLTEuMTEgLTAuOTgpIiBkPSJNMjM1LjI2LDM4LjYyYzMuNjctMy4xNCw1LjYzLTksNS42My0xNy40NSwwLTEyLjMxLTQuNjUtMjAuMi0xMy4zMy0yMC4yLTguMTQsMC0xMy44MSw2LjYxLTEzLjgxLDIwLjJzNC44MiwyMC4xNiwxMy41NywyMC4xNmwwLjM3LDB2MGgxNlYzOFpNMjE3LjUyLDIxLjE4YzAtMTEuMywzLjIzLTE2Ljc5LDEwLTE2Ljc5czkuNTYsNi41Niw5LjU2LDE2Ljc5UzIzNC42MiwzOCwyMjcuMzUsMzgsMjE3LjUyLDMyLjQ4LDIxNy41MiwyMS4xOFoiIGNsYXNzPSJjbHMtMSIvPjwvc3ZnPg==;" parent="175" vertex="1">
                    <mxGeometry x="52" y="65" width="219.38" height="35" as="geometry"/>
                </mxCell>
                <mxCell id="178" value="" style="shape=image;verticalLabelPosition=bottom;labelBackgroundColor=default;verticalAlign=top;aspect=fixed;imageAspect=0;image=data:image/svg+xml,PHN2ZyB4bWxucz0iaHR0cDovL3d3dy53My5vcmcvMjAwMC9zdmciIGhlaWdodD0iOTkiIHdpZHRoPSIyODAiIHZpZXdCb3g9IjAgMCAyODUgMTAxIiB2ZXJzaW9uPSIxLjIiPjxkZWZzPjxpbWFnZSBocmVmPSJkYXRhOmltYWdlL3BuZztiYXNlNjQsaVZCT1J3MEtHZ29BQUFBTlNVaEVVZ0FBQVJnQUFBQllDQVlBQUFBdW9laFVBQUFBQVhOU1IwSUIyY2tzZndBQUlXNUpSRUZVZUp6dFhRbDRGRVhhTHRsZGxGVloxOTFuY1hYZDMwWE1CQkZGVWNRYkJCRlFRRlFPVHc3SlRBQVBMbzBJQWlvb2lLTElKVGNCNUpJYkFTRkFrZ25CUUxoeUFDR1FoSVNRKzVvY2syT08rdXZybnA1MEpsM2QxWk1KQ2FUZTUza2ZtT21xNmlOZDczejFmVlZmSWRUQXdCZzNJL3lXY0RIaElzS1pPamlKTUlod1BPR2ZHL3BlT0RnNEdobUlNQXpIUG9ERDRmaVFOTmVzb2UrSGc0T2prWURvd3EyRUdjN0tTcHc4NmtOODhkMzNkREY1NUFjNDlaT0oyRmxWaFcwMlczSDM3dDFmSk0wMmIrajc0dURnYUFRZzR2STlXQjlaUHkvRnA5cmM3eld6bDYwVXJKaVFrSkREcE5uSEViZGtPRGlhTm9nZXRDV3NzdVhtNGRnT25lb2tNREVQUFlhcmNuSmhtT1RvMzcvL1ROTDgzeHI2L2pnNE9Cb1FSRnoyZ3RXUk91SFRPb21MeExUSlV3VXJKaTR1TG9FMDM0T1FPMzA1T0pvaWlBNjhBbUpRRmh1UFQvazk0Qk9CZ1hiSzR1SUZrWmt3WWNJeWNwbzdDVzlvNkh2bDRPQzRpaUQ5LzBiQ1JES2V3ZWRmSGVRYmNYSHh3bHREQklISnpzN091ZVdXV3dZamJzVndjRFF0a1A0L0dVUWdmL05XbjRxTHhLSjlJWUxJTEY2OGVBYzVuUi9pVmd3SFI5TUE2ZmYvSVN4MWxKYmkrQ2VlcXhlQk9kT2xCM1pVVkdBclFkdTJiY2VRMDk3VTBQZk53Y0Z4RlVERVpUMVlGMWRtZmxjdjRpSVJ3dDZBdlh2M1F0aTZFK0poYXc2TzZ4dWt2ejlGNkt4SVRjT243Ky9BTEJabnUvWEVTUUVqOFpublhtQ3VFL1BnbzdncUp3ZkMxdlpldlhwTlJ6eHN6Y0Z4L1lJSXk1OElUNE5Wa1RSaUpKdFEzTmNPNTY1ZFJ5VEpLYTBGd0ZtTGx6R0xUR3JRSktGYWJHenNPWElKM1JGMytISndYSjhnL1h3VWRQYml3NUhNQW5GcGZKRGltcU1rNHlpMk5pQnNIUk1uMUJrM2JoeUVyZTlBMTU3REYwTHQveVg4VTBOZkNBZEh2Y0FWVnQ0Q00vRmxoRWx5bXhnSmRjdkJFam4zNHN2TUFsT3dmYWVpd09TdVdjZmNSdUxnZDRRNm1abVpXUzFhdEJpSXZMZGlvRjRtb1lQd2JvWGpiOEtqa2pHRE1JU3dpMExabmE0eXI2bWNheExoRlZsN2xZUy9FejRsSzJjam5LeFF2NzJyemt1eTcvN3d1RDQ1LzBXNURnNk8rZ2ZwbnhNVmU3b1hnSVdKck9KUXREOUVzWTJzQll0MEQ1T1NrcEpTbXpWcjlobnlQbXpkQjRrZE9oc3BkMnBKWU41QzRuQ3NQMkVFb1oyd3M2emN2MTN0Z0hqc1ZtZ0huTkZiQ2EyRUh4TzJKdnc3WVVmQ0h3bjN5OHJxRlpoSTE3VjVraThPNVdnWWtMNTVCNkdsdkxJRXoxMy9HdjQydUtkdXpsMy9PcTRnOVFFczY0N09QTnNONTIvYmdXMzUrZGhwdDljUUY0ZTFISjk5b1RlYm8xZFluNVJERENlbm8xKy9mZ3ZJN1h4T09CeDVaOFZzUTZJZ3dEcW5pNmkyU0VrQzgzK3k3MEFZYks0NkVqNUJva2k5amtUeHVkT2puU0d1ZGw2aFhNZC9aUC9YS3pEYktHMXljRFFNU0o5ZUN4Mzd0NGhaK05ONUQzak52WkZ6cWkyUWhZdVZCYUY5UjV6NTB3SnNMeW5CT2NGckJDRzZPR1FFTGorZktEaDZ5MDdINE1SQmJ6RmJMOWxMVndqbjI3OS9meFM1bFNsSUZCZ1FBcjMrREJoQ1ZCRU9JcndmaVozM09ZOHlTZ0lES0NSY0p2c01EbWV3UlA1Q21FUDRxVWY1TU1JempOZkZCWWJqMmdYcG0wOFNPbk1La3ZHa0JSM3FKRENURmo2TWN3c3ZpVlpJUlVYTmtMUGZBemoxNDRuQ2FtakxvVEJob3B4Y0tPS2ZlUjdiQ2d1WmhRVUlvVzNJTVFPVDdkcTBhUU1XQkFnTVdBOTNlZkVveGlGUktLUUplOGNJZ3ozS0tBbE1iOWQzWTF5Zm4zUjlmc1QxZVM3aGVWVFRHcklRYm1DOExoQVlNeEl0SkRtWEkyV0JTVlFvK3pIanVUZzRmQWNzcHJFOEJvS3djbWRnbmNSRjRwcmRIN210bU1JOXZ3dENjT0hOSWRoNjloeTJ4cC9CRjk1NFYxRXM0cC91aXUxRlJib0V4aElhTHB4bjNyeDV1NUFvTHZCTEQ4bW92SW5HeEJNdWtYMStuN0NVc0tYc08wbGdmaVBjUkFnVC9NQWhmRlJXYmlsaG5Lek9JNjQ2VDdzK2c5QTRrU2c4TEFDQmdlRmFpQWNsaDY2bndPUW9sUFVVU2c2TytnZnBtMGJvb0dlVFEzMGlMaElUMDQ2NFJhWTRJaExiQ2dwdytsZmY0Tk9HOWxTeGlIOEtCTWJDTEM0d3JBS2twNmRuTkcvZWZCb1NCUWJTYWJaVXYydEZ3Q3hneVhuYjJzWEhrQ2dlSTJUbEpJRlppRVRMWUR4aFQxUTlnL2htSkZvbjM4bmFBU1lqMGVLUUFKYlNyNHpYeG9kSUhOY2VTTi84TzJHTzNWNkZ2MXZ6a2s4Rlp2N0d3ZUIwRlIyKytRVTRydU1UbW9JUi8yUVhiTGNVTTRuTDZiWVA0WXJrWkdqZUdSQVFBQjBYeEFXaVI0OGk3NkpIUHlONmVEZFNWbzdtZzVFZ09XK1ZXRUo0aTZzY1dCV0pqTmZHQlliajJnUHBuSE9oaDRhZFdPNHpZWms0cnozZUZQSVpMaTdMeFlYRkdXNHJKbTNpNXo0VkdGampCSWlLaW9wQjFZN2RvY2k3VUd3THdpTENiNUFZRVpJVFVrRkFKL1ozbGRVU21ERENBd3J0UU5nY29rbkRYT1VHdU5wNWg5S09RZlovTGpBYzF4WkkzN3lmc0txa0xBOVBYZHpaSitLeVlOT2JPRFV6QmwvSk9Zc1hieDJLdjFyMkRDNnZLQmF0bUx4OEhQdnc0K29DODhSejJGNnNMVEJ4blo4UnlsVVJkT3JVNlhza0NneEVhVnA3K1RoZ1dBUWQxYUJ3REFRcm4zQ1c2N09hd0xSQm9tOWxLT1U4WUxXWVpaOVhJVEZxQlVNdHlDOThMeEl6OUswaFBDZ3JwMWRnd0RrOVFJRzNVNjZMZzhPM0lIMStIM1I4c0RicUtpemZyT3lHVHlic3hLWGxCWGlYZVNiK2JQNkQ3bU83RDg5Mld6SFpHdXVMNHA5NFZnaGRhd2xNL3BadFFudHIxNjRGUzBGeTdQWkYzayt6WDRHVUo4TkorQmFKenR3YlhPZEpRc3BScWcrUUdDMmkrWURlUUtLelZxb0w3UVVpMFNFc0RhTnlDZGNTdHBQVmc2SFVhSVgyREs1cjZTcjdib3ZyT3lVK1JMOUZEZzRmZ2ZUTjF3WG5hUFlaUEZFbUJscERueFU3QWdVQldicnRQZUc3S1Q4L2hnOGNYU2hNcm9zOHZSWlBVN0NFNUdGcjJITGtiUGRlcXBZSjVJOVJFNWZ6cnd3UUZrUG1FOXgyMjIxZklsRmdJTHo4endaK3JIWEZqYWphUDhQQjBkaHhLeEtER3pCRHZEb1BFK25uTFFoVG5OZ3BER2xZeEFYbXhpU21SdGFZYVp1V0ZTUDRXTTZsaE9IWnEzdXAxZy8rN1gxM1BjaEM1N1hBM05jT2wwYWZFTm9KQ2dyNkJWVTdkbUhkRHM4RHc4RnhkUUNXY0JBU0F5b2RYUDhYM1JPa2IwNkREbnI4N0hibUlkRE84Syt4RXNKUHJHQnU0M3pxWVhjOVdCNlF0MzVUTFJhUTc1MDJtK0l4b0pRaU15RWhBWVlaa21QWGhFUW5MUWNIeDlVQkNBcXMyWnVEeFBsVjRBdjhCTVRsSnNJU3NGNW1ydXJCTEE2bkUvY29Da3hVM0VibU5uN2FNRUN4RFMvZ0hEMTY5Q3BVYmIzNFV4OERCd2VIcndIenZHQXFCZ2pNS2tJWVNiUkNrbytRZEZCaDRRNDRYMW5Gd1h4eWxXSlBoKzlaMi9qOXlBL3VlaFZaaGJnOExiY1dLOUx6aGJWSVNzZUU0NlFlNE1TSkU3Q0dCNnlYK3RwTlFESUJhUnhaRCtjRW9RUnJiQjBTVjJmRFBXWWhjVFUyckd2YWgwUm5NeXlPL0t0Qy9XYzFycm11Zk5mamZLK3BsTDFWVnU1ZWxYSmRtSjlPVGZSUmFiT1ZyTnhkUHJ4L3hVeUpaai9qMkhDREtZaEtmK01RUFRjV2Z0K0l0cXJ0RVpvTkl4N1UweVlncXMwSExjUDhUWDNDL0kxelNCc0h3d3pHMCtFRzQyWENqREEvWXp5NXpuQ3p3YmdpekMvZ25mQjdSeW1sS1pFQWdZbVBrUGczZ0xRb01PSDBmMGhhSmtQNlp5dENTMFZsS1o2eHZBdVRPTXdLN3VGZUpTMmgwbVlWdmdNbjcrU0ZIVlhyVDEvK25MdStOVFVIUjdRZmhjbU4xZUtSenVPd283eFM4UmpRL01Bb2JFM0pFdG9KREF5RTZmZ0dWRCtKcFRZaSttUTVpYjZ3bkNEcUJRc3JUektjVDA1SThRQ2g3RWRrYlUzWDJZWmVIdlc0OWgwcVplVXJ3VnU2cmxlcDNBbGRUMHNFUExOMFNudVF4MGYrZy9Na3BadzMvSi9TeFpEM3NvVDJ2cnBvRHplTVVLeXIzSjVwbzBaN21JamFDTzJXUkJ4NFlFU3JjRVBBVEZLdlRLdmRHdWZ3TjRhRXRoM1JtZExzMjBqOG9RTWhnamxlSURoOTNVZHROdHZuMEVtUHh2L0tiSUY4djdhUDROQjFPT3o0Wk1JdUlqb3Y0dG1yZStPRVMyWmNWSktsR3U2R0VMYUUrTUQ1MUpzNjh2aFlJakJWcWpjTzlRRVpCTTJiTjRkZlVWOWJNUERBeXBIMkMvZDFIYzhERSs5aUdNNmpScnVzdmNZcU1JQjFLbVh2WjMxZ0xuUlhhZXM3ajdLTlFXQXdzUXhtS2RYMXhFRy93THRJK1NwZkNVeTR2OGxJeWxmb0VaWmE5RE11UHROdWdOTGtWWWdnalhieG1ScEhTUCs4eWVGd3BEcWREanh2NDBCbWtRRlJnWWw1U2xHaUFrczZ2bmc1Q3MvNXBWK05ZL00zRHNKd0hrQkI1Rm5WbTRuc1JBU21RbDFnZ0FVUjRxNk9jK2ZPM1l4RUU5eVhWZ3dNVTFoZXVEVGtmZVNxSHhMWEs5WDFwYjlXQk9aRmxiSjZoWHFsU2x2dFBjbzJDb0VoekR2eW43R2FnUWhTYmpxVGRhRWhNQmhOYTBaRWJXR2RoS1VtSXcvNGovNkgxdlhYZ04xdUh3eWROQ245bUE2QjZZRkxyUG1LeHo1ZjFGSElCV090c0FoellxWXVmbHlZWTVPV0ZTdDZadTBPZlB6bGFUNFJtT2plVTdIVFpzY2xCSzFidHg2RnhEa2t2b0pheWtsUGR2ZWlmVkQ3Q2gzbnVCNEVCb1Q0TXFWc0ttSVhhcGh2VVVScFIybTQxVmdFaHREMG50cU43V256d1kzRVdzanloY0NFK3h1bitWQmNKQjdZaEFib204aEtSRWFJSFVONkJSYUJnY2hUcWJWQXRZdzBxOWRTbW8yUG5kbnNIaHFscnd6UnZJbkl4OFpnUjZXTjZZYXZyQTBWMnQyNWMyY29FdE5NK21JZURBeGI5THgwYTNTMkQ5Wld2a2FiWUJtQlV4SDhLN2NoMFRxRFh3OXc3TUdzWCtqWWRsUmJZTURodlVtRE9Tcm4zYXBSMTlQUzBDTXdnRmtxNVovVmZISWlCcW0wOFpGQ2VUV0J1YUJ4djU1VXpHZk1LakRnVkZXN01YQUdzM1oyTllFSjh3dm9SY280Vk9xWGhmbVp2amEzTlQ2eTc4RjNiZzY5WitoTkVmNEJmc1RpR1VPT1phaWZPK0FydFh1b2hiS3lzbzZranpyeUxaYzFIYldpd0x3Z0xBZGdFYU5WdTBZTC9ocUFyYkJVRUE4V2dYRldzUWtNbEswaTdkb0l1blRwTWhYVmpGeDRDNW9WUUxNNFNuV2Vkek9sSFluekVOdnVsTEQ3d0NJa3JtUFNnM0NWYzkrc3N5MjlBdE5PcGZ3U2hmSksyRVdwRDg5QlNRRFVCT1lueG5PcWd0MkNJU0xqTitJWmVqdW00M1VWR0hKVE53Z1JJWHJkeStGdFRmZlJyb0dJelcza09zd3E5YTJoN1ViZG9lc0JFU3RtTllnQURHOThLVEF3Q1UrQzNWcUIwMWNmeEpHUGZxUXVHdVE0REgxWUgvVEY2UnVFOW84ZlB4Nkx4UFU0ZFhINGdnV1VpcFJmUmhBZW1zOWttRkpqQ25nWWlRc2hhUy84SEMrdStXR2Q1UnRTWUFEUmxQSUZTSHVZQzB0QnFpajFkMURxTktUQWxOY1NCb054azFJYlprUGdVeXoxdFFTR1dDLzlWZnBMRlV0NE82UzE4VytrYkJwVkpBM0diM1U5SUt2VmVwZlQ2U3dWd3RZcnVtb01mN3Jqc3ZKQ1RYR0JwUU0yZTZYUStVdk9wT0dvTGtFNGEvc2Z1S3FnQkYrY3NSRVRGZldKd0pqdkQ4U2xpVmVrc0RVays0WmZNVzhkdnM4aitzc0lxNlJYVTQ2Rk1iYS9XS1Y5RU1pcmtmRy9vUVhtZlpVNnIycWNiN1FYZFJ0T1lQd0Rnc05yRDFWc29XMUcxSG8yNVBzTnRhMGQwMHE5QWtPR01OdXAvY1hQT0kvMW5zd0cwOXNxL1M1RDkwTWlvNHlwMEVtanoyelY5SytVbFJkcENzeTVsSERYbkZzblB2MzJiUGZGd2Y5TEV5N2o0cmhMK09UQWIycGQvT0dPSHdyT1lGYUJBY1lPRXlmd3ViTGF3UllpM2xveE1PVlo2VVdVbkp1OUtjZkJLbUZKRTVGTXFROTh5OHRyMW91R0ZoandKZEdHbTFzMHprZHp2b05QaTJiOU5KakFFR3RpQ2hHSlhRckhwc3ZySHpZTXZ6TzhkbWphR2VFL29xTWVnWUhJRVRtV1I2c1Q0V2RpWGtrUGZobFNwNURhNzFTR1dZckl5TWo0cThQaFNJTndNb1NWYWNMeDlZcm5oU2lSbXJnczN4N2dIaHBsN3pxcWFIVWtmcjRHVitVWEMxYk5rU2ZHdTQ4ZDdmWVpkanFjK055RTVmaklrK09WYjA2QitlSGlybzV6NXN5QkZKVFEyZlZhTWJDS0diTE5LYjJJNDF4bFlIZUFQRXFaS1JydDMwdXBCNFNOMXE3V1dxcUdGaGpBVmtvZEVCNWF2aHA0ZnJUaDVYeVZjNmtKekNGQ0l5TTl3OTl1cUFsTXVMK3hoOEt4SE9qQTFmVUR2cXB0YlFUc1A5N1IrRmM5QWdNQ290SkhNbFdlRWVXK1ZLd2hqWWlZSWlvcks5K0NUbm9wNDVTUW1zRWJnWUZWMXprRktVSm5oeG01VVYwK3BZb0NUS29Ednd3NGFtSFlGUFBPZDloV1ZPb1dKNXVsckliMW84Ym9YbE9Fb1pYRllpbSsrKzY3SWRLaU4ydzlCQ20vaEpDUFY5NVphTU1jaUVpb2lkb0xsSHJBS0ozWFdoYzBCb0Y1UmFXZWlWSm5pa3FkVGlybjhsV1llaXp0QkdvQ1F5cmVRUDUvcnRaeDEvSUJJVFJ0TUdiWHF1dHY2cU5YWUlnZzlGWHBJL3RVbnBFaXdnekdMNm50K1J1bjZXMFBKdC9kWUxmYmhad01tWG5uaFZ3eFFFakxjQ0h0RDRFcFYwNWdoOFBtL3V6Snk5bnhib0ZJK1dFN2t6aWNlSFVHdHB4T3dvNHFHL1pFK1pVOGNqUEsvaHBQcGdjZkVPcHMzYm9WZnBuQStha25iQTExbEY2c01JOXlhbjZhcHhBZG50dk55cmxSeDNYV0ZZMUJZS1I5b3BUcW1TbDFFaWpsejJ0Y1k0TUtqSERjenpoYW9ZUEMwaEJrOWc4WXFsQTNCZWFiNkJXWU1JTnBHRjBRQW5UdktFR3VmeFMxUFIzK25Cb2d3NlNSdFhxNWw0RGhEb3N3QUtPNmZscm5kbzcxL0Z3VXBmSnlhNHNXTFNDekhHdnlKZ2o1Z3FXaTlHSjVMbXFFaVVZWmxMSnFvVlkxNXlacmlOWVhhQXdDQS9pSlVnK0dRZmQ0bE8xRUtRdjAzTXpPRXcwdU1JY053MjhsbjRzVXJKUW5sRUxUWVg0bVlVaXVXMkJJUFhyL01DM1FlRTYxb09ib05mc0ZyTlBiSGxnd2Z5YU1oWTBBekpHcE9OU2NVb05IbzlOeFRGd210dHVkK1BqSks0cE12Smp2Rm9iTUxaRk13Z0ErbVF0ZnJsY1VGM0Q0SHU3d0FWTTdtYjhlbGl3WTZFU3dvWHdYeEdiRlFMcE5wWmNLOHVBcXphMllTeWtQWVd5bFZjNkE5eWgxZ0ZkenY2TEdJakFkVmVwTzhpaExFeVA0VVZCYjlRdG9jSUVSeTVoK1ZDZ1RxL0JkS2N4RmdUcjZMUmpqU0dwNWY1UHVIekh3czZoWU1LdjB0Z2NDTXdZNjZJSFFKUHhzejVXS2ZPV05EYmkwcklwNi9JVytxM0ZXdG12VnRjT0pUNzcrdGFvb3hBeWRnMHZQcCtQaTJCU2NzL2Q0TFlGSlgzT0lTVnhPOVA5S09KK0ZvRldyVnVDbGh6OHVXREYvMGJodDhKdUFtYTMwVXYxT3FhUDIwZzZtMU9tblV1YzNoaitQcjlCWUJBWWd6ME1zNTFsWkdZZ0labFBLN1djNGg5cmZDbVpNZTI1T1IrTnJ0Qk13Q1V4YjAzM2g2ck5yUlNFd0dCZEtkWFQ3WVB4TWcxVGFadDFCdExvOWYrTjRsZlpZTnd3VVFmcnl2d2dMS3lydGVNQzd2MUlGcEI4Um1ESXJYV0NBWDN3VDVoWUl5NmtrUlIvS3NSNlRCVUdCL0M0SlFTdUVNbURKSk0vZVFzd1dMSWhPOG5kYmhPODBCWWJVTFlwT0ZNNDNZOFlNaUNMQkh4WitCV0hpblpZRjh3U2l2NEJES1hWQWxDNVI2dXoxNGp4WHRQNCtQa1JqRXBpUFZlcDNkSldoVFEwQXNvVDJHelJNWGJOY3dHNk5kOWxwYm1OeXJ5elhLekJtUDFNM2xiWjFwOFVBcTBkRkNNZG90eUFENlp0TG9ZTXVDejZwS2g3OUJxL0hWZzJCQWNiRVpibEY1dXpZSmU0TGcrbjlhVXQrRnlKRThPL2hoMnNQZnlBYXBEWGpWMDRJYVFPU2s1TlRtelZyTmhXSmlhaGdBU1JMaDFIYmJBMFNQaDJuc0lCU0I5WUczYWx3SGdoRHE2V0FhS2RRcHo3UW1BUUducE8wcHNxVFA3aksvRUk1cmpZY2xhUFJDRXlvd2RSVDFYcnhONGJJeStzVm1DUHQzcnRkeFVvcVoxbk5MWWNySVJYbGVrYzh6OXdRNlp1UHdJQW1LN3NVOStpM3hpY0M4OTdvSFdURUl1N3FXSkZaZ0NPSWtJQ2xVcGxuRVN5WG8xMG5VaDgwckVWaVdiY0VqSGpvZlZ5UmtRODdTRG9IRFJvRVlpR2wwWVFwMFZwellXQXVBazBvNmtMYUp2UDdWZW9zWXY2RDFRMk5TV0FBZXluMVlkNEcrQ0xLS01lWEt6V21nRVlqTUJqV0NSbU1DZlQzT2FDdnZMeGVnWEZkeXltVjlnY3kzNU9RVlkvYTcwcVl4WXIwL3hzSXpTQUVrNzg2cENrY2ZRZXR4K1hsTnMxeXdMMGhGOXhXVEdXdVJaaTllK3FOV1pxaW9VZGdVbjhXY3dVZlBIZ1FOaHFUa29CRHRpMHQzd3NBSHJpdnhRVW8zL1JlanBFcWRjQ2hUTXNlNWtzME5vR1JkczFVSXMxNkFiS3V2bTQwQWdNSTh6ZDlRSG1Ya3oxVElYZ2pNT1Q3R1NyOUpScG0rN0xjVTVpL2NiMUtPK3orSE5JMzM0VU9ldUowQnBObzlCbElCS2FDVFdCR2p0Mk5iWFl4MFJTSVJwU0sxU0lucEd0Z0VaaWozVDhUY3NkQVdOclB6dzkyUm9RLzZDZElERHV6QUp5cjlTRXd3STZvTnNCaW91VkV3YTVqZW9aS2ZraS9nN2l4Q1l5MFphK2Vad3RMTGxobmFqY3FnWEdGckMyMXl2c2J4M3VXOVVaZ1lLVXpPVzZsOWhzLzQxU3QreEZ5OGhxTVR2cTVBOVVtTmxhRDlQdGJDYTg0SEU0OGJPUjJKdEY0ZWVBNkRJNWd0VEs5WC9zRi83SXBGaGVYVk9MVE1sOE1MQXRnRWhnaUdwQjRTcXRjWHNncG9kMUZpeGJCam96UzdvNjlFTnZ1anJEa0hLeUcraElZbXBkOWhFWTk2R3p3c3RGTVVQZ0ZBb2N4NUtHQkpRWjJTamthR3B2QUFKYW90S1BFYVRyYVZoTVkyTCs3dXc3ZXEzUUNQUUlETUJ1TW40dnpYeVFHSEkxb1AvTHZudVc4RVJqWDljeFY3VHYreHZtd1l0cXpIc3dxRnBZM0dJdzJGWUhTV2k5V0RkSTNaMEVIM2JMakxKTzRhQWxNbDE2cjhJelpabHhRWUJYbXpRd2M4aXZ1MW1jMVRyOWljVTFxY1RJTmtTQW5MeXdqVUNzVE0yU09LRnBaV2RrMzNYVFROQ1FLRENRY1VzejhyZ0RveExRWEQvWnc5dHk0bnNhamxEWmcrMWZhNm1qYXFtdzVJVWsyK0d3Z2JBbldHU3hSMklOcUo2dTZIZ1RtYVpWMlBBa1Q4UlE3T2dXK3pHaW5tR3hKcjhDd3dsdUJnU1JTcEV5TVJqK3p1cUphSUVZL2dIQ0VLMHdHOUJDWHJNaDdBeFdUYnRVQzZadHR3UDlxS2E0UVJJTlpZQWFzdzVVS0FqTW02SGQ4TWJrQUp5VG00dEhqOTlRNE5tVjZhSFhZK3JSeTJGcVB3QWdwR3M2bkMrMlpUQ2JZVTFweTdJTHB4bW82MDVKdHcySkdGditOaERHVWRvQ3ZVT3JBT3FsUWxYcDZlRDBJRFB6TkxxaTBKU2R0S1FFTlRVNWdBQkYrSTF1SEs2eHhxZ09MWUhVMzg4V1R2cmtiT3VqMzgvNWdFcFlYKzYvRjIzYWR3OFZFa0FBN2RpZmdudVM3TjRadkVheVYzTHd5UEh0dXBHREZLTlUvRlp2cEZoa0lLNnNMVEtXd2ZRbnR1SlJrS2pvNkdweXBrbU1YWnNxeUxuQ0VkVXEwbDBodk5PZmZpQjVxM2FwU0R5YVF6VlM1anFZa01BQzF4WXh5NmwzRjJ5UUZCbkM0bmZHL2VyTGtxVEJacjdqMEVPYU5YQ3JFWFY4S1poS1kvWWVTYXMyeVRVa3RGUHdzNEc4QnNWR3JQM3pVRGd5K0hpbHMvY2RURXdSSExqRGl3ZEUxYmdpeTM4bFRPTWdKd2dOemFHdzJXMVhuenAwaEF4ejhFU2NpdG53c0VtQ09CZTBsZWs1SE94SkNLVzJCaitTZkduVWhOS2wzVHlTSjRFUFNPME96c1FvTUpOUld5L1lIaEdFajZ4QllRcE1WR0FDa2hURDdtNzRJVjh2dFFxY05aaFpMU3hlWVFQcDNjOElFNk9nZmZyS1gyWHFSNXJSNFlzVDdPNWlIVjd2Mm5sZHN3eHRzMkxBQlZqOUxqbDJZaHMrYTdSeWNwSkM0S0VtQlI1RjNpY1BmcGJRSHBDMGQ4QVJzNjdFS3FTZWxra1FGMGp2QUlqL1dhSmtjNjFXdVZXOU9taVVxYmVuTDJ5cGlzMHA3UU4wTDlwQ1lPRjJ0VFQwY2h4UkFPbUljWVpJbklTVHR4Zlc2QVhOTmxOb1Z5VDZuQlFDN09zSU9sRVF3OXBMNnhZd0N3enJYcUJxa2IvNmJzQXptc29BL2hVVVlZUDBSRFdyTENqejUyUmNIZmFVdnpwZGZmaG1TRElIQWdMTld5MHE0MWdBTCtDRDFBMWcza084WEJBejhPZEJaV0JLQ2MzQlFFZHBsMnA5aElsMm9uL0ZwczhIVWoxaGFBVVJNY2hTdE1JUHhROTBuSUIxMEd2VFN6VHFpUi9KVjBoSmd5TE55N1NuY3ZlOXF6ZnBkZXEvQ1NTa0Y3bnBSdTgvaEk3dk9LdEp1YytEby9ZbUt4ODVHcFFwdHVQYW1odlZHTU9IS0Y5dVZjSEEwV1lRYVRJOVNobnBPbUJlanF6SFNQMXM0SEk3TGRyc0REd2xrbS84eXhMUU5YMDYzdU1YbFNtWXhuamoxZ0pEQzRVcEdNZjZVL0YrdC9vOExvOXgxSTdiRjQ3RmRGbE5aWGxhSnA3eTZSdkhZaE81TGNYWmFvZENPYTI5cStMV3ZqNzJwT1RpYUZHQjlFUkdVU2dXUnFReHJhM3BCVjJOVlZWVkRvSk1lUDhVMmd4Y0ljMXBHamR1TlJ4UEtyUllRbDh5c0VpRWZ6TnNCV3hWRDJ4YUxHSDJ5RmxmZ3lmMkN2UllZNE5LSmU0VzJYSHRUUXpaNVgrOU56Y0hSSkJIdWIzd3pYSGtXcnlYMHZvQU96QTFoTVQzbUVlaW9RVk5DbUVXR1JzZ0RBOE1seUJXemVmdFp3VEVzSGR2K1c0TGJldG44UTRTcXVBZ0NVMXFKcDc1R0Z4amd1YU5wUW5zLy92aGpmZXhOemNIUlpCRnVNQVZSbkw1WFF2MEQ3MkZ1eUdxMVBna09VNWhwQzlaSlhVVUdPSGpZWnZlOEdKalZDME1ydTJzOVVtWktBUjdmYmFtbXdGaEx0QVZtNXBDTmdxK21udmFtNXVCbzBvQWRDbUR1aXllVjluUlNCYkZpaEJEUi9NWEhmQ0l3RXNkTzNJY3ZwUlVSQWFoMFd5K0xKdXpXRkJkQllNZ3dhdHJyYXpYTGdTOEhzSDM3ZHBpSEFoRVc3dXpsNEdoTUlGYk0zVTZuMDFwQ2hpV3dVdHFYSXZQbHpPck1kcm5wUlhoaTc1VStGWmpQK3F6Q3BaWnlYKzlOemNIQjRVdVEvamxkc0FSK08rY3pjUUdmRERoK0FiWktHNDRsd3lZTEdUYjk4blVvSHRkVlhUaktpTUI4TVVCYllJQmJmeEoyV2ZIVjN0UWNIQnkrUmxaVzFzME9oeU5kVDlvR0xZTERWOEsrNEJPQ0dDd1lzd3RuSk9majFITTUrSWZBclZUUkFLdmtpNEcvTUFrTStIU2dUVmZZdXE1N1UzTndjTlFIcXFxcWhna1QyQmdUVDZueDlYYzJDVm52QUlVNXBUaW81L0lhZ3JCdFhxVGd5STNlbDZnWXNpNHRLc2RmTWdvTWNOSDQzNFJ6K1dCdmFnNE9qdnFBSzJ3ZERSMFZwdlRYUldBZ2lpUWgrSXNEaXFJQTgxeEFZTUJhQWNFWi8vd1NNbnc2aEhNdUZ3bTdDaVRIWitGWlF6Y3hpNHcwdzdjT2UxTnpjSERVSjZ4VzYxTlMyRHJnZzEyRU8zVVJobGVUWk91Tmt1TXlOZjB0TUZSS1BaZU44NjVVenhLV1VKeGZoaWYzVlorVUozSEdXK3ZkWWV0Nzdya0hjdC95c0RVSFIyTURzV0kyMWVycFhzRHBjT0k1SnJxZlJjNXhYWmZnaktUYWE1MEFHMmFGTVZzeDRiL0dDblc4M0p1YWc0T2p2bEZlWG41UGJtN3VPclBaZkRRc0xDeGFpWWNQSHo1NS9QanhlQ1hHeE1Ra0VKR3lWWmJiVktmN2V6SWxQa3RSWUxZdk9NTGN4cHF2Uk9zcEtTa3BGWW03T3JMdVRjM0J3WEVWQVU1U1NBOEFhU2duNjJWd2NQRHYwTkdqOWlRd2k4UGVGZEcxclNDbkU4OGE5aXRUL1U5ZVhJN3pNNHVGYXNPSEQxL211aFpJSHNXdEdBNk9SZ1p3a1A2RHNDY1N0KzZrc1EvaHE1NjgvZmJiQjFvc2xnd1lKcW1GbytYOCtJVmxPRFlpeFMwdXRrbzdzVjcrMEMxUWtaR1JwMUIxR3MwM0VIc2lLZzRPanFzSUVKbG0zdEpxdGI0R0hSNkdQbHFPWGpuQllsa1N0QWRQNmIrYXVRNU15b01oV1dWbFpVV0hEaDFtSTFGZ2dwQ1locEdEZytONmhOMXVQd0FpRXp3dGhGa3N2T0dwUXhjRjYyWDE2dFd3elllVVJ2Tmx4SzBYRG83ckY2V2xwZTJkVHFlOU1Mc0VCNzI0dkY3RTVhZjNkOEIyU3pndkx5Ky9aY3VXWHlKUllNWVMzdDdBdDgvQndWSGZJRmJNVXJBdTlpeVA5cm00UUhnN0xTRkhzRjRtVEpnQU94MUsreU5CSm5udTNPWGd1TjVCckpoV0RvZWp1TExDcG12NlB3czNmVzhXeENVMk52WThxbmJzR2hGUGpNM0IwWFJnczlrK0JTR0kzbmZlWitJQ3FScEtDc3N4c1pEczNicDFnMzJncGYyUkRBMTh1eHdjSEZjVFJGdWFFeXZtSXZoS2ZnamM1aE9CTVcrSkU2eVhIVHQyUktCcTYrVjF4QjI3SEJ4TkQ4VFFFTUxXbDg1azZ3cGJLMUZLbDFsY1hGeHkxMTEzelVDaXdFd2diTlhBdDhuQndkRlFJQ0lqek9XSEtmMTFFWmh6eHk0TDFzdk1tVE8zb09xdzlQT0lXeThjSEUwWFpXVmxqemlkVGdlRXJWZE5DOEhMSiswVGNybm80YmI1d2tZSU9DVWxKYTFaczJhUUpoTUVaalRpNjQ0NE9EaUlGYk9DdWdTYkVVU2tuSU1IRDE2TXFzUFNEeUdlLzRXRGc2TzB0UFNPdExTMHI5ZXZYNzluNDhhTmgzYnUzQm5Cd2wyN2RrVklxN21YTFZ1MkIxVTdkdDhtL0V2RDNoVUhCMGRqQXF6V2ZnbUpZV1hZWDFyM2ltMFhQeUg4NzFXK2RnNE9qbXNBTFFrN0kzSFdMV3hnMzAwSFlTVjNMOEpPaU0vWTVlRGdvT0FHR2IxWnRjMzlMaHdjalFqL0Q4YlY5V0NPWjlTakFBQUFBRWxGVGtTdVFtQ0MiIGlkPSJpbWcxIiBoZWlnaHQ9Ijg4IiB3aWR0aD0iMjgwIi8+PC9kZWZzPjxzdHlsZS8+PHVzZSB5PSI4IiB4PSI1IiBocmVmPSIjaW1nMSIvPjwvc3ZnPg==;" parent="175" vertex="1">
                    <mxGeometry x="36.96" y="127" width="229.09" height="81" as="geometry"/>
                </mxCell>
                <mxCell id="179" value="" style="shape=image;verticalLabelPosition=bottom;labelBackgroundColor=default;verticalAlign=top;aspect=fixed;imageAspect=0;image=data:image/svg+xml,PHN2ZyB4bWxucz0iaHR0cDovL3d3dy53My5vcmcvMjAwMC9zdmciIGhlaWdodD0iNjUiIHdpZHRoPSIxMTciIHZpZXdCb3g9IjAgMCAxMTcgNjUiIHZlcnNpb249IjEuMiI+PGRlZnM+PGltYWdlIGhyZWY9ImRhdGE6aW1hZ2UvcG5nO2Jhc2U2NCxpVkJPUncwS0dnb0FBQUFOU1VoRVVnQUFBSE1BQUFBNUNBWUFBQUFGZ0JUc0FBQUFBWE5TUjBJQjJja3Nmd0FBRFpCSlJFRlVlSnp0WFh1TUhWVVp2M2UzdnVOYkxPNWp6cGs3Yys5V2kwUm9OTDZpRjhTcVZGRVJhQzBhakZieEVURkJUYlNLaitBamFnUzFSakhhbG1neGlJOXFxazFFQkRURytxREZCL2lvS05Ub1B3TFZVdHZ1dHR0ZHY5ODUzemZ6emR5WmUrK3V1KzF0TTE4eW5iMHpaODU4YzM3bmU1K1oxbXB6by9vYzIxYzBZRFRjYnJlWDBINUlmcTlZc2VKQjZuZEZKd0RWMjdYYWttNE4yclYyMS9NVkRRWWw2alEyNXN5R0NUOGZHYnNqc3ZaM3RQOXhaTXo3NGpnK2hadFVnQTR3SlVBMmpMMHF0dUZzTTJ6TVl1LytwcTFGdituY2Z3bmMxZHkwQW5SQWFSai94TVp1YWpXaTJjaUVSMGdhRHdtUTlEZTJnN0h4SURlc2ZUWGFWeXAzd0tqTkVnYUphNFVBMGs0Q1BJQkcrejhUc0RmUi9qNytQY1hBVGhwam5zUmRWRTdSQUpGVHNRVFFMa2hpRkpnamZtOHZrd1lqSXlNUHA5L1hNNkFIbmNvTjdNZHdqcjNjaWdhQW5GVEY0K01SZ1hRVTZ0WFpTbU0zeW5rT1VSeVJ6ZnliMkZGcSsycytYTVdoQTBMZVZscjdmQStRblhKZ2pvZm40YmdBdVh6NThnZGpUNnI0U3l5ZDJQNWhyWDBvOTFNQk9nRGt3S1N3NDlrYVRIRndLQlI1Q08zcUFocEo3SFVLekhzRTVGb25tUGk5QkNvWVd5NEJVZEVpa1J0Z0F1dFVBdWNBYlRNQWxlemhUL0lONDlIUk1SZWFVQnYyY0cvbVU4TzZYYnQ3eUlKemxSUXZJckYwMmgrdzFCM2kvYmRiMWk1cmpiU2VRSko3TmpsQXUxbDZEOExyYlJqelZseW5iYXIwQlltR3FxWko4WUU0c0I4bjlYeHBOQmJGK1hZVkxUeHhqR25Pak5PWWNrcXAwd2RTcDhjZWxKQ2xsZ0lpa3Vha0hDb2E5aFR0OU9iNkN1eTE4SXoxZlN0YVlKTGdQemJoT3NuOFFFS2hVajBJNWtnS2NMaS9hY3lUK2RKaHZhZHo3MGZTUVYxL21MWnAvbnZhSnlUc0gwaHlIOFhYVlhaMGtjZ0IwZ2dhTDRWem95UnpXa25teldSZkxkcTEyVGJLbnRUdXFxWlArUUc4dytwNkxlVUhPTVAwZmI1bkJlWmlVVHQxWHVweEVMeEdVbnEwdnpNS2doVkY3WGlEcC9zYjhZZzU2WEF0SkRpS29uR3ltYStqNC91MHh3dzd6SDMwVXJjdTFtWHRjVHhWYzkzeDRYakpPSEoxT2RZZXRIeTFaSFFRZHBBRTNZdHNEd0h6WFhWT1M1UFkyek1ZS0MrUmdiMCszeStCZDFZR1RHdXZ3ZkdjQTVXblFmRjh5eWJSd0dzV242dU5vaWVTeXJ5ZlZlUjJIT040TXhsZ0FZSlU3RnJKM1RxVmJNeXpjSnpqMENHWklOVGZMeEtWYmUxUHVadXlBV0dKTjJkUTJ6VnhFRjdZQ0lJWExNWUQ5NkRVUXcvQzF4SXZuNFhuSDF2Ynh2RkdveEdBUHhxRFY5R0VmYVZ5OEk3dlJOUlZFTlF1aWVsL2N4TGh4bXc3dHBjTVpoU0ViMlF3RDdzNGRhenhWRzdxQmtMQXBBRzRzY2xnQWxodVUvalFjZzFKK2VhSktKNWw1K2xQM2E1WkJITDhoMkU0UWZmZTAyTG5jRm5VeEppOEdlY0FNUGdUeDFGOGl0cHhsTnJVOWdYQmNockFhNUNIVGJ4Wlh5M1pTVkt5bm1iaW85R3VUWUJ5aGtpSE5lTHh2Z3ZIQVloa2ljYkd4aDZITU1jbEhWeitOL3dXMzd0UXpTWVR4WVFicEF4SE1lc3ZGYi9IZ3BJaVJJdGpjQjZQV1dnS25LUDlSZkxzQ04wZ3FYenRjUUV6R1JoU0UxZnF3alNEZWRReG54YW83NWZjYlhwZCtCRVZ3cmdTR2FtZGMrVThRaEVubGFycVF0TDhKcHdyczVseW5CeXJMNlQ4aExmbGVhNzVRUlBucUN4dFdOZE9WQnZPaXUrL1h0QkhOdHdpeDQvSFlwTDlnYzJZbUV1WExuMEV6a085OG5OaG5LWklpbzNxVTNnZHptMmQvS1U4dVRhNUZHaTlnTDlDRW0vME9sWmxNenpMcGdSRVBqWXBOdEdISU9iMXpxa2hDWmJRSS9GbVRhcEtFWWFJdWtZZjNPYWZ2WkwwZllKWjltQ3BYZTlSUUM4cDRlRjZud1FoTzgzYXhrOVU4aVgwUFhxQTJZOEc2UXBPRHdleHN5Rkp6WWNZeUVrWFYvS0tBdjg3dkZjVnEyZmtvY1NSRVhBNXQvdFhzWjBhK0dTbGd0akwxSkVwWmJRSG1JbmRSbDZaVk4zTEVPclFjN3k4TWQ1NE9qY1o0cTJHbENUWnVMZFFtNi9DbVNPSDVRWXlEWmZMbXFab2ZQdzB4TWwwL01Vb091RFk2U1I1dmdCaFA1eE9hSHAyYXk5Qk93R043bjFCRVpodDVWZFFQeThKZy9DRjJGTi9MNm94eUdxaURhRWZrdm92dXNsUDBRUHF4ZUo3VUo5THdWOGNoaXRKSzY0a3pmQXd2aTZaTEg3bU5Sb3RIbXpITERPK0R3YStOVFkyQ2h1SkhDMjhPSlh1TzhyU09zMkRmQlA2Y1I2Zk1kc2toWmRkUStRbXkxNSttRjRKK2E1Z0psNDA4U1lKRHBrMDlPRFA0QzVZVGRyTFVDRG80SWtuSzAyczU5SWdmOG81V2Y3WVhUeUFSbW1ibzJJcnNia3NsekZ2Y1AxYnUxcURxV3ltVDhJWTgwM0ppazFBWUlMdzdUZ3V2Z1M4WXR5emlEK09EQzZIeVpyZ1B0dzJQaDVwREZNSGcwREtxY0QvRUVQTm9nR0dhazBlanV4ajA2ODQrR0JCdTFXSU5XbVFmaCs1cFNmMlZtTDZ2U1JGaitrSHlGNWdNdFhobURTdDQzM2FiWnpZU0J5endGN05HbWRXRWlENVFRUFEzaHhZK1gwN3JvVlg2aWRpSXdPbUE0V0Fod2ZQNDdlbVJNM0NCOW5BRStTQXQ3Y2VTT0dQeHVsODhlN0Z1VXJ5MlVyeklZeGpiWWQ3VEU0WUUyYkFUQWZlL2pGVG1EWm1IWTZ6S0l2ZUgwNEsxTVorUjFkWFVCVlJETlk3YnBDekcvMEFXUTZtM1pVT2xOMnV3eUdvTVJ5WE9BOGhneklkTXdERmdXYnRKOWhoMjU2WUN3ZVUxMHJJWkxseElhbEgvSXo3YTJlUU5OWjdVQVVpci84cGZKOExOWmpSMkZqcytUYnJXOHJoZzdyT1REUy91a09paFVudTQyNTQ3ekI3ZE8rdlJWTGtNTW45SFo5NU1KTTZKdGNvZWZhRysvTUdQais0eXVBTEE3Zm9qcG55cVMxSkhQUWRVcFNBdVpPUGJXd3BIcEl3Z1FjSzkwSmN5TmRNczdwYWw3OEhiQ0tkdjA4OGNTMlp0U1JYTFE2UVgxYXpuRHhaM1VmT0FUcUt5WVJ3UlNhODU5TnNrRDdUa010K1hieDduUkhMOEVkWTBQbWZ5OXFzcm1DMmdxREJEczBNUC9nZUdaQ0NnUmRYL1RtU3VuT0QxRDMycTZ0dFRsUUVKb3JteE84VlByVHhhbDVDSEo0c1lxZFdhZTJCdXFyMEthc2ZVazBEeHlsOUhnRXp6VnBwc01JallvS1VxcFR6emljQVArS0RlTnNhYmxFRDcvanpOV0tPdWJPRi9wcXN6QkQrSmlZbUhrbm4vNVZLWjUrUzZmN3VJWmxoRUZ6UVN6TGJpeUNaVVZwS2N3TXJ6b0Z1bTJTTlNJMHFhZGtYQk1Gajh6eG0ycE5OVWpiMDlzejl5VVBXWU1wQXltQXJNS2VWWFJOYmQ0TWVnMXE2VE9mc2pHbGpwekFmSmlVcW1WUzBoRWR4QVpnSlJhZ3ZxcUFZTlUwYzcySXp0ODdSWm1aK3QrZHBNNk4wemE0TUhGSm55M1JiZGMwbXBacDNGRDY0R2p4cWYxVWkvVDNBaERiRDhRNHdXUTFtRXd4ZWF3Z29LWC9tWWpYWkRpRnFLT0hSNTRVcDlDcWFVTFVDYi9ZelluOFd6SnRGVGRUYWIxQzdPMmdXL3NYUC9JWHdadTB1Z0tPOHZOMXFBT3J6QlJQdjFaU0JTZmQ0UlY5Zytra0crN3RWaHpQazNaNHV6OXhPYTc5ckZaZ0hKOGJIUjRwNGxQWkk0S2ZTWHl5WkVtYzJsUU9VaVRQajBYZ01BTGk2cERHZjZ4Vm5JcXNUOFZvaTdmNUxLdERaRkFxNCt3RzBCTXhiOFNEQ3ExN2oyK2JWZ082YVJDMTFWN1BwWU5tZFpXcDJEbURPT0RNd0VvM3IvaUpmSEJqU2t3ZXg1VnpVTEUyMlQvZFVzNG1IU3RKVmtnR2FFbSt2bnd4UUkwM3R1WFRnd21lQTdHLzlNZk0yY2ZzNXRYZ3hqa3RtQkJNbVl3ckkxZGVBYXdjakRzUHptZ1VPMER6QWRON3NzdEhSeDdzRWlxcnZFaGhmMGRlZ0RUU2dHMWVlcFBMY2VmN1lvMzFBQzF5cHphd2x1ZGx3eTN4eXMzVHM3bzdjYkRvcmQzQnVkdThDNTJiQjd6WWQzNW5zQXc3VHNYdDBhQklGOXRMOFBUajdzaThxQ0UzbUNXWVNaOUxZdkRNMzRkYnFDWWZ4em9RbXhudzVEdzdVcjBoNXQ5Q2tBMHhtNEVxUnl2KzNhaUxxMURHKzhGVVRLYW50VFNkUk50WFhrVFR3YXVvMlpJVjg0c0Q4S05Fd3p1MFBGd1JNblFGU3orek9xVnBuY2RMQTJyL2pyUUhrWlgwR3pSN29KMmxRQkdoU3o4UUEwb1YzUlpsNkpnMkVNZXRsWlYzN0dOVXpFK2NFZkZqN0t6MlF5c3M3d0xQN2svcThTNmYxU09maFd2U3JOTXZPektTQU44c3FFODlYRUpxY3I4NGZVcmxabHlBbkh2WkwzNm9nUDhUOFg2UUVwek9kbDA3VW4zSC9NNXFITWpEOUFLcHlFUWUyc3RMZ2g5bDJ4MjZsQWV3TmtzemMvNTF5amZaRUpaSHRnTE4yamVZUjZrNVVtUXhjVXlYYThaNE5Kb0dzRm1DSEpaTTBhQlVrdWRYN042dDFFbHlrTDU5VUFEQXVwOHVaSHJtKzZhb3BhYkZBODhkQXZydG5vcjBMK2VTQUs3c2MvelZBV0xLQnNnK2NKbFhlU3M3akhuVHVIT2NoaHVGS1ZUVkpTbUR1V1ZBQ0MreG11dS8zYUFKc1FUVkZTbUR3MXVVZTZucXZxVTZOVC9FRER2L0FuS1hLVDBNTVduSWVQQ2hmSU8zRDJtZFN1SFlPMm1DZmo0dmIwSEpZNCtRL1BiQVZsUlo0NU9RWG55YjNBSDhGUEhSUHdzeG5kVjdUMnFkcDc2MW9kVjcrVFRNc1RkRVBWRUs5TWtabDV6c21YQm4xZUw5MHZ2ZWZTNXUrUXJRNVUxdXZteVYzUDVyRHV0bEc1N3JaelpqeHZIcnRFcmppbWV6SUhOYk4xcm92bWRETE1zcVdqUXlWTEJ1UnR0M3UwV3ZKUmo5TE91YTZiR1NKempYM2VZK09HOVpDVjdXM2UxUjhxRmUwMzlKbFJmdTVPa2VwcnRkL0grREM3amErNThDdk96M2hTQndmY1dTVWR6WGphMzNwdXlhdWFsL3lyb212NGZWODErUU9WQUw0dWdyTUJhWmViNEh0VTVJcHRiZmR0YXdLQURsZzRFMGlLWkM0MkdHNnBBTTVVMlc4cTdmQUZvRkszOCtFSitsVFQrUkY1ZDdQakh1OW4rblVkWGdGYlIrdDNzODhObFQ0NXJUT0ZRcTV4VjNWbTlNRFRkVTNEVTRpOG5GaUdENHZVNUtwdmpaeVFsTFpkNEEyeVhsdEU2dnZBQTAreWNzeFNhbUZGMCs5UXhwVVgrZzZRYWpkeDdmelZJNVcxdUVjcXI2ZE43akVTeFR0eG9rK3Ztb3BueW5WVlphS0JvZlVoNE9yNzgyZURGUjlDZm9rbytvYjdTY2hWZjk3d2tsS1ZSdzV3UFEvTG9uaWg1YXF3WUFBQUFBQVNVVk9SSzVDWUlJPSIgaWQ9ImltZzEiIGhlaWdodD0iNTciIHdpZHRoPSIxMTUiLz48L2RlZnM+PHN0eWxlLz48dXNlIHk9IjQiIHg9IjEiIGhyZWY9IiNpbWcxIi8+PC9zdmc+;" parent="175" vertex="1">
                    <mxGeometry x="29" y="228" width="140.4" height="78" as="geometry"/>
                </mxCell>
                <mxCell id="180" value="" style="shape=image;verticalLabelPosition=bottom;labelBackgroundColor=default;verticalAlign=top;aspect=fixed;imageAspect=0;image=data:image/svg+xml,PHN2ZyB4bWxuczp4bGluaz0iaHR0cDovL3d3dy53My5vcmcvMTk5OS94bGluayIgeG1sbnM9Imh0dHA6Ly93d3cudzMub3JnLzIwMDAvc3ZnIiBoZWlnaHQ9IjEyOCIgd2lkdGg9IjEyOCIgdmVyc2lvbj0iMS4xIiB2aWV3Qm94PSIwIDAgMTAyNCAxMDI0IiBjbGFzcz0iaWNvbiI+PHBhdGggZmlsbD0iI2VhOTUxOCIgZD0iTTUxMiAxMDI0Yy04MC42NC03NC44OC03Ny4zNTQ2NjctMTU5LjcwMTMzMy03Ny4zNTQ2NjctMTU5LjcwMTMzM2gxNTQuNzA5MzM0UzU5Mi42NCA5NDkuMTIgNTEyIDEwMjR6IG0wLTkzOS4xNzg2NjdjLTY4LjA1MzMzMyA4OS44NTYtMjAwLjIzNDY2NyAyOTQuMTAxMzMzLTIwMC4yMzQ2NjcgNTI0LjQxNiAwIDY2LjY0NTMzMyAxMi41MDEzMzMgMTIyLjQ1MzMzMyAyNS4xMzA2NjcgMTYxLjgzNDY2N2gzNTAuMjA4YzEyLjYyOTMzMy0zOS4zODEzMzMgMjUuMTMwNjY3LTk1LjE4OTMzMyAyNS4xMzA2NjctMTYxLjgzNDY2NyAwLTIzMC4zMTQ2NjctMTMyLjE4MTMzMy00MzQuNTYtMjAwLjIzNDY2Ny01MjQuNDE2eiBtMjUzLjg2NjY2NyA1MjQuNDE2YzAgMTUxLjcyMjY2Ny01OC4xNTQ2NjcgMjUxLjg2MTMzMy01OC4xNTQ2NjcgMjUxLjg2MTMzNGwtNjIuMjA4LTM2LjM5NDY2N0gzNzguNDk2bC02Mi4yMDggMzYuMzk0NjY3UzI1OC4xMzMzMzMgNzYwLjk2IDI1OC4xMzMzMzMgNjA5LjIzNzMzM0MyNTguMTMzMzMzIDI3NS4wMjkzMzMgNTExLjkxNDY2NyAwLjA4NTMzMyA1MTIgMGMwLjA4NTMzMyAwLjA4NTMzMyAyNTMuODY2NjY3IDI3NS4wMjkzMzMgMjUzLjg2NjY2NyA2MDkuMjM3MzMzeiBtMzUuMTE0NjY2IDk5LjYyNjY2N2MwIDU4LjE1NDY2Ny0yNS44MTMzMzMgMTIxLjM4NjY2Ny00My42MDUzMzMgMTQ4LjA1MzMzM2gxMjMuMjY0bC0xMy42NTMzMzMtODMuODQtNjYuMDA1MzM0LTY0LjIxMzMzM3pNMTU3LjAxMzMzMyA3NzMuMTJsLTEzLjY1MzMzMyA4My44NGgxMjMuMjY0Yy0xNy44MzQ2NjctMjYuNjY2NjY3LTQzLjYwNTMzMy04OS44OTg2NjctNDMuNjA1MzMzLTE0OC4wNTMzMzNMMTU3LjAxMzMzMyA3NzMuMTJ6IG0zMDYuNjQ1MzM0LTI0Mi4wMDUzMzNhMTEuOTQ2NjY3IDExLjk0NjY2NyAwIDEgMCAwIDIzLjgwOCAxMS45NDY2NjcgMTEuOTQ2NjY3IDAgMCAwIDAtMjMuODA4eiBtMzguMTg2NjY2IDBhMTEuOTQ2NjY3IDExLjk0NjY2NyAwIDEgMCAwIDIzLjgwOCAxMS45NDY2NjcgMTEuOTQ2NjY3IDAgMCAwIDAtMjMuODA4eiBtMzguMTg2NjY3IDBhMTEuOTQ2NjY3IDExLjk0NjY2NyAwIDEgMCAwIDIzLjgwOCAxMS45NDY2NjcgMTEuOTQ2NjY3IDAgMCAwIDAtMjMuODA4eiBtMTMwLjQ3NDY2NyAxNTAuNjk4NjY2YTYxLjY1MzMzMyA2MS42NTMzMzMgMCAxIDEtMTE1LjItMzAuNjc3MzMzbC0xNS40MDI2NjctMjEuMDM0NjY3YTk0LjY3NzMzMyA5NC42NzczMzMgMCAwIDEtOTkuNjI2NjY3LTE0LjcybC0xNy4xOTQ2NjYgMTQuOTMzMzM0YTM2LjkwNjY2NyAzNi45MDY2NjcgMCAxIDEtMzYuMDUzMzM0LTI5LjE4NGM0LjQzNzMzMyAwIDguNjE4NjY3IDAuODk2IDEyLjU0NCAyLjM0NjY2NmwxOC4zMDQtMTUuOTE0NjY2YTk0LjU5MiA5NC41OTIgMCAwIDEgOC4yNzczMzQtMTAxLjk3MzMzNGwtMTkuMjQyNjY3LTIwLjkwNjY2NmMtMS40MDggMC4xNzA2NjctMi43NzMzMzMgMC40MjY2NjctNC4xODEzMzMgMC40MjY2NjZhMzEuMzYgMzEuMzYgMCAxIDEgMzAuNTQ5MzMzLTI0LjQ5MDY2NmwxOS40MTMzMzMgMjEuMTJhOTQuNTkyIDk0LjU5MiAwIDAgMSA5NS44NzItMS41MzZsMTYuNDI2NjY3LTE2LjQyNjY2N2E0OC44MTA2NjcgNDguODEwNjY3IDAgMSAxIDMwLjI5MzMzMyAzMC4yOTMzMzNsLTE1LjA2MTMzMyAxNS4wNjEzMzRhOTQuNjM0NjY3IDk0LjYzNDY2NyAwIDAgMS01Ljg4OCAxMTUuMzcwNjY2bDE0LjAzNzMzMyAxOS4xNTczMzRjNi40NDI2NjctMi4yNjEzMzMgMTMuMzEyLTMuNTg0IDIwLjUyMjY2Ny0zLjU4NGE2MS43Mzg2NjcgNjEuNzM4NjY3IDAgMCAxIDYxLjYxMDY2NyA2MS43Mzg2NjZ6IG0tMTY4LjY2MTMzNC02My45NTczMzNhNzQuODM3MzMzIDc0LjgzNzMzMyAwIDEgMCAwLTE0OS42MzIgNzQuODM3MzMzIDc0LjgzNzMzMyAwIDAgMCAwIDE0OS42MzJ6Ii8+PC9zdmc+;" parent="175" vertex="1">
                    <mxGeometry x="189.38" y="221" width="82" height="82" as="geometry"/>
                </mxCell>
                <mxCell id="131" value="&lt;font size=&quot;1&quot; color=&quot;#808080&quot;&gt;&lt;b style=&quot;font-size: 18px;&quot;&gt;&amp;nbsp;Data Persistence&lt;/b&gt;&lt;/font&gt;" style="fontStyle=0;verticalAlign=top;align=center;spacingTop=-2;fillColor=none;rounded=0;whiteSpace=wrap;html=1;strokeColor=#919191;strokeWidth=2;dashed=1;container=1;collapsible=0;expand=0;recursiveResize=0;labelBackgroundColor=none;fontFamily=Helvetica;fontSize=16;fontColor=#FFFFFF;movable=0;resizable=0;rotatable=0;deletable=0;editable=0;connectable=0;" parent="137" vertex="1">
                    <mxGeometry x="950.5" y="463" width="259" height="236" as="geometry"/>
                </mxCell>
                <mxCell id="134" value="" style="shape=image;verticalLabelPosition=bottom;labelBackgroundColor=default;verticalAlign=top;aspect=fixed;imageAspect=0;image=data:image/svg+xml,PHN2ZyB4bWxucz0iaHR0cDovL3d3dy53My5vcmcvMjAwMC9zdmciIGZpbGw9Im5vbmUiIHZpZXdCb3g9IjAgMCAxMTAyIDI3OCIgaGVpZ2h0PSIyNzgiIHdpZHRoPSIxMTAyIj4KPHBhdGggZmlsbD0iIzAwMUUyQiIgZD0iTTgyLjMyMjkgMjguNjQ0NEM3MS41MzY3IDE1Ljg0NjkgNjIuMjQ4NSAyLjg0OTQ1IDYwLjM1MSAwLjE0OTk3MUM2MC4xNTEyIC0wLjA0OTk5MDMgNTkuODUxNSAtMC4wNDk5OTAzIDU5LjY1MTggMC4xNDk5NzFDNTcuNzU0MiAyLjg0OTQ1IDQ4LjQ2NjEgMTUuODQ2OSAzNy42Nzk4IDI4LjY0NDRDLTU0LjkwMTkgMTQ2LjcyMSA1Mi4yNjEzIDIyNi40MDYgNTIuMjYxMyAyMjYuNDA2TDUzLjE2MDEgMjI3LjAwNkM1My45NTkgMjM5LjMwMyA1NS45NTY1IDI1NyA1NS45NTY1IDI1N0g1OS45NTE0SDYzLjk0NjNDNjMuOTQ2MyAyNTcgNjUuOTQzOCAyMzkuNDAzIDY2Ljc0MjggMjI3LjAwNkw2Ny42NDE2IDIyNi4zMDZDNjcuNzQxNCAyMjYuNDA2IDE3NC45MDUgMTQ2LjcyMSA4Mi4zMjI5IDI4LjY0NDRaTTU5Ljk1MTQgMjI0LjYwNkM1OS45NTE0IDIyNC42MDYgNTUuMTU3NiAyMjAuNTA3IDUzLjg1OTIgMjE4LjQwOFYyMTguMjA3TDU5LjY1MTggODkuNjMyNkM1OS42NTE4IDg5LjIzMjYgNjAuMjUxMSA4OS4yMzI2IDYwLjI1MTEgODkuNjMyNkw2Ni4wNDM2IDIxOC4yMDdWMjE4LjQwOEM2NC43NDUzIDIyMC41MDcgNTkuOTUxNCAyMjQuNjA2IDU5Ljk1MTQgMjI0LjYwNloiLz4KPHBhdGggZmlsbD0iIzAwMUUyQiIgZD0iTTI2MC41MDEgMTk4LjM2OUwyMTUuODQ1IDg5LjMwMTJMMjE1Ljc0NSA4OUgxODEuMDAxVjk2LjMzMTRIMTg2LjYwOEMxODguMzEgOTYuMzMxNCAxODkuOTEyIDk3LjAzNDQgMTkxLjExNCA5OC4yMzk2QzE5Mi4zMTUgOTkuNDQ0NyAxOTIuOTE2IDEwMS4wNTIgMTkyLjkxNiAxMDIuNzU5TDE5MS45MTUgMjEyLjUzQzE5MS45MTUgMjE1Ljk0NCAxODkuMTEyIDIxOC43NTYgMTg1LjcwNyAyMTguODU3TDE4MCAyMTguOTU3VjIyNi4xODhIMjEzLjg0M1YyMTguOTU3TDIxMC4zMzggMjE4Ljg1N0MyMDYuOTM0IDIxOC43NTYgMjA0LjEzIDIxNS45NDQgMjA0LjEzIDIxMi41M1YxMDkuMDg2TDI1Mi43OTIgMjI2LjE4OEMyNTMuNDkyIDIyNy44OTUgMjU1LjA5NCAyMjkgMjU2Ljg5NyAyMjlDMjU4LjY5OSAyMjkgMjYwLjMwMSAyMjcuODk1IDI2MS4wMDIgMjI2LjE4OEwzMDguNTYyIDExMS42OTdMMzA5LjI2MyAyMTIuNTNDMzA5LjI2MyAyMTYuMDQ1IDMwNi40NTkgMjE4Ljg1NyAzMDIuOTU1IDIxOC45NTdIMjk5LjM1VjIyNi4xODhIMzM5VjIxOC45NTdIMzMzLjU5M0MzMzAuMTg5IDIxOC45NTcgMzI3LjM4NSAyMTYuMDQ1IDMyNy4yODUgMjEyLjYzTDMyNi45ODUgMTAyLjg1OUMzMjYuOTg1IDk5LjM0NDMgMzI5Ljc4OCA5Ni41MzIyIDMzMy4xOTMgOTYuNDMxOEwzMzkgOTYuMzMxNFY4OUgzMDUuMTU3TDI2MC41MDEgMTk4LjM2OVoiLz4KPHBhdGggZmlsbD0iIzAwMUUyQiIgZD0iTTU3MS44NjkgMjE3LjA0NkM1NzAuNzY0IDIxNS45NCA1NzAuMTYyIDIxNC40MzEgNTcwLjE2MiAyMTIuNjJWMTU4LjY5NkM1NzAuMTYyIDE0OC40MzUgNTY3LjE1MSAxNDAuMzg2IDU2MS4xMjcgMTM0LjY1MkM1NTUuMjA1IDEyOC45MTcgNTQ2Ljk3MyAxMjYgNTM2LjczNCAxMjZDNTIyLjM3OCAxMjYgNTExLjAzNSAxMzEuODM1IDUwMy4xMDQgMTQzLjMwNEM1MDMuMDA0IDE0My41MDUgNTAyLjcwMyAxNDMuNjA2IDUwMi40MDIgMTQzLjYwNkM1MDIuMSAxNDMuNjA2IDUwMS45IDE0My40MDQgNTAxLjkgMTQzLjEwM0w0OTguMTg1IDEyOC43MTZINDkxLjk2MUw0NzYgMTM3Ljg3MVYxNDIuOTAxSDQ4MC4xMTZDNDgyLjAyMyAxNDIuOTAxIDQ4My42MjkgMTQzLjQwNCA0ODQuNzM0IDE0NC40MTFDNDg1LjgzOCAxNDUuNDE3IDQ4Ni40NCAxNDYuOTI2IDQ4Ni40NCAxNDkuMDM4VjIxMi41MTlDNDg2LjQ0IDIxNC4zMyA0ODUuODM4IDIxNS44MzkgNDg0LjczNCAyMTYuOTQ2QzQ4My42MjkgMjE4LjA1MiA0ODIuMTI0IDIxOC42NTYgNDgwLjMxNyAyMTguNjU2SDQ3Ni4zMDFWMjI2SDUxMy4wNDJWMjE4LjY1Nkg1MDkuMDI3QzUwNy4yMiAyMTguNjU2IDUwNS43MTQgMjE4LjA1MiA1MDQuNjEgMjE2Ljk0NkM1MDMuNTA2IDIxNS44MzkgNTAyLjkwMyAyMTQuMzMgNTAyLjkwMyAyMTIuNTE5VjE3MC40NjdDNTAyLjkwMyAxNjUuMTM1IDUwNC4xMDggMTU5LjgwMyA1MDYuMzE3IDE1NC41NzFDNTA4LjYyNSAxNDkuNDQxIDUxMi4wMzggMTQ1LjExNSA1MTYuNTU2IDE0MS43OTVDNTIxLjA3MyAxMzguNDc1IDUyNi40OTQgMTM2Ljg2NSA1MzIuNzE4IDEzNi44NjVDNTM5Ljc0NSAxMzYuODY1IDU0NS4wNjYgMTM5LjA3OCA1NDguMzc4IDE0My41MDVDNTUxLjY5MSAxNDcuOTMyIDU1My4zOTggMTUzLjY2NiA1NTMuMzk4IDE2MC41MDdWMjEyLjQxOUM1NTMuMzk4IDIxNC4yMjkgNTUyLjc5NSAyMTUuNzM4IDU1MS42OTEgMjE2Ljg0NUM1NTAuNTg3IDIxNy45NTIgNTQ5LjA4MSAyMTguNTU1IDU0Ny4yNzQgMjE4LjU1NUg1NDMuMjU5VjIyNS44OTlINTgwVjIxOC41NTVINTc1Ljk4NUM1NzQuNDc5IDIxOC43NTcgNTczLjA3MyAyMTguMTUzIDU3MS44NjkgMjE3LjA0NloiLz4KPHBhdGggZmlsbD0iIzAwMUUyQiIgZD0iTTkwNy41NDYgOTcuMjExOUM4OTcuMzkgOTEuODA0IDg4Ni4wMzkgODkgODczLjc5MiA4OUg4MjZWOTYuMzEwNkg4MzAuNjhDODMyLjQ3MiA5Ni4zMTA2IDgzNC4wNjUgOTcuMDExNyA4MzUuNjU4IDk4LjYxNEM4MzcuMTUyIDEwMC4xMTYgODM3Ljk0OCAxMDEuODE5IDgzNy45NDggMTAzLjYyMVYyMTEuMzc5QzgzNy45NDggMjEzLjE4MSA4MzcuMTUyIDIxNC44ODQgODM1LjY1OCAyMTYuMzg2QzgzNC4xNjUgMjE3Ljg4OCA4MzIuNDcyIDIxOC42ODkgODMwLjY4IDIxOC42ODlIODI2VjIyNkg4NzMuNzkyQzg4Ni4wMzkgMjI2IDg5Ny4zOSAyMjMuMTk2IDkwNy41NDYgMjE3Ljc4OEM5MTcuNzAxIDIxMi4zOCA5MjUuOTY2IDIwNC4zNjggOTMxLjk0IDE5NC4xNTRDOTM3LjkxNCAxODMuOTM5IDk0MSAxNzEuNjIxIDk0MSAxNTcuNkM5NDEgMTQzLjU4IDkzNy45MTQgMTMxLjM2MiA5MzEuOTQgMTIxLjA0N0M5MjUuODY2IDExMC42MzIgOTE3LjcwMSAxMDIuNzIgOTA3LjU0NiA5Ny4yMTE5Wk05MjEuNzg0IDE1Ny40QzkyMS43ODQgMTcwLjIxOSA5MTkuNDk0IDE4MS4wMzQgOTE1LjAxMyAxODkuNzQ3QzkxMC41MzMgMTk4LjQ2IDkwNC41NTggMjA0Ljk2OSA4OTcuMTkgMjA5LjE3NkM4ODkuODIzIDIxMy4zODIgODgxLjY1OCAyMTUuNDg1IDg3Mi44OTYgMjE1LjQ4NUg4NjMuMjM4Qzg2MS40NDYgMjE1LjQ4NSA4NTkuODUzIDIxNC43ODQgODU4LjI2IDIxMy4xODFDODU2Ljc2NiAyMTEuNjc5IDg1NS45NyAyMDkuOTc3IDg1NS45NyAyMDguMTc0VjEwNi41MjZDODU1Ljk3IDEwNC43MjMgODU2LjY2NyAxMDMuMTIxIDg1OC4yNiAxMDEuNTE4Qzg1OS43NTMgMTAwLjAxNiA4NjEuNDQ2IDk5LjIxNDkgODYzLjIzOCA5OS4yMTQ5SDg3Mi44OTZDODgxLjY1OCA5OS4yMTQ5IDg4OS44MjMgMTAxLjMxOCA4OTcuMTkgMTA1LjUyNEM5MDQuNTU4IDEwOS43MyA5MTAuNTMzIDExNi4yNCA5MTUuMDEzIDEyNC45NTJDOTE5LjQ5NCAxMzMuNzY1IDkyMS43ODQgMTQ0LjY4MSA5MjEuNzg0IDE1Ny40WiIvPgo8cGF0aCBmaWxsPSIjMDAxRTJCIiBkPSJNMTA1My45NyAxNjQuNzExQzEwNDkuNTUgMTU5LjYwMyAxMDQxLjAyIDE1NS4yOTcgMTAzMC45OSAxNTIuOTkzQzEwNDQuODQgMTQ2LjA4MyAxMDUxLjk2IDEzNi4zNjkgMTA1MS45NiAxMjMuODUxQzEwNTEuOTYgMTE3LjA0MSAxMDUwLjE2IDExMC45MzIgMTA0Ni41NCAxMDUuNzI0QzEwNDIuOTMgMTAwLjUxNyAxMDM3LjgxIDk2LjMxMDYgMTAzMS4yOSA5My40MDYzQzEwMjQuNzYgOTAuNTAyMSAxMDE3LjEzIDg5IDEwMDguNSA4OUg5NTQuNDAyVjk2LjMxMDZIOTU4LjcxOEM5NjAuNTI0IDk2LjMxMDYgOTYyLjEzIDk3LjAxMTcgOTYzLjczNiA5OC42MTRDOTY1LjI0MiAxMDAuMTE2IDk2Ni4wNDUgMTAxLjgxOSA5NjYuMDQ1IDEwMy42MjFWMjExLjM3OUM5NjYuMDQ1IDIxMy4xODEgOTY1LjI0MiAyMTQuODg0IDk2My43MzYgMjE2LjM4NkM5NjIuMjMxIDIxNy44ODggOTYwLjUyNCAyMTguNjg5IDk1OC43MTggMjE4LjY4OUg5NTRWMjI2SDEwMTIuNzJDMTAyMS42NSAyMjYgMTAyOS45OCAyMjQuNDk4IDEwMzcuNTEgMjIxLjQ5M0MxMDQ1LjA0IDIxOC40ODkgMTA1MS4wNiAyMTQuMDgzIDEwNTUuMzggMjA4LjI3NEMxMDU5Ljc5IDIwMi40NjYgMTA2MiAxOTUuMzU1IDEwNjIgMTg3LjE0M0MxMDYxLjkgMTc4LjMzIDEwNTkuMjkgMTcwLjgxOSAxMDUzLjk3IDE2NC43MTFaTTk4Ni42MjEgMjEzLjI4MUM5ODUuMTE1IDIxMS43NzkgOTg0LjMxMiAyMTAuMDc3IDk4NC4zMTIgMjA4LjI3NFYxNTkuOTAzSDEwMTIuMjJDMTAyMi4wNSAxNTkuOTAzIDEwMjkuNTggMTYyLjQwNyAxMDM0LjggMTY3LjQxNEMxMDQwLjAyIDE3Mi40MjIgMTA0Mi42MyAxNzguOTMxIDEwNDIuNjMgMTg2Ljk0M0MxMDQyLjYzIDE5MS43NSAxMDQxLjQyIDE5Ni40NTcgMTAzOS4yMiAyMDAuNzYzQzEwMzYuOTEgMjA1LjE3IDEwMzMuNDkgMjA4LjY3NSAxMDI4Ljg4IDIxMS4zNzlDMTAyNC4zNiAyMTQuMDgzIDEwMTguNzQgMjE1LjQ4NSAxMDEyLjIyIDIxNS40ODVIOTkxLjYzOUM5ODkuODMzIDIxNS40ODUgOTg4LjIyNyAyMTQuNzg0IDk4Ni42MjEgMjEzLjI4MVpNOTg0LjQxMyAxNDkuNTg4VjEwNi42MjZDOTg0LjQxMyAxMDQuODIzIDk4NS4xMTUgMTAzLjIyMSA5ODYuNzIxIDEwMS42MThDOTg4LjIyNyAxMDAuMTE2IDk4OS45MzMgOTkuMzE1IDk5MS43NCA5OS4zMTVIMTAwNC45OUMxMDE0LjUyIDk5LjMxNSAxMDIxLjU1IDEwMS43MTkgMTAyNS45NyAxMDYuMzI1QzEwMzAuMzggMTExLjAzMiAxMDMyLjU5IDExNy4wNDEgMTAzMi41OSAxMjQuNDUyQzEwMzIuNTkgMTMyLjA2MyAxMDMwLjQ4IDEzOC4xNzIgMTAyNi4zNyAxNDIuNzc4QzEwMjIuMjUgMTQ3LjI4NSAxMDE2LjAzIDE0OS41ODggMTAwNy44IDE0OS41ODhIOTg0LjQxM1oiLz4KPHBhdGggZmlsbD0iIzAwMUUyQiIgZD0iTTQzMS45OTkgMTMyLjM4OEM0MjQuMzI5IDEyOC4xOTYgNDE1Ljc2MyAxMjYgNDA2LjUgMTI2QzM5Ny4yMzcgMTI2IDM4OC41NzEgMTI4LjA5NiAzODEuMDAxIDEzMi4zODhDMzczLjMzMSAxMzYuNTc5IDM2Ny4yNTUgMTQyLjY2NyAzNjIuNzczIDE1MC4zNTJDMzU4LjI5MSAxNTguMDM3IDM1NiAxNjcuMDIgMzU2IDE3N0MzNTYgMTg2Ljk4IDM1OC4yOTEgMTk1Ljk2MyAzNjIuNzczIDIwMy42NDhDMzY3LjI1NSAyMTEuMzMzIDM3My4zMzEgMjE3LjQyMSAzODEuMDAxIDIyMS42MTNDMzg4LjY3MSAyMjUuODA0IDM5Ny4yMzcgMjI4IDQwNi41IDIyOEM0MTUuNzYzIDIyOCA0MjQuNDI5IDIyNS45MDQgNDMxLjk5OSAyMjEuNjEzQzQzOS42NjkgMjE3LjQyMSA0NDUuNzQ1IDIxMS4zMzMgNDUwLjIyNyAyMDMuNjQ4QzQ1NC43MDkgMTk1Ljk2MyA0NTcgMTg2Ljk4IDQ1NyAxNzdDNDU3IDE2Ny4wMiA0NTQuNzA5IDE1OC4wMzcgNDUwLjIyNyAxNTAuMzUyQzQ0NS43NDUgMTQyLjY2NyA0MzkuNjY5IDEzNi41NzkgNDMxLjk5OSAxMzIuMzg4Wk00MzkuMzcgMTc3QzQzOS4zNyAxODkuMjc2IDQzNi4zODIgMTk5LjI1NiA0MzAuNDA1IDIwNi40NDJDNDI0LjUyOSAyMTMuNjI4IDQxNi40NjEgMjE3LjMyMSA0MDYuNSAyMTcuMzIxQzM5Ni41NCAyMTcuMzIxIDM4OC40NzEgMjEzLjYyOCAzODIuNTk1IDIwNi40NDJDMzc2LjYxOCAxOTkuMjU2IDM3My42MyAxODkuMjc2IDM3My42MyAxNzdDMzczLjYzIDE2NC43MjQgMzc2LjYxOCAxNTQuNzQ0IDM4Mi41OTUgMTQ3LjU1OEMzODguNDcxIDE0MC4zNzIgMzk2LjU0IDEzNi42NzkgNDA2LjUgMTM2LjY3OUM0MTYuNDYxIDEzNi42NzkgNDI0LjUyOSAxNDAuMzcyIDQzMC40MDUgMTQ3LjU1OEM0MzYuMzgyIDE1NC43NDQgNDM5LjM3IDE2NC43MjQgNDM5LjM3IDE3N1oiLz4KPHBhdGggZmlsbD0iIzAwMUUyQiIgZD0iTTc4NC45OTkgMTMyLjM4OEM3NzcuMzI5IDEyOC4xOTYgNzY4Ljc2MyAxMjYgNzU5LjUgMTI2Qzc1MC4yMzcgMTI2IDc0MS41NzEgMTI4LjA5NiA3MzQuMDAxIDEzMi4zODhDNzI2LjMzMSAxMzYuNTc5IDcyMC4yNTUgMTQyLjY2NyA3MTUuNzczIDE1MC4zNTJDNzExLjI5MSAxNTguMDM3IDcwOSAxNjcuMDIgNzA5IDE3N0M3MDkgMTg2Ljk4IDcxMS4yOTEgMTk1Ljk2MyA3MTUuNzczIDIwMy42NDhDNzIwLjI1NSAyMTEuMzMzIDcyNi4zMzEgMjE3LjQyMSA3MzQuMDAxIDIyMS42MTNDNzQxLjY3MSAyMjUuODA0IDc1MC4yMzcgMjI4IDc1OS41IDIyOEM3NjguNzYzIDIyOCA3NzcuNDI5IDIyNS45MDQgNzg0Ljk5OSAyMjEuNjEzQzc5Mi42NjkgMjE3LjQyMSA3OTguNzQ1IDIxMS4zMzMgODAzLjIyNyAyMDMuNjQ4QzgwNy43MDkgMTk1Ljk2MyA4MTAgMTg2Ljk4IDgxMCAxNzdDODEwIDE2Ny4wMiA4MDcuNzA5IDE1OC4wMzcgODAzLjIyNyAxNTAuMzUyQzc5OC43NDUgMTQyLjY2NyA3OTIuNTY5IDEzNi41NzkgNzg0Ljk5OSAxMzIuMzg4Wk03OTIuMzcgMTc3Qzc5Mi4zNyAxODkuMjc2IDc4OS4zODEgMTk5LjI1NiA3ODMuNDA1IDIwNi40NDJDNzc3LjUyOCAyMTMuNjI4IDc2OS40NiAyMTcuMzIxIDc1OS41IDIxNy4zMjFDNzQ5LjUzOSAyMTcuMzIxIDc0MS40NzEgMjEzLjYyOCA3MzUuNTk1IDIwNi40NDJDNzI5LjYxOCAxOTkuMjU2IDcyNi42MyAxODkuMjc2IDcyNi42MyAxNzdDNzI2LjYzIDE2NC42MjQgNzI5LjYxOCAxNTQuNzQ0IDczNS41OTUgMTQ3LjU1OEM3NDEuNDcxIDE0MC4zNzIgNzQ5LjUzOSAxMzYuNjc5IDc1OS41IDEzNi42NzlDNzY5LjQ2IDEzNi42NzkgNzc3LjUyOCAxNDAuMzcyIDc4My40MDUgMTQ3LjU1OEM3ODkuMjgyIDE1NC43NDQgNzkyLjM3IDE2NC43MjQgNzkyLjM3IDE3N1oiLz4KPHBhdGggZmlsbD0iIzAwMUUyQiIgZD0iTTY0Mi42NCAxMjZDNjM0LjYxNCAxMjYgNjI3LjI5MiAxMjcuNzA0IDYyMC42NzEgMTMxLjExM0M2MTQuMDUgMTM0LjUyMiA2MDguODM0IDEzOS4xMzUgNjA1LjEyMiAxNDUuMDVDNjAxLjQxMSAxNTAuODY1IDU5OS41MDUgMTU3LjM4MyA1OTkuNTA1IDE2NC4zMDFDNTk5LjUwNSAxNzAuNTE3IDYwMC45MDkgMTc2LjIzMiA2MDMuODE4IDE4MS4zNDZDNjA2LjYyNyAxODYuMjU5IDYxMC40MzkgMTkwLjM2OSA2MTUuMjU0IDE5My43NzhMNjAwLjkwOSAyMTMuMjNDNTk5LjEwMyAyMTUuNjM2IDU5OC45MDMgMjE4Ljg0NCA2MDAuMjA3IDIyMS40NTFDNjAxLjYxMSAyMjQuMTU4IDYwNC4yMTkgMjI1Ljc2MyA2MDcuMjI5IDIyNS43NjNINjExLjM0MkM2MDcuMzI5IDIyOC40NyA2MDQuMTE5IDIzMS42NzggNjAxLjkxMiAyMzUuNDg4QzU5OS4zMDQgMjM5Ljc5OSA1OTggMjQ0LjMxMSA1OTggMjQ4LjkyM0M1OTggMjU3LjU0NiA2MDEuODEyIDI2NC42NjUgNjA5LjMzNSAyNjkuOTc5QzYxNi43NTkgMjc1LjI5MyA2MjcuMTkxIDI3OCA2NDAuMzMyIDI3OEM2NDkuNDYxIDI3OCA2NTguMTg4IDI3Ni40OTYgNjY2LjExMyAyNzMuNTg4QzY3NC4xMzggMjcwLjY4MSA2ODAuNjU4IDI2Ni4zNjkgNjg1LjQ3MyAyNjAuNzU1QzY5MC4zODkgMjU1LjE0IDY5Mi44OTcgMjQ4LjMyMiA2OTIuODk3IDI0MC41MDFDNjkyLjg5NyAyMzIuMjggNjg5Ljg4NyAyMjYuNDY0IDY4Mi44NjUgMjIwLjg1QzY3Ni44NDcgMjE2LjEzNyA2NjcuNDE3IDIxMy42MzEgNjU1LjY4IDIxMy42MzFINjE1LjU1NUM2MTUuNDU1IDIxMy42MzEgNjE1LjM1NCAyMTMuNTMgNjE1LjM1NCAyMTMuNTNDNjE1LjM1NCAyMTMuNTMgNjE1LjI1NCAyMTMuMzMgNjE1LjM1NCAyMTMuMjNMNjI1Ljc4NyAxOTkuMTkzQzYyOC41OTYgMjAwLjQ5NiA2MzEuMjA0IDIwMS4yOTggNjMzLjUxMSAyMDEuNzk5QzYzNS45MTggMjAyLjMwMSA2MzguNjI3IDIwMi41MDEgNjQxLjYzNiAyMDIuNTAxQzY1MC4wNjMgMjAyLjUwMSA2NTcuNjg3IDIwMC43OTcgNjY0LjMwNyAxOTcuMzg4QzY3MC45MjggMTkzLjk3OSA2NzYuMjQ1IDE4OS4zNjcgNjgwLjA1NyAxODMuNDUxQzY4My44NjggMTc3LjYzNiA2ODUuNzc0IDE3MS4xMTkgNjg1Ljc3NCAxNjQuMjAxQzY4NS43NzQgMTU2Ljc4MSA2ODIuMTYzIDE0My4yNDUgNjcyLjMzMiAxMzYuMzI3QzY3Mi4zMzIgMTM2LjIyNyA2NzIuNDMzIDEzNi4yMjcgNjcyLjQzMyAxMzYuMjI3TDY5NCAxMzguNjMzVjEyOC43MDdINjU5LjQ5MkM2NTQuMDc1IDEyNy4wMDMgNjQ4LjQ1OCAxMjYgNjQyLjY0IDEyNlpNNjU0LjY3NyAxODguNzY1QzY1MC44NjUgMTkwLjc3IDY0Ni43NTIgMTkxLjg3MyA2NDIuNjQgMTkxLjg3M0M2MzUuOTE5IDE5MS44NzMgNjMwIDE4OS40NjcgNjI0Ljk4NCAxODQuNzU1QzYxOS45NjkgMTgwLjA0MiA2MTcuNDYxIDE3My4xMjQgNjE3LjQ2MSAxNjQuMzAxQzYxNy40NjEgMTU1LjQ3OCA2MTkuOTY5IDE0OC41NTkgNjI0Ljk4NCAxNDMuODQ3QzYzMCAxMzkuMTM1IDYzNS45MTkgMTM2LjcyOCA2NDIuNjQgMTM2LjcyOEM2NDYuODUzIDEzNi43MjggNjUwLjg2NSAxMzcuNzMxIDY1NC42NzcgMTM5LjgzNkM2NTguNDg5IDE0MS44NDIgNjYxLjU5OSAxNDQuOTUgNjY0LjEwNyAxNDkuMDYxQzY2Ni41MTQgMTUzLjE3MiA2NjcuODE4IDE1OC4yODUgNjY3LjgxOCAxNjQuMzAxQzY2Ny44MTggMTcwLjQxNyA2NjYuNjE0IDE3NS41MyA2NjQuMTA3IDE3OS41NDFDNjYxLjY5OSAxODMuNjUyIDY1OC40ODkgMTg2Ljc2IDY1NC42NzcgMTg4Ljc2NVpNNjI3LjQ5MiAyMjUuNjYySDY1NC42NzdDNjYyLjIwMSAyMjUuNjYyIDY2Ny4wMTYgMjI3LjE2NiA2NzAuMjI2IDIzMC4zNzVDNjczLjQzNiAyMzMuNTgzIDY3NS4wNDEgMjM3Ljg5NCA2NzUuMDQxIDI0Mi45MDhDNjc1LjA0MSAyNTAuMjI3IDY3Mi4xMzIgMjU2LjI0MyA2NjYuMzE0IDI2MC43NTVDNjYwLjQ5NSAyNjUuMjY3IDY1Mi42NzEgMjY3LjU3MyA2NDMuMDQxIDI2Ny41NzNDNjM0LjYxNCAyNjcuNTczIDYyNy41OTIgMjY1LjY2OCA2MjIuNDc2IDI2Mi4wNThDNjE3LjM2IDI1OC40NDkgNjE0Ljc1MiAyNTIuOTM0IDYxNC43NTIgMjQ1LjkxNkM2MTQuNzUyIDI0MS41MDQgNjE1Ljk1NiAyMzcuMzkzIDYxOC4zNjQgMjMzLjc4NEM2MjAuNzcxIDIzMC4xNzQgNjIzLjY4IDIyNy41NjcgNjI3LjQ5MiAyMjUuNjYyWiIvPgo8cGF0aCBmaWxsPSIjMDAxRTJCIiBkPSJNMTA4Mi4zNSAyMjQuMzI3QzEwODAuMzcgMjIzLjI0NCAxMDc4Ljg4IDIyMS42NjkgMTA3Ny42OSAyMTkuNzk5QzEwNzYuNiAyMTcuODMxIDEwNzYgMjE1Ljc2NCAxMDc2IDIxMy41QzEwNzYgMjExLjIzNiAxMDc2LjYgMjA5LjA3MSAxMDc3LjY5IDIwNy4yMDFDMTA3OC43OCAyMDUuMjMyIDEwODAuMzcgMjAzLjc1NiAxMDgyLjM1IDIwMi42NzNDMTA4NC4zNCAyMDEuNTkxIDEwODYuNTIgMjAxIDEwODkgMjAxQzEwOTEuNDggMjAxIDEwOTMuNjYgMjAxLjU5MSAxMDk1LjY1IDIwMi42NzNDMTA5Ny42MyAyMDMuNzU2IDEwOTkuMTIgMjA1LjMzMSAxMTAwLjMxIDIwNy4yMDFDMTEwMS40IDIwOS4xNjkgMTEwMiAyMTEuMjM2IDExMDIgMjEzLjVDMTEwMiAyMTUuNzY0IDExMDEuNCAyMTcuOTI5IDExMDAuMzEgMjE5Ljc5OUMxMDk5LjIyIDIyMS43NjggMTA5Ny42MyAyMjMuMjQ0IDEwOTUuNjUgMjI0LjMyN0MxMDkzLjY2IDIyNS40MDkgMTA5MS40OCAyMjYgMTA4OSAyMjZDMTA4Ni42MiAyMjYgMTA4NC4zNCAyMjUuNTA4IDEwODIuMzUgMjI0LjMyN1pNMTA5NC41NiAyMjIuOTQ5QzEwOTYuMjQgMjIyLjA2MyAxMDk3LjQ0IDIyMC42ODUgMTA5OC40MyAyMTkuMTFDMTA5OS4zMiAyMTcuNDM3IDEwOTkuODIgMjE1LjU2NyAxMDk5LjgyIDIxMy41QzEwOTkuODIgMjExLjQzMyAxMDk5LjMyIDIwOS41NjMgMTA5OC40MyAyMDcuODlDMTA5Ny41MyAyMDYuMjE3IDEwOTYuMjQgMjA0LjkzNyAxMDk0LjU2IDIwNC4wNTFDMTA5Mi44NyAyMDMuMTY1IDEwOTEuMDggMjAyLjY3MyAxMDg5IDIwMi42NzNDMTA4Ni45MiAyMDIuNjczIDEwODUuMTMgMjAzLjE2NSAxMDgzLjQ0IDIwNC4wNTFDMTA4MS43NiAyMDQuOTM3IDEwODAuNTYgMjA2LjMxNSAxMDc5LjU3IDIwNy44OUMxMDc4LjY4IDIwOS41NjMgMTA3OC4xOCAyMTEuNDMzIDEwNzguMTggMjEzLjVDMTA3OC4xOCAyMTUuNTY3IDEwNzguNjggMjE3LjQzNyAxMDc5LjU3IDIxOS4xMUMxMDgwLjQ3IDIyMC43ODMgMTA4MS43NiAyMjIuMDYzIDEwODMuNDQgMjIyLjk0OUMxMDg1LjEzIDIyMy44MzUgMTA4Ni45MiAyMjQuMzI3IDEwODkgMjI0LjMyN0MxMDkxLjA4IDIyNC4zMjcgMTA5Mi45NyAyMjMuODM1IDEwOTQuNTYgMjIyLjk0OVpNMTA4My42NCAyMTkuNTA0VjIxOC42MThMMTA4My44NCAyMTguNTJIMTA4NC40NEMxMDg0LjYzIDIxOC41MiAxMDg0LjgzIDIxOC40MjEgMTA4NC45MyAyMTguMzIzQzEwODUuMTMgMjE4LjEyNiAxMDg1LjEzIDIxOC4wMjggMTA4NS4xMyAyMTcuODMxVjIwOC42NzdDMTA4NS4xMyAyMDguNDggMTA4NS4wMyAyMDguMjg0IDEwODQuOTMgMjA4LjE4NUMxMDg0LjczIDIwNy45ODggMTA4NC42MyAyMDcuOTg4IDEwODQuNDQgMjA3Ljk4OEgxMDgzLjg0TDEwODMuNjQgMjA3Ljg5VjIwNy4wMDRMMTA4My44NCAyMDYuOTA2SDEwODlDMTA5MC40OSAyMDYuOTA2IDEwOTEuNTggMjA3LjIwMSAxMDkyLjQ3IDIwNy44OUMxMDkzLjM3IDIwOC41NzkgMTA5My43NiAyMDkuNDY1IDEwOTMuNzYgMjEwLjY0NkMxMDkzLjc2IDIxMS41MzIgMTA5My40NyAyMTIuNDE3IDEwOTIuNzcgMjEzLjAwOEMxMDkyLjA4IDIxMy42OTcgMTA5MS4yOCAyMTQuMDkxIDEwOTAuMjkgMjE0LjE4OUwxMDkxLjQ4IDIxNC41ODNMMTA5My43NiAyMTguMjI0QzEwOTMuOTYgMjE4LjUyIDEwOTQuMTYgMjE4LjYxOCAxMDk0LjQ2IDIxOC42MThIMTA5NS4wNUwxMDk1LjE1IDIxOC43MTdWMjE5LjYwMkwxMDk1LjA1IDIxOS43MDFIMTA5MS45OEwxMDkxLjc4IDIxOS42MDJMMTA4OC42IDIxNC4yODdIMTA4Ny44MVYyMTcuODMxQzEwODcuODEgMjE4LjAyOCAxMDg3LjkxIDIxOC4yMjQgMTA4OC4wMSAyMTguMzIzQzEwODguMjEgMjE4LjUyIDEwODguMzEgMjE4LjUyIDEwODguNSAyMTguNTJIMTA4OS4xTDEwODkuMyAyMTguNjE4VjIxOS41MDRMMTA4OS4xIDIxOS42MDJIMTA4My44NEwxMDgzLjY0IDIxOS41MDRaTTEwODguNyAyMTMuMDA4QzEwODkuNSAyMTMuMDA4IDEwOTAuMTkgMjEyLjgxMSAxMDkwLjU5IDIxMi4zMTlDMTA5MC45OCAyMTEuOTI1IDEwOTEuMjggMjExLjIzNiAxMDkxLjI4IDIxMC40NDlDMTA5MS4yOCAyMDkuNjYxIDEwOTEuMDggMjA5LjA3MSAxMDkwLjY5IDIwOC41NzlDMTA5MC4yOSAyMDguMDg3IDEwODkuNjkgMjA3Ljg5IDEwODkgMjA3Ljg5SDEwODguNkMxMDg4LjQgMjA3Ljg5IDEwODguMjEgMjA3Ljk4OCAxMDg4LjExIDIwOC4wODdDMTA4Ny45MSAyMDguMjgzIDEwODcuOTEgMjA4LjM4MiAxMDg3LjkxIDIwOC41NzlWMjEzLjAwOEgxMDg4LjdaIi8+Cjwvc3ZnPg==;" parent="131" vertex="1">
                    <mxGeometry x="43.67" y="90" width="171.66" height="43.25" as="geometry"/>
                </mxCell>
                <mxCell id="133" value="" style="shape=image;verticalLabelPosition=bottom;labelBackgroundColor=default;verticalAlign=top;aspect=fixed;imageAspect=0;image=data:image/svg+xml,PHN2ZyB4bWxucz0iaHR0cDovL3d3dy53My5vcmcvMjAwMC9zdmciIGZpbGw9Im5vbmUiIHZpZXdCb3g9IjAgMCA2OTMgMTE0IiBoZWlnaHQ9IjExNCIgd2lkdGg9IjY5MyI+PHBhdGggZmlsbD0iIzAyMEE0NyIgZD0iTTE2Ni40NDkgMzAuNDEyQzE2My42NjYgMzAuNDEyIDE2MS4zMDQgMjkuNTAyOSAxNTkuMzYzIDI3LjY4NDdDMTU3LjQ4NiAyNS44NjY2IDE1Ni41NDggMjMuNjU4OCAxNTYuNTQ4IDIxLjA2MTRDMTU2LjU0OCAxOC4zMzQxIDE1Ny40ODYgMTYuMDkzOCAxNTkuMzYzIDE0LjM0MDZDMTYxLjMwNCAxMi41MjI0IDE2My42NjYgMTEuNjEzMyAxNjYuNDQ5IDExLjYxMzNDMTY5LjIzMiAxMS42MTMzIDE3MS41NjEgMTIuNTIyNCAxNzMuNDM4IDE0LjM0MDZDMTc1LjMxNSAxNi4wOTM4IDE3Ni4yNTMgMTguMzM0MSAxNzYuMjUzIDIxLjA2MTRDMTc2LjI1MyAyMy42NTg4IDE3NS4zMTUgMjUuODY2NiAxNzMuNDM4IDI3LjY4NDdDMTcxLjU2MSAyOS41MDI5IDE2OS4yMzIgMzAuNDEyIDE2Ni40NDkgMzAuNDEyWk0xNTcuNjE2IDg4LjU2MTNWMzguMzAxNkgxNzUuMTg1Vjg4LjU2MTNIMTU3LjYxNloiLz48cGF0aCBmaWxsPSIjMDIwQTQ3IiBkPSJNMTg3LjAwMiA4OC41NjEzVjM4LjMwMTZIMjA0LjI4MUwyMDQuNDc1IDQ0LjUzNTRDMjA1Ljc2OSA0Mi4wNjc4IDIwNy42NzggNDAuMTUyMyAyMTAuMjAyIDM4Ljc4ODZDMjEyLjcyNiAzNy40MjUgMjE1LjYzOCAzNi43NDMyIDIxOC45MzggMzYuNzQzMkMyMjQuNTY4IDM2Ljc0MzIgMjI4LjgzOSAzOC41NjE0IDIzMS43NTIgNDIuMTk3N0MyMzQuNzI4IDQ1Ljc2OTEgMjM2LjIxNyA1MS4wMjg5IDIzNi4yMTcgNTcuOTc2OVY4OC41NjEzSDIxOC42NDdWNjEuMjg4NkMyMTguNjQ3IDU1LjM3OTUgMjE2LjQxNCA1Mi40MjUgMjExLjk0OSA1Mi40MjVDMjA5LjU1NSA1Mi40MjUgMjA3LjcxMSA1My4yNjkxIDIwNi40MTYgNTQuOTU3NEMyMDUuMTg3IDU2LjU4MDggMjA0LjU3MiA1OC45MTg1IDIwNC41NzIgNjEuOTcwNFY4OC41NjEzSDE4Ny4wMDJaIi8+PHBhdGggZmlsbD0iIzAyMEE0NyIgZD0iTTI1Mi44MTYgODguNTYxM1Y1Mi40MjVIMjQ0Ljc1OVYzOC4zMDE2SDI1Mi44MTZWMzMuNDMxNUMyNTIuODE2IDI1LjcwNDIgMjU0LjY5MiAxOS43MzAyIDI1OC40NDYgMTUuNTA5NEMyNjIuMjY0IDExLjI4ODYgMjY3LjYzNSA5LjE3ODI1IDI3NC41NTkgOS4xNzgyNUMyNzYuNTY2IDkuMTc4MjUgMjc4LjQ0MiA5LjM0MDU4IDI4MC4xOSA5LjY2NTI2QzI4Mi4wMDIgOS45MjUgMjgzLjUyMiAxMC4zMTQ2IDI4NC43NTIgMTAuODM0MUwyODMuODc4IDI1LjQ0NDVDMjgzLjE2NiAyNS4xMTk4IDI4Mi4yOTMgMjQuODkyNSAyODEuMjU3IDI0Ljc2MjdDMjgwLjI4NyAyNC41Njc5IDI3OS4zODEgMjQuNDcwNCAyNzguNTM5IDI0LjQ3MDRDMjc1Ljc1NyAyNC40NzA0IDI3My42ODYgMjUuMjgyMSAyNzIuMzI3IDI2LjkwNTVDMjcxLjAzMyAyOC41Mjg5IDI3MC4zODUgMzEuMDkzOCAyNzAuMzg1IDM0LjYwMDNWMzguMzAxNkgyODIuMjI4VjUyLjQyNUgyNzAuMzg1Vjg4LjU2MTNIMjUyLjgxNlpNMjg5Ljk5NCA4OC41NjEzVjkuNjY1MjZIMzA3LjU2M1Y4OC41NjEzSDI4OS45OTRaIi8+PHBhdGggZmlsbD0iIzAyMEE0NyIgZD0iTTMzNS45MzMgOTAuMTE5OEMzMzAuNDMyIDkwLjExOTggMzI2LjIyNiA4OC4zNjY1IDMyMy4zMTQgODQuODZDMzIwLjQwMiA4MS4yODg2IDMxOC45NDYgNzYuMDkzOCAzMTguOTQ2IDY5LjI3NTZWMzguMzAxNkgzMzYuNjEyVjY1LjY3MTdDMzM2LjYxMiA2OC42NTg3IDMzNy4xMyA3MC44NjY1IDMzOC4xNjUgNzIuMjk1MUMzMzkuMjY2IDczLjcyMzcgMzQwLjk4IDc0LjQzOCAzNDMuMzEgNzQuNDM4QzM0NS42NCA3NC40MzggMzQ3LjQxOSA3My42MjYzIDM0OC42NDkgNzIuMDAyOUMzNDkuOTQzIDcwLjMxNDYgMzUwLjU5IDY3Ljk0NDUgMzUwLjU5IDY0Ljg5MjVWMzguMzAxNkgzNjguMTZWODguNTYxM0gzNTAuODgyTDM1MC42ODcgODIuMzI3NkMzNDkuMzkzIDg0Ljc5NTEgMzQ3LjQ1MiA4Ni43MTA3IDM0NC44NjMgODguMDc0M0MzNDIuMzM5IDg5LjQzOCAzMzkuMzYzIDkwLjExOTggMzM1LjkzMyA5MC4xMTk4WiIvPjxwYXRoIGZpbGw9IiMwMjBBNDciIGQ9Ik0zNzYuMTIyIDg4LjU2MTNMMzk0LjM3MSA2Mi42NTIzTDM3Ny4wOTMgMzguMzAxNkgzOTYuNzAxTDQwNC44NTUgNTEuOTM4TDQxMi44MTUgMzguMzAxNkg0MzEuNDUyTDQxNC4yNzEgNjIuODQ3MUw0MzIuNjE3IDg4LjU2MTNINDEyLjkxMkw0MDMuNzg3IDczLjM2NjVMMzk0Ljc2IDg4LjU2MTNIMzc2LjEyMloiLz48cGF0aCBmaWxsPSIjMDIwQTQ3IiBkPSJNNDYzLjM4OCA5MC4xMTk4QzQ1OC45MjMgOTAuMTE5OCA0NTQuOTExIDg5LjAxNTkgNDUxLjM1MSA4Ni44MDgxQzQ0Ny44NTcgODQuNjAwMyA0NDUuMTA3IDgxLjU0ODMgNDQzLjEwMSA3Ny42NTIyQzQ0MS4wOTQgNzMuNjkxMiA0NDAuMDkxIDY5LjIxMDcgNDQwLjA5MSA2NC4yMTA3QzQ0MC4wOTEgNTkuNDA1NSA0NDEuMTU5IDU1LjA1NDkgNDQzLjI5NSA1MS4xNTg4QzQ0NS40OTUgNDcuMTk3NyA0NDguNDM5IDQ0LjA4MDggNDUyLjEyOCA0MS44MDgxQzQ1NS44MTcgMzkuNDcwNCA0NTkuODk0IDM4LjMwMTYgNDY0LjM1OSAzOC4zMDE2QzQ2OC4wNDggMzguMzAxNiA0NzEuNDEzIDM5LjIxMDcgNDc0LjQ1NCA0MS4wMjg5QzQ3Ny41NiA0Mi44NDcxIDQ4MC4wNTIgNDUuNDEyIDQ4MS45MjkgNDguNzIzN1Y5LjY2NTI2SDQ5MC4xOFY4OC41NjEzSDQ4Mi4xMjNMNDgxLjkyOSA3OS42OTc3QzQ3OS45ODcgODMuMDA5NCA0NzcuNDMxIDg1LjU3NDMgNDc0LjI2IDg3LjM5MjVDNDcxLjA4OSA4OS4yMTA3IDQ2Ny40NjUgOTAuMTE5OCA0NjMuMzg4IDkwLjExOThaTTQ2NS41MjQgODIuNzE3MkM0NjguODg5IDgyLjcxNzIgNDcxLjgzMyA4MS45MzggNDc0LjM1NyA4MC4zNzk1QzQ3Ni44ODEgNzguODIxMSA0NzguODU1IDc2LjY0NTggNDgwLjI3OCA3My44NTM1QzQ4MS43NjcgNzEuMDYxMyA0ODIuNTExIDY3Ljg0NzEgNDgyLjUxMSA2NC4yMTA3QzQ4Mi41MTEgNjAuNTc0MyA0ODEuNzY3IDU3LjM2IDQ4MC4yNzggNTQuNTY3OEM0NzguODU1IDUxLjc3NTYgNDc2Ljg4MSA0OS42MDAzIDQ3NC4zNTcgNDguMDQxOUM0NzEuODMzIDQ2LjQ4MzQgNDY4Ljg4OSA0NS43MDQyIDQ2NS41MjQgNDUuNzA0MkM0NjIuMjIzIDQ1LjcwNDIgNDU5LjI3OSA0Ni40ODM0IDQ1Ni42OSA0OC4wNDE5QzQ1NC4xNjYgNDkuNjAwMyA0NTIuMTYgNTEuNzc1NiA0NTAuNjcyIDU0LjU2NzhDNDQ5LjI0OCA1Ny4zNiA0NDguNTM2IDYwLjU3NDMgNDQ4LjUzNiA2NC4yMTA3QzQ0OC41MzYgNjcuODQ3MSA0NDkuMjQ4IDcxLjA2MTMgNDUwLjY3MiA3My44NTM1QzQ1Mi4xNiA3Ni42NDU4IDQ1NC4xNjYgNzguODIxMSA0NTYuNjkgODAuMzc5NUM0NTkuMjc5IDgxLjkzOCA0NjIuMjIzIDgyLjcxNzIgNDY1LjUyNCA4Mi43MTcyWiIvPjxwYXRoIGZpbGw9IiMwMjBBNDciIGQ9Ik01MjcuNTY0IDkwLjExOThDNTIzLjA5OSA5MC4xMTk4IDUxOS4wODcgODkuMDE1OSA1MTUuNTI4IDg2LjgwODFDNTEyLjAzMyA4NC42MDAzIDUwOS4yODMgODEuNTQ4MyA1MDcuMjc3IDc3LjY1MjJDNTA1LjI3MSA3My42OTEyIDUwNC4yNjggNjkuMjEwNyA1MDQuMjY4IDY0LjIxMDdDNTA0LjI2OCA1OS40MDU1IDUwNS4zMzUgNTUuMDU0OSA1MDcuNDcxIDUxLjE1ODhDNTA5LjY3MSA0Ny4xOTc3IDUxMi42MTYgNDQuMDgwOCA1MTYuMzA0IDQxLjgwODFDNTE5Ljk5MyAzOS40NzA0IDUyNC4wNyAzOC4zMDE2IDUyOC41MzUgMzguMzAxNkM1MzIuMjI0IDM4LjMwMTYgNTM1LjU4OSAzOS4yMTA3IDUzOC42MyA0MS4wMjg5QzU0MS43MzcgNDIuODQ3MSA1NDQuMjI4IDQ1LjQxMiA1NDYuMTA1IDQ4LjcyMzdMNTQ2LjI5OSAzOS44NjAxSDU1NC4zNTZWODguNTYxM0g1NDYuMjk5TDU0Ni4xMDUgNzkuNjk3N0M1NDQuMTYzIDgzLjAwOTQgNTQxLjYwNyA4NS41NzQzIDUzOC40MzYgODcuMzkyNUM1MzUuMjY1IDg5LjIxMDcgNTMxLjY0MSA5MC4xMTk4IDUyNy41NjQgOTAuMTE5OFpNNTI5LjcgODIuNzE3MkM1MzMuMDY1IDgyLjcxNzIgNTM2LjAxIDgxLjkzOCA1MzguNTMzIDgwLjM3OTVDNTQxLjA1NyA3OC44MjExIDU0My4wMzEgNzYuNjQ1OCA1NDQuNDU1IDczLjg1MzVDNTQ1Ljk0MyA3MS4wNjEzIDU0Ni42ODcgNjcuODQ3MSA1NDYuNjg3IDY0LjIxMDdDNTQ2LjY4NyA2MC41NzQzIDU0NS45NDMgNTcuMzYgNTQ0LjQ1NSA1NC41Njc4QzU0My4wMzEgNTEuNzc1NiA1NDEuMDU3IDQ5LjYwMDMgNTM4LjUzMyA0OC4wNDE5QzUzNi4wMSA0Ni40ODM0IDUzMy4wNjUgNDUuNzA0MiA1MjkuNyA0NS43MDQyQzUyNi40IDQ1LjcwNDIgNTIzLjQ1NSA0Ni40ODM0IDUyMC44NjcgNDguMDQxOUM1MTguMzQzIDQ5LjYwMDMgNTE2LjMzNyA1MS43NzU2IDUxNC44NDggNTQuNTY3OEM1MTMuNDI0IDU3LjM2IDUxMi43MTMgNjAuNTc0MyA1MTIuNzEzIDY0LjIxMDdDNTEyLjcxMyA2Ny44NDcxIDUxMy40MjQgNzEuMDYxMyA1MTQuODQ4IDczLjg1MzVDNTE2LjMzNyA3Ni42NDU4IDUxOC4zNDMgNzguODIxMSA1MjAuODY3IDgwLjM3OTVDNTIzLjQ1NSA4MS45MzggNTI2LjQgODIuNzE3MiA1MjkuNyA4Mi43MTcyWiIvPjxwYXRoIGZpbGw9IiMwMjBBNDciIGQ9Ik01OTEuMTU4IDkwLjExOThDNTg1LjY1OCA5MC4xMTk4IDU4MS42MTMgODguNjU4NyA1NzkuMDI0IDg1LjczNjdDNTc2LjQzNiA4Mi43NDk2IDU3NS4xNDIgNzguMTA2OCA1NzUuMTQyIDcxLjgwODFWNDYuOTcwNEg1NjQuMDc2VjM5Ljg2MDFINTc1LjE0MlYyNS44MzQxSDU4My4zOTNWMzkuODYwMUg2MDAuMzhWNDYuOTcwNEg1ODMuMzkzVjcxLjEyNjNDNTgzLjM5MyA3NS4yODIxIDU4NC4xMDQgNzguMzAxNiA1ODUuNTI4IDgwLjE4NDdDNTg3LjAxNyA4Mi4wMDI5IDU4OS4zNzkgODIuOTEyIDU5Mi42MTQgODIuOTEyQzU5NS43MjEgODIuOTEyIDU5OC45MjQgODIuMDY3OCA2MDIuMjI0IDgwLjM3OTVMNjAzLjE5NSA4Ny4yOTUxQzYwMS43MDcgODguMjA0MiA1OTkuODk1IDg4Ljg4NiA1OTcuNzU5IDg5LjM0MDZDNTk1LjY4OCA4OS44NiA1OTMuNDg4IDkwLjExOTggNTkxLjE1OCA5MC4xMTk4WiIvPjxwYXRoIGZpbGw9IiMwMjBBNDciIGQ9Ik02MzMuODMgOTAuMTE5OEM2MjkuMzY0IDkwLjExOTggNjI1LjM1MiA4OS4wMTU5IDYyMS43OTMgODYuODA4MUM2MTguMjk4IDg0LjYwMDMgNjE1LjU0OCA4MS41NDgzIDYxMy41NDIgNzcuNjUyMkM2MTEuNTM2IDczLjY5MTIgNjEwLjUzMyA2OS4yMTA3IDYxMC41MzMgNjQuMjEwN0M2MTAuNTMzIDU5LjQwNTUgNjExLjYwMSA1NS4wNTQ5IDYxMy43MzYgNTEuMTU4OEM2MTUuOTM2IDQ3LjE5NzcgNjE4Ljg4MSA0NC4wODA4IDYyMi41NyA0MS44MDgxQzYyNi4yNTggMzkuNDcwNCA2MzAuMzM1IDM4LjMwMTYgNjM0LjggMzguMzAxNkM2MzguNDg5IDM4LjMwMTYgNjQxLjg1NCAzOS4yMTA3IDY0NC44OTYgNDEuMDI4OUM2NDguMDAyIDQyLjg0NzEgNjUwLjQ5MyA0NS40MTIgNjUyLjM3IDQ4LjcyMzdMNjUyLjU2NCAzOS44NjAxSDY2MC42MjFWODguNTYxM0g2NTIuNTY0TDY1Mi4zNyA3OS42OTc3QzY1MC40MjkgODMuMDA5NCA2NDcuODcyIDg1LjU3NDMgNjQ0LjcwMSA4Ny4zOTI1QzY0MS41MzEgODkuMjEwNyA2MzcuOTA3IDkwLjExOTggNjMzLjgzIDkwLjExOThaTTYzNS45NjUgODIuNzE3MkM2MzkuMzMgODIuNzE3MiA2NDIuMjc1IDgxLjkzOCA2NDQuNzk5IDgwLjM3OTVDNjQ3LjMyMiA3OC44MjExIDY0OS4yOTYgNzYuNjQ1OCA2NTAuNzIgNzMuODUzNUM2NTIuMjA4IDcxLjA2MTMgNjUyLjk1MiA2Ny44NDcxIDY1Mi45NTIgNjQuMjEwN0M2NTIuOTUyIDYwLjU3NDMgNjUyLjIwOCA1Ny4zNiA2NTAuNzIgNTQuNTY3OEM2NDkuMjk2IDUxLjc3NTYgNjQ3LjMyMiA0OS42MDAzIDY0NC43OTkgNDguMDQxOUM2NDIuMjc1IDQ2LjQ4MzQgNjM5LjMzIDQ1LjcwNDIgNjM1Ljk2NSA0NS43MDQyQzYzMi42NjUgNDUuNzA0MiA2MjkuNzIgNDYuNDgzNCA2MjcuMTMyIDQ4LjA0MTlDNjI0LjYwOCA0OS42MDAzIDYyMi42MDIgNTEuNzc1NiA2MjEuMTEzIDU0LjU2NzhDNjE5LjY5IDU3LjM2IDYxOC45NzggNjAuNTc0MyA2MTguOTc4IDY0LjIxMDdDNjE4Ljk3OCA2Ny44NDcxIDYxOS42OSA3MS4wNjEzIDYyMS4xMTMgNzMuODUzNUM2MjIuNjAyIDc2LjY0NTggNjI0LjYwOCA3OC44MjExIDYyNy4xMzIgODAuMzc5NUM2MjkuNzIgODEuOTM4IDYzMi42NjUgODIuNzE3MiA2MzUuOTY1IDgyLjcxNzJaIi8+PHBhdGggZmlsbD0iIzAyMEE0NyIgZD0iTTgyLjYyODMgNzguMDQxOUwxMDguODU1IDcyLjAyODhDMTA5LjI1OSA3MS45NDcgMTA5LjY0MSA3MS43ODIgMTA5Ljk3OCA3MS41NDQyQzExMC4zMTUgNzEuMzA2MyAxMTAuNTk5IDcxLjAwMSAxMTAuODExIDcwLjY0NzZDMTExLjAyMyA3MC4yOTQyIDExMS4xNTkgNjkuOTAwNCAxMTEuMjExIDY5LjQ5MTRDMTExLjI2MyA2OS4wODI0IDExMS4yMjkgNjguNjY3MiAxMTEuMTExIDY4LjI3Mkw5OS45NTc3IDE5Ljg5NzlDOTkuNzU2NCAxOS4wOTk2IDk5LjI0NjYgMTguNDEzOCA5OC41NDAyIDE3Ljk5MDhDOTcuODMzOCAxNy41Njc4IDk2Ljk4ODQgMTcuNDQyMyA5Ni4xODk1IDE3LjY0MTZMNjkuOTc0MSAyMy42NTQ3QzY5LjE4MDUgMjMuODU4MyA2OC40OTk4IDI0LjM2NzggNjguMDgxIDI1LjA3MThDNjcuNjYyMiAyNS43NzU4IDY3LjUzOTIgMjYuNjE3IDY3LjczOTEgMjcuNDExNUw3OC44NjAxIDc1Ljc4NTZDNzkuMDYxNSA3Ni41ODM5IDc5LjU3MTMgNzcuMjY5NyA4MC4yNzc3IDc3LjY5MjdDODAuOTg0MSA3OC4xMTU3IDgxLjgyOTQgNzguMjQxMiA4Mi42MjgzIDc4LjA0MTlaIiBjbGlwLXJ1bGU9ImV2ZW5vZGQiIGZpbGwtcnVsZT0iZXZlbm9kZCIvPjxwYXRoIGZpbGw9IiMwMjBBNDciIGQ9Ik03My41OTEgMTA3LjkzNEwxMDUuMzg5IDc4LjQ5NTJDMTA2LjU4NyA3Ny4yODYxIDEwNi4yODUgNzYuNTQxMiAxMDQuNjMzIDc3LjEzNDlMODIuNzc5MyA4Mi4xMDA4QzgxLjg3NTYgODIuMzI0MSA4MS4wNDI4IDgyLjc3MTUgODAuMzU3NyA4My40MDE3Qzc5LjY3MjcgODQuMDMxOSA3OS4xNTc2IDg0LjgyNDYgNzguODYgODUuNzA2NUw3Mi4yMzA1IDEwNy4wMzhDNzEuNzc3MSAxMDguNjkgNzIuMzgxNyAxMDkuMTQzIDczLjU5MSAxMDcuOTM0WiIgY2xpcC1ydWxlPSJldmVub2RkIiBmaWxsLXJ1bGU9ImV2ZW5vZGQiLz48cGF0aCBmaWxsPSIjMDIwQTQ3IiBkPSJNMTUuNTc4MSA5OC4zMjYzTDYzLjE5MzUgMTEzLjA0QzY0LjAwNyAxMTMuMTkyIDY0Ljg0NzkgMTEzLjA0OSA2NS41NjU5IDExMi42MzhDNjYuMjgzOSAxMTIuMjI3IDY2LjgzMjIgMTExLjU3MyA2Ny4xMTI5IDExMC43OTVMNzUuMDkxOSA4NS4yNTNDNzUuMjA3NCA4NC44NTQ3IDc1LjI0MzIgODQuNDM3NCA3NS4xOTcxIDg0LjAyNTJDNzUuMTUxIDgzLjYxMzEgNzUuMDI0MSA4My4yMTQgNzQuODIzNCA4Mi44NTFDNzQuNjIyOCA4Mi40ODc5IDc0LjM1MjUgODIuMTY4IDc0LjAyODEgODEuOTA5NkM3My43MDM2IDgxLjY1MTIgNzMuMzMxMyA4MS40NTk0IDcyLjkzMjUgODEuMzQ1MUwyNS4zMTcyIDY2Ljc3MTNDMjQuNTExMSA2Ni41NDA4IDIzLjY0NjYgNjYuNjM4NCAyMi45MTIzIDY3LjA0MjlDMjIuMTc4IDY3LjQ0NzQgMjEuNjMzNSA2OC4xMjYgMjEuMzk3OCA2OC45MzA0TDEzLjQ3MjcgOTQuNDE4M0MxMy4yMzczIDk1LjIxNTcgMTMuMzI2NSA5Ni4wNzM3IDEzLjcyMDggOTYuODA1NkMxNC4xMTUyIDk3LjUzNzYgMTQuNzgyNyA5OC4wODQxIDE1LjU3ODEgOTguMzI2M1oiIGNsaXAtcnVsZT0iZXZlbm9kZCIgZmlsbC1ydWxlPSJldmVub2RkIi8+PHBhdGggZmlsbD0iIzAyMEE0NyIgZD0iTTAuMjAyODE2IDQ2LjA0NDJMOS44NTU0NSA4OC4zMDgxQzEwLjE1NzggODkuOTU5OCAxMC45MzUyIDg5Ljk1OTggMTEuMzU2MyA4OC4zMDgxTDE3Ljk4NTcgNjYuOTc2NEMxOC4yMTE2IDY2LjA2NzUgMTguMjIwOCA2NS4xMTgyIDE4LjAxMjcgNjQuMjA1QzE3LjgwNDUgNjMuMjkxOSAxNy4zODQ4IDYyLjQ0MDQgMTYuNzg3MiA2MS43MTkxTDEuNTYzMjYgNDUuMjg4NUMwLjUwNTEzNiA0NC4wNDcgLTAuMjgzMDU1IDQ0LjM5MjUgMC4yMDI4MTYgNDYuMDQ0MloiIGNsaXAtcnVsZT0iZXZlbm9kZCIgZmlsbC1ydWxlPSJldmVub2RkIi8+PHBhdGggZmlsbD0iIzAyMEE0NyIgZD0iTTM3LjQzMTUgMC44NjU0MjFMMC45NTg4MzMgMzQuNjIyNkMwLjM3MzY5MyAzNS4xNzk2IDAuMDMwMTUwMiAzNS45NDM2IDAuMDAxODkxNjMgMzYuNzUwOUMtMC4wMjYzNjY5IDM3LjU1ODEgMC4yNjI5MDkgMzguMzQ0MyAwLjgwNzY3MyAzOC45NDA4TDE5LjA0NCA1OC42NjRDMTkuNjA2IDU5LjI2MDEgMjAuMzgwNiA1OS42MTAzIDIxLjE5OTQgNTkuNjM4NkMyMi4wMTgyIDU5LjY2NjkgMjIuODE1MSA1OS4zNzEgMjMuNDE2OSA1OC44MTUxTDU5Ljg3ODggMjUuMDAzOUM2MC40NjkgMjQuNDQ5OSA2MC44MTYxIDIzLjY4NDkgNjAuODQ0NSAyMi44NzZDNjAuODcyOCAyMi4wNjcgNjAuNTggMjEuMjc5NyA2MC4wMjk5IDIwLjY4NThMNDEuODI2IDAuOTczMzc1QzQxLjU0NiAwLjY3NTM4NyA0MS4yMDk1IDAuNDM1OTc3IDQwLjgzNjIgMC4yNjkwNDNDNDAuNDYyOSAwLjEwMjEwOCA0MC4wNjAyIDAuMDEwOTc0NyAzOS42NTEzIDAuMDAwOTMxNTdDMzkuMjQyNSAtMC4wMDkxMTE1OSAzOC44MzU4IDAuMDYyMTM2MiAzOC40NTQ3IDAuMjEwNTM5QzM4LjA3MzYgMC4zNTg5NDEgMzcuNzI1OSAwLjU4MTU0MiAzNy40MzE1IDAuODY1NDIxWiIgY2xpcC1ydWxlPSJldmVub2RkIiBmaWxsLXJ1bGU9ImV2ZW5vZGQiLz48cGF0aCBmaWxsPSIjMDIwQTQ3IiBkPSJNNzIuNjg0MyA3Ny4yODYyQzc0LjM0NzEgNzcuNzM5NiA3NS4zOTQ0IDc2Ljg0MzYgNzQuOTUxNyA3NS4xMjcxTDY0LjQwMjkgMjkuNDYyNkM2My45NDk1IDI3LjgxMDkgNjIuNTg5IDI3LjM1NzUgNjEuMzkwNSAyOC41NTU4TDI3LjAzNDEgNjAuNDY3QzI1LjgyNDggNjEuNjY1MiAyNi4xMjcxIDYzLjAxNDcgMjcuNzc5MSA2My40NjgxTDcyLjY4NDMgNzcuMjg2MloiIGNsaXAtcnVsZT0iZXZlbm9kZCIgZmlsbC1ydWxlPSJldmVub2RkIi8+PHBhdGggZmlsbD0iIzAyMEE0NyIgZD0iTTkwLjYxODEgMTMuNTkzNEw0OS4wMjc1IDAuODY1NTkyQzQ3LjM3NTYgMC40MTIxODYgNDcuMDczMyAxLjAxNjczIDQ4LjQyMjkgMi4zNjYxNUw2My42NDY5IDE4Ljc0MjhDNjQuMzI5OCAxOS4zODExIDY1LjE1NTggMTkuODQ2NSA2Ni4wNTU2IDIwLjFDNjYuOTU1NCAyMC4zNTM2IDY3LjkwMjkgMjAuMzg3OSA2OC44MTg3IDIwLjIwMDFMOTAuNjcyMSAxNS4yNDUxQzkyLjI4MDkgMTQuNzkxNyA5Mi4yODA5IDE0LjAzNiA5MC42MTgxIDEzLjU5MzRaIiBjbGlwLXJ1bGU9ImV2ZW5vZGQiIGZpbGwtcnVsZT0iZXZlbm9kZCIvPjxwYXRoIGZpbGw9IiMwMjBBNDciIGQ9Ik02ODAuODMxIDMzLjIwNjZDNjc4LjU3NCAzMy4yMDY2IDY3Ni41MjggMzIuNjcxMiA2NzQuNjkyIDMxLjYwMDJDNjcyLjg1NiAzMC41MjkzIDY3MS40MDMgMjkuMDc1OSA2NzAuMzMyIDI3LjI0QzY2OS4yNjEgMjUuNDA0MiA2NjguNzI2IDIzLjM1NzkgNjY4LjcyNiAyMS4xMDE0QzY2OC43MjYgMTguODQ0OCA2NjkuMjYxIDE2Ljc5ODUgNjcwLjMzMiAxNC45NjI3QzY3MS40MDMgMTMuMTI2OCA2NzIuODU2IDExLjY3MzQgNjc0LjY5MiAxMC42MDI1QzY3Ni41MjggOS41MzE1NiA2NzguNTc0IDguOTk2MDkgNjgwLjgzMSA4Ljk5NjA5QzY4My4xMjYgOC45OTYwOSA2ODUuMTcyIDkuNTMxNTYgNjg2Ljk3IDEwLjYwMjVDNjg4LjgwNSAxMS42NzM0IDY5MC4yNTkgMTMuMTI2OCA2OTEuMzMgMTQuOTYyN0M2OTIuNDAxIDE2Ljc5ODUgNjkyLjkzNiAxOC44NDQ4IDY5Mi45MzYgMjEuMTAxNEM2OTIuOTM2IDIzLjM1NzkgNjkyLjQwMSAyNS40MDQyIDY5MS4zMyAyNy4yNEM2OTAuMjU5IDI5LjA3NTkgNjg4LjgwNSAzMC41MjkzIDY4Ni45NyAzMS42MDAyQzY4NS4xNzIgMzIuNjcxMiA2ODMuMTI2IDMzLjIwNjYgNjgwLjgzMSAzMy4yMDY2Wk02ODAuODMxIDMxLjA4MzlDNjgyLjcwNSAzMS4wODM5IDY4NC4zNjkgMzAuNjQ0MSA2ODUuODIyIDI5Ljc2NDRDNjg3LjMxNCAyOC44ODQ3IDY4OC40OTkgMjcuNjk5IDY4OS4zNzkgMjYuMjA3NEM2OTAuMjU5IDI0LjY3NzUgNjkwLjY5OSAyMi45NzU1IDY5MC42OTkgMjEuMTAxNEM2OTAuNjk5IDE5LjIyNzIgNjkwLjI1OSAxNy41NDQ0IDY4OS4zNzkgMTYuMDUyN0M2ODguNDk5IDE0LjUyMjggNjg3LjMxNCAxMy4zMTggNjg1LjgyMiAxMi40MzgzQzY4NC4zNjkgMTEuNTU4NyA2ODIuNzA1IDExLjExODggNjgwLjgzMSAxMS4xMTg4QzY3OC45OTUgMTEuMTE4OCA2NzcuMzMxIDExLjU1ODcgNjc1Ljg0IDEyLjQzODNDNjc0LjM0OCAxMy4zMTggNjczLjE2MiAxNC41MjI4IDY3Mi4yODMgMTYuMDUyN0M2NzEuNDAzIDE3LjU0NDQgNjcwLjk2MyAxOS4yMjcyIDY3MC45NjMgMjEuMTAxNEM2NzAuOTYzIDIyLjk3NTUgNjcxLjQwMyAyNC42Nzc1IDY3Mi4yODMgMjYuMjA3NEM2NzMuMTYyIDI3LjY5OSA2NzQuMzQ4IDI4Ljg4NDcgNjc1Ljg0IDI5Ljc2NDRDNjc3LjMzMSAzMC42NDQxIDY3OC45OTUgMzEuMDgzOSA2ODAuODMxIDMxLjA4MzlaTTY3Ni43NTggMjYuNjA5VjE1LjAySDY4MC42NTlDNjgyLjExMiAxNS4wMiA2ODMuMjIxIDE1LjM0NTEgNjgzLjk4NiAxNS45OTUzQzY4NC43ODkgMTYuNjQ1NSA2ODUuMTkxIDE3LjU0NDQgNjg1LjE5MSAxOC42OTE4QzY4NS4xOTEgMTkuNDE4NSA2ODUuMDE5IDIwLjA4NzggNjg0LjY3NSAyMC42OTk4QzY4NC4zMyAyMS4yNzM1IDY4My44MTQgMjEuNzEzMyA2ODMuMTI2IDIyLjAxOTNMNjg1Ljk5NCAyNi42MDlINjgzLjU4NUw2ODEuMDYgMjIuNDIwOUg2NzguODIzVjI2LjYwOUg2NzYuNzU4Wk02ODAuNDg3IDE2Ljg1NTlINjc4LjgyM1YyMC41ODVINjgwLjQyOUM2ODEuMzg1IDIwLjU4NSA2ODIuMDU1IDIwLjQzMiA2ODIuNDM3IDIwLjEyNjFDNjgyLjgyIDE5LjgyMDEgNjgzLjAxMSAxOS4zNDIgNjgzLjAxMSAxOC42OTE4QzY4My4wMTEgMTcuNDY3OSA2ODIuMTY5IDE2Ljg1NTkgNjgwLjQ4NyAxNi44NTU5WiIvPjwvc3ZnPg==;" parent="131" vertex="1">
                    <mxGeometry x="16.18" y="44" width="226.64" height="37.48" as="geometry"/>
                </mxCell>
                <mxCell id="135" value="" style="shape=image;verticalLabelPosition=bottom;labelBackgroundColor=default;verticalAlign=top;aspect=fixed;imageAspect=0;image=data:image/svg+xml,PHN2ZyB4bWxuczp4bGluaz0iaHR0cDovL3d3dy53My5vcmcvMTk5OS94bGluayIgeG1sbnM9Imh0dHA6Ly93d3cudzMub3JnLzIwMDAvc3ZnIiBoZWlnaHQ9IjEyOCIgd2lkdGg9IjEyOCIgdmVyc2lvbj0iMS4xIiB2aWV3Qm94PSIwIDAgMTAyNCAxMDI0IiBjbGFzcz0iaWNvbiI+PHBhdGggZmlsbD0iIzEzMjI3YSIgZD0iTTY5OS45NDY2NjcgMjQyLjE3NmMtNC45MDY2NjcgMC04LjIzNDY2NyAwLjU5NzMzMy0xMS42OTA2NjcgMS40MDh2MC41NTQ2NjdoMC41OTczMzNjMi4zMDQgNC40MzczMzMgNi4yMjkzMzMgNy42OCA5LjEzMDY2NyAxMS42NDggMi4zMDQgNC41NjUzMzMgNC4yNjY2NjcgOS4xMzA2NjcgNi41NzA2NjcgMTMuNjUzMzMzbDAuNTk3MzMzLTAuNjRjNC4wMTA2NjctMi44MTYgNS45NzMzMzMtNy4zMzg2NjcgNS45NzMzMzMtMTQuMjA4LTEuNzA2NjY3LTIuMDA1MzMzLTEuOTYyNjY3LTQuMDEwNjY3LTMuNDEzMzMzLTUuOTczMzMzLTEuNzA2NjY3LTIuODU4NjY3LTUuMzc2LTQuMjY2NjY3LTcuNjgtNi41Mjh6TTI0Ni4xODY2NjcgODA1LjEyaC0zOS41NTJhMjE2OS43NzA2NjcgMjE2OS43NzA2NjcgMCAwIDAtMTEuNTItMTg4LjE2aC0wLjM0MTMzNGwtNjAuMTYgMTg4LjE2SDEwNC41MzMzMzNsLTU5LjczMzMzMy0xODguMTZoLTAuNDI2NjY3YTMxMTAuMDU4NjY3IDMxMTAuMDU4NjY3IDAgMCAwLTguMzIgMTg4LjE2SDBjMi4zNDY2NjctODMuODgyNjY3IDguMTkyLTE2Mi41NiAxNy40OTMzMzMtMjM1Ljk0NjY2N2g0OS4wNjY2NjdsNTYuOTYgMTczLjM5NzMzNGgwLjM0MTMzM0wxODEuMzMzMzMzIDU2OS4xNzMzMzNoNDYuNzJjMTAuMzI1MzMzIDg1Ljk3MzMzMyAxNi4zODQgMTY0LjY5MzMzMyAxOC4yNjEzMzQgMjM1Ljk0NjY2N3ogbTE3MS4zOTItMTc0LjA4Yy0xNi4xMjggODcuMjUzMzMzLTM3LjM3NiAxNTAuNzQxMzMzLTYzLjY1ODY2NyAxOTAuMjkzMzMzLTIwLjU2NTMzMyAzMC41NDkzMzMtNDMuMDkzMzMzIDQ1Ljc4MTMzMy02Ny41NDEzMzMgNDUuNzgxMzM0LTYuNTI4IDAtMTQuNTA2NjY3LTEuOTYyNjY3LTI0LjE0OTMzNC01Ljg4OHYtMjEuMDc3MzM0YzQuNjkzMzMzIDAuNzI1MzMzIDEwLjI0IDEuMTA5MzMzIDE2LjQ2OTMzNCAxLjEwOTMzNCAxMS40MzQ2NjcgMCAyMC42MDgtMy4yIDI3LjYwNTMzMy05LjQ3MiA4LjQwNTMzMy03LjY4IDEyLjU4NjY2Ny0xNi4yOTg2NjcgMTIuNTg2NjY3LTI1LjgxMzMzNCAwLTYuNjEzMzMzLTMuMjg1MzMzLTIwLjA1MzMzMy05LjgxMzMzNC00MC4yNzczMzNMMjY1LjgxMzMzMyA2MzEuMDRoMzguODI2NjY3bDMxLjAxODY2NyAxMDAuNjkzMzMzYzYuOTk3MzMzIDIyLjg2OTMzMyA5Ljk0MTMzMyAzOC44MjY2NjcgOC43NDY2NjYgNDcuOTE0NjY3IDE3LjA2NjY2Ny00NS4zOTczMzMgMjguOTI4LTk1LjAxODY2NyAzNS42MjY2NjctMTQ4LjYwOGgzNy41NDY2Njd6IG01MjUuODY2NjY2IDE3NC4wOGgtMTEyLjIxMzMzM3YtMjM1Ljk0NjY2N2gzNy43NnYyMDYuOTMzMzM0aDc0LjQ1MzMzM3ogbS0xNDEuNjUzMzMzIDUuNzZsLTQzLjM0OTMzMy0yMS4zMzMzMzNjMy44NC0zLjI0MjY2NyA3LjU1Mi02Ljc0MTMzMyAxMC44OC0xMC42NjY2NjcgMTguNDc0NjY3LTIxLjU4OTMzMyAyNy42NDgtNTMuNjc0NjY3IDI3LjY0OC05Ni4xMjggMC03OC4wOC0zMC42MzQ2NjctMTE3LjE2MjY2Ny05MS45NDY2NjctMTE3LjE2MjY2Ny0zMC4wMzczMzMgMC01My41MDQgOS44OTg2NjctNzAuNCAyOS43Mzg2NjctMTguMzQ2NjY3IDIxLjY3NDY2Ny0yNy41NjI2NjcgNTMuNTg5MzMzLTI3LjU2MjY2NyA5NS43ODY2NjcgMCA0MS40NzIgOC4xMDY2NjcgNzEuOTM2IDI0LjQ5MDY2NyA5MS4zMDY2NjYgMTQuOTMzMzMzIDE3LjQ5MzMzMyAzNy40MTg2NjcgMjYuMjQgNjcuNTQxMzMzIDI2LjI0IDExLjI2NCAwIDIxLjU4OTMzMy0xLjQwOCAzMC45MzMzMzQtNC4xODEzMzNsNTYuNTMzMzMzIDMyLjkzODY2NyAxNS4zNi0yNi41Mzg2Njd6TTY2MS4zMzMzMzMgNzU3Ljg4OGMtOS42LTE1LjM2LTE0LjM3ODY2Ny00MC4xMDY2NjctMTQuMzc4NjY2LTc0LjA2OTMzMyAwLTU5LjQzNDY2NyAxOC4wOTA2NjctODkuMTczMzMzIDU0LjE4NjY2Ni04OS4xNzMzMzQgMTguOTAxMzMzIDAgMzIuODUzMzMzIDcuMTI1MzMzIDQxLjY4NTMzNCAyMS4zMzMzMzQgOS41NTczMzMgMTUuNDQ1MzMzIDE0LjMzNiAzOS45MzYgMTQuMzM2IDczLjUxNDY2NiAwIDU5LjkwNC0xOC4wOTA2NjcgODkuOTQxMzMzLTU0LjE4NjY2NyA4OS45NDEzMzQtMTguOTg2NjY3IDAtMzIuODUzMzMzLTcuMTI1MzMzLTQxLjcyOC0yMS4zMzMzMzR6IG0tNzAuNzQxMzMzLTE4LjEzMzMzM2MwIDIwLjA1MzMzMy03LjMzODY2NyAzNi41MjI2NjctMjIuMDE2IDQ5LjMyMjY2NnMtMzQuMjYxMzMzIDE5LjItNTkuMDUwNjY3IDE5LjJjLTIzLjE2OCAwLTQ1LjM5NzMzMy03LjMzODY2Ny02Ny4xMTQ2NjYtMjEuOTczMzMzbDEwLjExMi0yMC4zMDkzMzNjMTguNjg4IDkuMzg2NjY3IDM1LjU0MTMzMyAxMy45OTQ2NjcgNTAuNzczMzMzIDEzLjk5NDY2NiAxNC4xNjUzMzMgMCAyNS4zMDEzMzMtMy4xMTQ2NjcgMzMuNDA4LTkuMzg2NjY2YTMyLjE3MDY2NyAzMi4xNzA2NjcgMCAwIDAgMTIuOC0yNi4yNGMwLTE0LjA4LTkuODEzMzMzLTI2LjAyNjY2Ny0yNy42NDgtMzYuMDUzMzM0LTE2LjU1NDY2Ny05LjA4OC00OS42MjEzMzMtMjguMDMyLTQ5LjYyMTMzMy0yOC4wMzItMTguMDA1MzMzLTEzLjA5ODY2Ny0yNi45NjUzMzMtMjcuMTM2LTI2Ljk2NTMzNC01MC4yMTg2NjYgMC0xOS4yIDYuNjk4NjY3LTM0LjU2IDIwLjA1MzMzNC00Ni4yOTMzMzQgMTMuNDQtMTEuODYxMzMzIDMwLjcyLTE3LjcwNjY2NyA1Mi4wNTMzMzMtMTcuNzA2NjY2IDIxLjg0NTMzMyAwIDQxLjgxMzMzMyA1LjgwMjY2NyA1OS43MzMzMzMgMTcuNDkzMzMzbC05LjA4OCAyMC4zMDkzMzNhMTE2LjMwOTMzMyAxMTYuMzA5MzMzIDAgMCAwLTQ1LjM5NzMzMy05LjgxMzMzM2MtMTIuMDc0NjY3IDAtMjEuNDE4NjY3IDIuOTAxMzMzLTI3LjkwNCA4Ljc4OTMzM2EyOS4yMjY2NjcgMjkuMjI2NjY3IDAgMCAwLTEwLjU4MTMzMyAyMi4zNTczMzRjMCAxMy45OTQ2NjcgOS45ODQgMjYuMDI2NjY3IDI4LjQxNiAzNi4yNjY2NjYgMTYuNzY4IDkuMTczMzMzIDUwLjY0NTMzMyAyOC41ODY2NjcgNTAuNjQ1MzMzIDI4LjU4NjY2NyAxOC40NzQ2NjcgMTMuMDEzMzMzIDI3LjY0OCAyNi44OCAyNy42NDggNDkuODM0NjY3eiIvPjxwYXRoIGZpbGw9IiMxMzIyN2EiIGQ9Ik05OTAuODkwNjY3IDQ5MC4wNjkzMzNjLTIyLjgyNjY2Ny0wLjU5NzMzMy00MC41MzMzMzMgMS43MDY2NjctNTUuMzM4NjY3IDguMDIxMzM0LTQuMjY2NjY3IDEuNzA2NjY3LTExLjA5MzMzMyAxLjcwNjY2Ny0xMS42OTA2NjcgNy4xMjUzMzMgMi4zNDY2NjcgMi4yNjEzMzMgMi42ODggNS45NzMzMzMgNC42OTMzMzQgOS4xMzA2NjcgMy40MTMzMzMgNS43MTczMzMgOS4zMDEzMzMgMTMuMzU0NjY3IDE0Ljc2MjY2NiAxNy4zNjUzMzMgNS45NzMzMzMgNC42OTMzMzMgMTEuOTQ2NjY3IDkuMjE2IDE4LjIxODY2NyAxMy4yMjY2NjcgMTEuMDkzMzMzIDYuODI2NjY3IDIzLjY4IDEwLjg4IDM0LjU2IDE3Ljc0OTMzMyA2LjE4NjY2NyA0LjAxMDY2NyAxMi41MDEzMzMgOS4wODggMTguNzczMzMzIDEzLjM1NDY2NyAzLjExNDY2NyAyLjEzMzMzMyA1LjEyIDUuOTczMzMzIDkuMTMwNjY3IDcuMzM4NjY2di0wLjg1MzMzM2MtMS45NjI2NjctMi41Ni0yLjU2LTYuMjcyLTQuNDgtOS4xMzA2NjctMi44NTg2NjctMi44NTg2NjctNS43MTczMzMtNS40MTg2NjctOC41MzMzMzMtOC4yMzQ2NjZhMTM3LjUxNDY2NyAxMzcuNTE0NjY3IDAgMCAwLTI5LjY1MzMzNC0yOC44Yy05LjEzMDY2Ny02LjIyOTMzMy0yOS4wOTg2NjctMTQuOTMzMzMzLTMyLjg1MzMzMy0yNS4zODY2NjdsLTAuNTU0NjY3LTAuNTk3MzMzYzYuMjI5MzMzLTAuNTU0NjY3IDEzLjY1MzMzMy0yLjgxNiAxOS42MjY2NjctNC41MjI2NjcgOS42ODUzMzMtMi41NiAxOC41Ni0yLjAwNTMzMyAyOC41ODY2NjctNC41MjI2NjcgNC41MjI2NjctMS4xNTIgOS4wODgtMi41NiAxMy42NTMzMzMtNC4wMTA2NjZ2LTIuNTZjLTUuMTItNS4xMi04Ljk2LTEyLjA3NDY2Ny0xNC4yNTA2NjctMTYuODUzMzM0YTM3OC4zMjUzMzMgMzc4LjMyNTMzMyAwIDAgMC00Ny4xMDQtMzUuMTE0NjY2Yy04Ljk2LTUuNzE3MzMzLTIwLjMwOTMzMy05LjM4NjY2Ny0yOS43Mzg2NjYtMTQuMjUwNjY3LTMuNDEzMzMzLTEuNzA2NjY3LTkuMTMwNjY3LTIuNTYtMTEuMDkzMzM0LTUuNDE4NjY3LTUuMTItNi4yMjkzMzMtOC4xMDY2NjctMTQuNTA2NjY3LTExLjczMzMzMy0yMS45MzA2NjZhNzU0Ljc3MzMzMyA3NTQuNzczMzMzIDAgMCAxLTIzLjMzODY2Ny00OS42MjEzMzRjLTUuMTItMTEuMTc4NjY3LTguMjM0NjY3LTIyLjMxNDY2Ny0xNC41MDY2NjYtMzIuNTU0NjY2LTI5LjQ0LTQ4LjUxMi02MS4zMTItNzcuOTA5MzMzLTExMC4zMzYtMTA2LjY2NjY2Ny0xMC41Mzg2NjctNS45NzMzMzMtMjMuMTY4LTguNTMzMzMzLTM2LjUyMjY2Ny0xMS42OTA2NjctNy4xMjUzMzMtMC4zNDEzMzMtMTQuMjUwNjY3LTAuODUzMzMzLTIxLjMzMzMzMy0xLjE1Mi00LjY5MzMzMy0yLjAwNTMzMy05LjIxNi03LjQyNC0xMy4yMjY2NjctMTAuMDI2NjY2LTE2LjIxMzMzMy0xMC4yNC01OC4xOTczMzMtMzIuNDI2NjY3LTcwLjE0NC0zLjA3Mi03LjY4IDE4LjUxNzMzMyAxMS4zOTIgMzYuNzc4NjY3IDE4LjAwNTMzMyA0Ni4xNjUzMzMgNC45MDY2NjcgNi41MjggMTEuMDkzMzMzIDEzLjk5NDY2NyAxNC41MDY2NjcgMjEuMzMzMzMzIDIuMDA1MzMzIDQuOTQ5MzMzIDIuNTYgMTAuMDI2NjY3IDQuNTY1MzMzIDE1LjE4OTMzNCA0LjUyMjY2NyAxMi41NDQgOC44MzIgMjYuNTM4NjY3IDE0LjgwNTMzNCAzOC4yNzIgMy4xMTQ2NjcgNS45NzMzMzMgNi41MjggMTIuMjQ1MzMzIDEwLjUzODY2NiAxNy42MjEzMzMgMi4zMDQgMy4xMTQ2NjcgNi4yMjkzMzMgNC41NjUzMzMgNy4xMjUzMzQgOS42ODUzMzMtNC4wMTA2NjcgNS44MDI2NjctNC4yNjY2NjcgMTQuMjUwNjY3LTYuNTcwNjY3IDIxLjMzMzMzNC0xMC4yNCAzMi4yOTg2NjctNi4yMjkzMzMgNzIuMjM0NjY3IDguMjc3MzMzIDk2IDQuNTY1MzMzIDcuMDgyNjY3IDE1LjQ0NTMzMyAyMi43ODQgMjkuOTk0NjY3IDE2Ljc2OCAxMi44LTUuMTIgOS45ODQtMjEuMzMzMzMzIDEzLjY1MzMzMy0zNS42MjY2NjcgMC44NTMzMzMtMy40MTMzMzMgMC4yOTg2NjctNS42NzQ2NjcgMi4wNDgtNy45Nzg2Njd2MC42NGM0LjAxMDY2NyA4LjAyMTMzMyA4LjAyMTMzMyAxNS42NTg2NjcgMTEuNjkwNjY3IDIzLjY4IDguNzg5MzMzIDEzLjk5NDY2NyAyNC4xNDkzMzMgMjguNTAxMzMzIDM2Ljk5MiAzOC4xODY2NjcgNi44MjY2NjcgNS4xMiAxMi4yNDUzMzMgMTMuOTk0NjY3IDIwLjc3ODY2NyAxNy4xNTJ2LTAuODUzMzMzaC0wLjY0Yy0xLjgzNDY2Ny0yLjQ3NDY2Ny00LjI2NjY2Ny0zLjY2OTMzMy02LjU3MDY2Ny01LjY3NDY2N2ExNDYuOTg2NjY3IDE0Ni45ODY2NjcgMCAwIDEtMTQuOTMzMzMzLTE3LjA2NjY2NyAzNzMuNzYgMzczLjc2IDAgMCAxLTMxLjg3Mi01MS45NjhjLTQuNjkzMzMzLTguOTYtOC42MTg2NjctMTguNjAyNjY3LTEyLjM3MzMzNC0yNy40MzQ2NjYtMS43MDY2NjctMy40MTMzMzMtMS43MDY2NjctOC41MzMzMzMtNC41NjUzMzMtMTAuMjQtNC4yNjY2NjcgNi4yMjkzMzMtMTAuNTM4NjY3IDExLjY0OC0xMy42NTMzMzMgMTkuMzI4LTUuNDE4NjY3IDEyLjI4OC01Ljk3MzMzMyAyNy4zOTItOC4wMjEzMzQgNDMuMDkzMzMzLTEuMTUyIDAuMjk4NjY3LTAuNTk3MzMzIDAtMS4xNTIgMC41OTczMzMtOS4xMzA2NjctMi4yMTg2NjctMTIuMjQ1MzMzLTExLjY5MDY2Ny0xNS42NTg2NjYtMTkuNjI2NjY2LTguNTMzMzMzLTIwLjI2NjY2Ny05Ljk0MTMzMy01Mi44MjEzMzMtMi41Ni03Ni4xNiAyLjAwNTMzMy01Ljk3MzMzMyAxMC41Mzg2NjctMjQuODMyIDcuMTI1MzMzLTMwLjU0OTMzNC0xLjc5Mi01LjQxODY2Ny03LjQyNC04LjUzMzMzMy0xMC41Mzg2NjctMTIuOTI4YTEwNS43MjggMTA1LjcyOCAwIDAgMS0xMC4yNC0xOC4yMTg2NjZjLTYuODI2NjY3LTE1Ljk1NzMzMy0xMC4yNC0zMy42MjEzMzMtMTcuNjY0LTQ5LjU3ODY2Ny0zLjQxMzMzMy03LjM4MTMzMy05LjM4NjY2Ny0xNS4xMDQtMTQuMjUwNjY2LTIxLjg4OC01LjQxODY2Ny03LjY4LTExLjM5Mi0xMy4wOTg2NjctMTUuNzAxMzM0LTIyLjE4NjY2Ny0xLjQwOC0zLjExNDY2Ny0zLjQxMzMzMy04LjI3NzMzMy0xLjE1Mi0xMS42OTA2NjYgMC41OTczMzMtMi4zMDQgMS43OTItMy4yIDQuMDEwNjY3LTMuODQgMy43NTQ2NjctMy4wNzIgMTQuMjkzMzMzIDAuOTM4NjY3IDE4LjAwNTMzMyAyLjY0NTMzMyAxMC41Mzg2NjcgNC4yNjY2NjcgMTkuNDEzMzMzIDguMjc3MzMzIDI4LjI0NTMzNCAxNC4yNTA2NjcgNC4wMTA2NjcgMi44MTYgOC4zMiA4LjIzNDY2NyAxMy40NCA5LjY0MjY2Nmg1Ljk3MzMzM2M5LjEzMDY2NyAyLjAwNTMzMyAxOS40MTMzMzMgMC41OTczMzMgMjcuOTQ2NjY3IDMuMTE0NjY3IDE1LjE0NjY2NyA0Ljg2NCAyOC44IDExLjk0NjY2NyA0MS4wNDUzMzMgMTkuNjI2NjY3YTI1My45OTQ2NjcgMjUzLjk5NDY2NyAwIDAgMSA4OC45NiA5Ny41MzZjMy40MTMzMzMgNi41NzA2NjcgNC45MDY2NjcgMTIuNTg2NjY3IDguMDIxMzMzIDE5LjQxMzMzMyA1Ljk3MzMzMyAxNC4wOCAxMy4zNTQ2NjcgMjguMjg4IDE5LjQxMzMzNCA0MS44OTg2NjcgNS45NzMzMzMgMTMuNDQgMTEuNzMzMzMzIDI3LjEzNiAyMC4zMDkzMzMgMzguMjcyIDQuMjY2NjY3IDUuOTczMzMzIDIxLjQxODY2NyA5LjA4OCAyOS4wOTg2NjcgMTIuMjAyNjY2IDUuNjc0NjY3IDIuNTYgMTQuNTA2NjY3IDQuOTA2NjY3IDE5LjYyNjY2NiA4LjAyMTMzNCA5LjgxMzMzMyA1Ljk3MzMzMyAxOS4zNzA2NjcgMTIuOCAyOC41ODY2NjcgMTkuMzcwNjY2IDQuNjkzMzMzIDMuMjQyNjY3IDE4LjkwMTMzMyAxMC4zNjggMTkuNzU0NjY3IDE2LjEyOHoiLz48L3N2Zz4=;" parent="131" vertex="1">
                    <mxGeometry x="39.5" y="142.75" width="81.5" height="81.5" as="geometry"/>
                </mxCell>
                <mxCell id="136" value="" style="shape=image;verticalLabelPosition=bottom;labelBackgroundColor=default;verticalAlign=top;aspect=fixed;imageAspect=0;image=data:image/svg+xml,PHN2ZyB4bWxuczp4bGluaz0iaHR0cDovL3d3dy53My5vcmcvMTk5OS94bGluayIgeG1sbnM9Imh0dHA6Ly93d3cudzMub3JnLzIwMDAvc3ZnIiBoZWlnaHQ9IjEyOCIgd2lkdGg9IjEyOCIgdmVyc2lvbj0iMS4xIiB2aWV3Qm94PSIwIDAgMTAyNCAxMDI0IiBjbGFzcz0iaWNvbiI+PHBhdGggZD0iTTkzMC41NjQxNTgzOSA1NzkuMTI5NTY5MTRjLTE0LjMwNTY5MzM2LTEyLjI2MjAyMjc2LTMyLjY5ODcyNzkzLTE0LjMwNTY5MzM2LTUxLjA5MTc2MzM3LTguMTc0NjgxNTQtMTQuMzA1NjkzMzYgNC4wODczNDEyMS0zMC42NTUwNTczMiA2LjEzMTAxMTgyLTQ0Ljk2MDc1MTU2IDYuMTMxMDEwOTQgNDAuODczNDEwMzUtNjcuNDQxMTI3MzQgNzEuNTI4NDY3NjgtMTQxLjAxMzI2NTYzIDkxLjk2NTE3MzczLTIxOC42NzI3NDQyNCAxMC4yMTgzNTIxNC0zNC43NDIzOTg1NCAxNi4zNDkzNjM5Ni03MS41Mjg0Njc2OCAxNi4zNDkzNjM5Ni0xMTAuMzU4MjA4MzEgNC4wODczNDEyMS0zMC42NTUwNTczMi00LjA4NzM0MTIxLTYxLjMxMDExNTUyLTIyLjQ4MDM3NTc4LTg1LjgzNDE2MTAyLTUxLjA5MTc2MjUtNjUuMzk3NDU2NzQtMTMwLjc5NDkxMjYtMTAyLjE4MzUyNTg4LTIxMi41NDE3MzMzLTEwMC4xMzk4NTUyOGgtNi4xMzEwMTE4MWMtMzQuNzQyMzk4NTQgMC02OS40ODQ3OTcwNyA2LjEzMTAxMTgyLTEwMi4xODM1MjU4OCAxNC4zMDU2OTMzNmgtMi4wNDM2NzA2MWMtMjAuNDM2NzA1MTgtNC4wODczNDEyMS00Mi45MTcwODA5Ni02LjEzMTAxMTgyLTYzLjM1Mzc4NTI1LTYuMTMxMDExODItMzguODI5NzM5NzQtMi4wNDM2NzA2LTc5LjcwMzE1MDEgOC4xNzQ2ODI0Mi0xMTQuNDQ1NTQ4NjQgMjguNjExMzg3Ni00OS4wNDgwOTI3Ny0xOC4zOTMwMzQ1Ny0xMDQuMjI3MTk2NDgtMjYuNTY3NzE3LTE1Ny4zNjI2Mjk1OS0yNC41MjQwNDYzOS00OS4wNDgwOTI3NyAwLTk4LjA5NjE4NDY3IDIwLjQzNjcwNTE4LTEzMi44Mzg1ODQwOCA1NS4xNzkxMDM3MS0zNi43ODYwNjkxNCAzOC44Mjk3Mzk3NC01NS4xNzkxMDM3MSA5OC4wOTYxODQ2Ny01My4xMzU0MzMxMSAxODEuODg2Njc1OTggNC4wODczNDEyMSAzNi43ODYwNjkxNCAxMC4yMTgzNTIxNCA3My41NzIxMzgyOCAxOC4zOTMwMzQ1OCAxMDguMzE0NTM2ODEgMTIuMjYyMDIyNzYgNTMuMTM1NDMzMSAyNi41Njc3MTcgMTA0LjIyNzE5NjQ4IDQ0Ljk2MDc1MTU2IDE1NS4zMTg5NTg5OCAxNC4zMDU2OTMzNiA0Ny4wMDQ0MjIxNyAzOC44Mjk3Mzk3NCA5MS45NjUxNzI4NiA3MS41Mjg0Njc2NyAxMjguNzUxMjQyODggMTYuMzQ5MzYzOTYgMTYuMzQ5MzYzOTYgMzguODI5NzM5NzQgMjYuNTY3NzE3IDYzLjM1Mzc4NjE0IDI4LjYxMTM4NjcyIDE4LjM5MzAzNDU3IDAgMzQuNzQyMzk4NTQtOC4xNzQ2ODI0MiA0OS4wNDgwOTE4OS0yMC40MzY3MDQzIDEyLjI2MjAyMjc2IDE0LjMwNTY5MzM2IDI4LjYxMTM4NzYgMjIuNDgwMzc1NzggNDcuMDA0NDIyMTcgMjYuNTY3NzE2MTIgMjQuNTI0MDQ2MzggNi4xMzEwMTE4MiA0OS4wNDgwOTI3NyA4LjE3NDY4MjQyIDczLjU3MjEzODI4IDQuMDg3MzQxMjEgMTIuMjYyMDIyNzYtMi4wNDM2NzA2IDIyLjQ4MDM3NTc4LTYuMTMxMDExODIgMzIuNjk4NzI4ODEtMTAuMjE4MzUzMDMgMCAxMi4yNjIwMjI3NiAwIDI0LjUyNDA0NjM4IDIuMDQzNjcwNiAzNi43ODYwNzAwMi0yLjA0MzY3MDYgMzYuNzg2MDY5MTQgNC4wODczNDEyMSA3MS41Mjg0Njc2OCAxNC4zMDU2OTMzNiAxMDYuMjcwODY2MjEgNC4wODczNDEyMSAyMC40MzY3MDUxOCAxNC4zMDU2OTMzNiAzOC44Mjk3Mzk3NCAyOC42MTEzODY3MiA1NS4xNzkxMDM3MiAyOC42MTEzODc2IDI2LjU2NzcxNyA2Ny40NDExMjczNCAzNi43ODYwNjkxNCAxMDQuMjI3MTk2NDggMjguNjExMzg3NTkgMzguODI5NzM5NzQtNi4xMzEwMTE4MiA3NS42MTU4MDg4OC0yNi41Njc3MTcgOTguMDk2MTg0NjgtNTcuMjIyNzc0MzEgMjYuNTY3NzE3LTM2Ljc4NjA2OTE0IDM4LjgyOTczOTc0LTkxLjk2NTE3Mjg2IDQwLjg3MzQxMDM0LTE3OS44NDMwMDUzOCAwLTQuMDg3MzQxMjEgMi4wNDM2NzA2LTguMTc0NjgyNDIgMi4wNDM2NzA2MS0xMi4yNjIwMjI3NWg2LjEzMTAxMTgyYzM0Ljc0MjM5ODU0IDIuMDQzNjcwNiA2OS40ODQ3OTcwNy00LjA4NzM0MTIxIDEwMC4xMzk4NTQzOS0xNi4zNDkzNjQ4NCAyNC41MjQwNDYzOC0xMC4yMTgzNTIxNCA0Ny4wMDQ0MjIxNy0yNi41Njc3MTcgNjMuMzUzNzg2MTMtNDkuMDQ4MDkxOSA0LjA4NzM0MTIxLTguMTc0NjgyNDIgOC4xNzQ2ODI0Mi0xNi4zNDkzNjM5NiAxMC4yMTgzNTMwNC0yNC41MjQwNDYzOSAyLjA0MzY3MDYtMTYuMzQ5MzYzOTYtNC4wODczNDEyMS0zMC42NTUwNTczMi0xNi4zNDkzNjM5Ny00MC44NzM0MTAzNXogbS0xMi4yNjIwMjM2MiA0Ny4wMDQ0MjIxN2MtMTQuMzA1NjkzMzYgMTguMzkzMDM0NTctMzAuNjU1MDU3MzIgMzAuNjU1MDU3MzItNTMuMTM1NDMzMTEgMzguODI5NzM5NzUtMjQuNTI0MDQ2MzggMTAuMjE4MzUyMTQtNTEuMDkxNzYyNSAxNC4zMDU2OTMzNi03Ny42NTk0Nzk0OSAxNC4zMDU2OTMzNi0xMi4yNjIwMjI3NiAwLTI0LjUyNDA0NjM4LTIuMDQzNjcwNi0zNi43ODYwNjkxNC00LjA4NzM0MTIyLTYuMTMxMDExODIgNTEuMDkxNzYyNS0xMC4yMTgzNTIxNCAxMDIuMTgzNTI1ODgtMjAuNDM2NzA1MTcgMTUzLjI3NTI4OTI2LTIuMDQzNjcwNiAyNC41MjQwNDYzOC0xNC4zMDU2OTMzNiA0OS4wNDgwOTI3Ny0zMC42NTUwNTgyMSA2OS40ODQ3OTcwNy0yMC40MzY3MDUxOCAxOC4zOTMwMzQ1Ny00NC45NjA3NTE1NiAzMC42NTUwNTczMi03MS41Mjg0Njc2NyAzMi42OTg3Mjc5My0zMC42NTUwNTczMiA4LjE3NDY4MjQyLTYxLjMxMDExNTUyIDIuMDQzNjcwNi04NS44MzQxNjE5Mi0xNi4zNDkzNjM5Ny0xNC4zMDU2OTMzNi0xMi4yNjIwMjI3Ni0yNC41MjQwNDYzOC0zMC42NTUwNTczMi0zMi42OTg3Mjc5My00OS4wNDgwOTE4OS00LjA4NzM0MTIxLTEyLjI2MjAyMjc2LTYuMTMxMDExODItMjIuNDgwMzc1NzgtOC4xNzQ2ODI0Mi0zNC43NDIzOTk0MS0yLjA0MzY3MDYtMTguMzkzMDM0NTctNC4wODczNDEyMS0zNi43ODYwNjkxNC00LjA4NzM0MDMzLTUzLjEzNTQzMzExLTIuMDQzNjcwNi0zMi42OTg3Mjc5My0yLjA0MzY3MDYtNjMuMzUzNzg2MTQtMi4wNDM2NzA2MS05NC4wMDg4NDM0NS0xNi4zNDkzNjM5NiAxNC4zMDU2OTMzNi0zNi43ODYwNjkxNCAyNC41MjQwNDYzOC01Ny4yMjI3NzQzMiAyOC42MTEzODc2LTIwLjQzNjcwNTE4IDQuMDg3MzQxMjEtNDIuOTE3MDgwOTYgMi4wNDM2NzA2LTYzLjM1Mzc4NjEyLTQuMDg3MzQxMjItNi4xMzEwMTE4Mi0yLjA0MzY3MDYtMTIuMjYyMDIyNzYtNC4wODczNDEyMS0xOC4zOTMwMzQ1OC04LjE3NDY4MjQyLTguMTc0NjgyNDItMi4wNDM2NzA2LTEyLjI2MjAyMjc2LTguMTc0NjgyNDItMTYuMzQ5MzYzOTYtMTQuMzA1NjkzMzYtMi4wNDM2NzA2LTQuMDg3MzQxMjEtNC4wODczNDEyMS0xMC4yMTgzNTIxNC0yLjA0MzY3MDYxLTE0LjMwNTY5MzM2IDIuMDQzNjcwNi00LjA4NzM0MTIxIDQuMDg3MzQxMjEtMTAuMjE4MzUyMTQgOC4xNzQ2ODE1NS0xMi4yNjIwMjM2MyAxMC4yMTgzNTIxNC02LjEzMTAxMTgyIDIwLjQzNjcwNTE4LTEwLjIxODM1MjE0IDMyLjY5ODcyODgtMTIuMjYyMDIyNzYgMTQuMzA1NjkzMzYtMi4wNDM2NzA2IDI4LjYxMTM4NzYtNi4xMzEwMTE4MiA0Mi45MTcwODAwOC0xMi4yNjIwMjM2MyA4LjE3NDY4MjQyLTYuMTMxMDExODIgMTQuMzA1NjkzMzYtMTQuMzA1NjkzMzYgMjAuNDM2NzA1MTgtMjIuNDgwMzc0OXYtMi4wNDM2NzA2MWMtMTguMzkzMDM0NTcgMC0zNC43NDIzOTg1NC02LjEzMTAxMTgyLTUxLjA5MTc2MjUtMTIuMjYyMDIzNjMtNi4xMzEwMTE4MiA2LjEzMTAxMTgyLTMyLjY5ODcyNzkzIDM0Ljc0MjM5ODU0LTY5LjQ4NDc5NzA4IDc3LjY1OTQ3OTQ5LTEyLjI2MjAyMjc2IDE2LjM0OTM2Mzk2LTI4LjYxMTM4NzYgMjYuNTY3NzE3LTQ5LjA0ODA5Mjc3IDI4LjYxMTM4NzYtMTguMzkzMDM0NTcgMC0zNC43NDIzOTg1NC04LjE3NDY4MjQyLTQ3LjAwNDQyMjE2LTIwLjQzNjcwNTE3LTMwLjY1NTA1NzMyLTM0Ljc0MjM5ODU0LTUxLjA5MTc2MjUtNzUuNjE1ODA4ODgtNjUuMzk3NDU1ODYtMTE4LjUzMjg4OTg1LTE2LjM0OTM2Mzk2LTUzLjEzNTQzMzEtMzAuNjU1MDU3MzItMTA0LjIyNzE5NjQ4LTQwLjg3MzQxMDM2LTE1NS4zMTg5NTg5OC04LjE3NDY4MjQyLTM0Ljc0MjM5ODU0LTE0LjMwNTY5MzM2LTY3LjQ0MTEyNzM0LTE4LjM5MzAzNDU2LTEwMi4xODM1MjU4OC00LjA4NzM0MTIxLTc3LjY1OTQ3OTQ5IDE0LjMwNTY5MzM2LTEyOC43NTEyNDIgNDQuOTYwNzUwNjgtMTYxLjQ0OTk3MDgxIDMwLjY1NTA1NzMyLTMwLjY1NTA1NzMyIDcxLjUyODQ2NzY4LTQ3LjAwNDQyMjE3IDExNi40ODkyMjAxMS00OS4wNDgwOTE4OCA1NS4xNzkxMDM3MS0yLjA0MzY3MDYgMTEwLjM1ODIwNzQyIDguMTc0NjgyNDIgMTYxLjQ0OTk2OTkyIDI4LjYxMTM4NjcxIDMyLjY5ODcyNzkzLTIwLjQzNjcwNTE4IDY5LjQ4NDc5NzA3LTMwLjY1NTA1NzMyIDEwOC4zMTQ1Mzc3LTMwLjY1NTA1NzMzIDIwLjQzNjcwNTE4IDAgNDIuOTE3MDgwOTYgNC4wODczNDEyMSA2My4zNTM3ODYxMyA4LjE3NDY4MjQyIDguMTc0NjgyNDItNC4wODczNDEyMSAxOC4zOTMwMzQ1Ny02LjEzMTAxMTgyIDI4LjYxMTM4NjcyLTguMTc0NjgyNDIgMjYuNTY3NzE3LTYuMTMxMDExODIgNTEuMDkxNzYyNS04LjE3NDY4MjQyIDc3LjY1OTQ3OTUtMTAuMjE4MzUzMDIgNzcuNjU5NDc5NDktMi4wNDM2NzA2IDE1MS4yMzE2MTc3NyAzMC42NTUwNTczMiAyMDAuMjc5NzEwNTQgOTEuOTY1MTczNzMgMTIuMjYyMDIyNzYgMjAuNDM2NzA1MTggMTguMzkzMDM0NTcgNDcuMDA0NDIyMTcgMTYuMzQ5MzYzOTcgNzEuNTI4NDY3NjctMi4wNDM2NzA2IDM0Ljc0MjM5ODU0LTguMTc0NjgyNDIgNjkuNDg0Nzk3MDctMTYuMzQ5MzYzOTcgMTA0LjIyNzE5NjQ5LTIyLjQ4MDM3NTc4IDg1LjgzNDE2MTkxLTU5LjI2NjQ0NDkyIDE2Ny41ODA5ODE3NC0xMDguMzE0NTM3NyAyNDMuMTk2NzkwNjIgMi4wNDM2NzA2IDIuMDQzNjcwNiA0LjA4NzM0MTIxIDIuMDQzNjcwNiA2LjEzMTAxMTgyIDQuMDg3MzQxMjIgMjguNjExMzg3NiA2LjEzMTAxMTgyIDU3LjIyMjc3NDMyIDYuMTMxMDExODIgODUuODM0MTYxOTItMi4wNDM2NzA2MSAxMC4yMTgzNTIxNC00LjA4NzM0MTIxIDIyLjQ4MDM3NTc4LTIuMDQzNjcwNiAzMi42OTg3Mjc5MyAyLjA0MzY3MDYxIDQuMDg3MzQxMjEgNC4wODczNDEyMSA4LjE3NDY4MjQyIDEwLjIxODM1MjE0IDguMTc0NjgyNDIgMTYuMzQ5MzYzOTYtNi4xMzEwMTE4MiAwLTYuMTMxMDExODIgNi4xMzEwMTE4Mi04LjE3NDY4MjQyIDEwLjIxODM1MzAzeiIvPjxwYXRoIGZpbGw9IiMzMDYwOTIiIGQ9Ik03MDMuNzE2NzMwODYgMTExLjEyOTAyMTU4aC02LjEzMTAxMTgyYy0yMC40MzY3MDUxOCAwLTQyLjkxNzA4MDk2IDIuMDQzNjcwNi02My4zNTM3ODUyNSA4LjE3NDY4MjQzIDQwLjg3MzQxMDM1IDE4LjM5MzAzNDU3IDc3LjY1OTQ3OTQ5IDQ5LjA0ODA5Mjc3IDEwNi4yNzA4NjYyMSA4My43OTA0OTA0MiAxNi4zNDkzNjM5NiAyMi40ODAzNzU3OCAzMC42NTUwNTczMiA0NC45NjA3NTE1NiA0Mi45MTcwODA5NiA3MS41Mjg0Njg1NiA0LjA4NzM0MTIxIDEwLjIxODM1MjE0IDguMTc0NjgyNDIgMTguMzkzMDM0NTcgMTAuMjE4MzUyMTQgMjQuNTI0MDQ2MzggMCA0LjA4NzM0MTIxIDIuMDQzNjcwNiA2LjEzMTAxMTgyIDIuMDQzNjcwNjEgMTAuMjE4MzUyMTZ2Ni4xMzEwMTE4MWMyLjA0MzY3MDYgMzIuNjk4NzI3OTMtOC4xNzQ2ODI0MiA1My4xMzU0MzMxLTguMTc0NjgxNTQgODUuODM0MTYxMDMgMCAyMi40ODAzNzU3OCA2LjEzMTAxMTgyIDQ5LjA0ODA5Mjc3IDYuMTMxMDEwOTMgNzcuNjU5NDc5NSA0LjA4NzM0MTIxIDMwLjY1NTA1NzMyLTQuMDg3MzQxMjEgNjEuMzEwMTE1NTItMjAuNDM2NzA0MjkgODUuODM0MTYxOTEgMi4wNDM2NzA2IDIuMDQzNjcwNiA0LjA4NzM0MTIxIDQuMDg3MzQxMjEgNC4wODczNDAzMyA2LjEzMTAxMTgyIDQyLjkxNzA4MDk2LTY5LjQ4NDc5NzA3IDc3LjY1OTQ3OTQ5LTE0NS4xMDA2MDY4MyA5OC4wOTYxODQ2Ny0yMjQuODAzNzU2OTMgOC4xNzQ2ODI0Mi0zMi42OTg3Mjc5MyAxNC4zMDU2OTMzNi02NS4zOTc0NTY3NCAxNC4zMDU2OTQyNC05OC4wOTYxODQ2OCAyLjA0MzY3MDYtMTguMzkzMDM0NTctMi4wNDM2NzA2LTM2Ljc4NjA2OTE0LTEwLjIxODM1MzAzLTU1LjE3OTEwMzctNDAuODczNDEwMzUtNTUuMTc5MTAzNzEtMTA2LjI3MDg2NzA5LTgzLjc5MDQ5MTMxLTE3NS43NTU2NjQxNi04MS43NDY4MjA3MXoiLz48cGF0aCBmaWxsPSIjMzA2MDkyIiBkPSJNNTI3Ljk2MTA2NjcgMTE5LjMwMzcwNDAxYy0zNi43ODYwNjkxNC0yLjA0MzY3MDYtNzEuNTI4NDY3NjggMTAuMjE4MzUyMTQtOTguMDk2MTg0NjcgMzIuNjk4NzI3OTItMjQuNTI0MDQ2MzggMjAuNDM2NzA1MTgtNDAuODczNDEwMzUgNDkuMDQ4MDkyNzctNTMuMTM1NDMzMSA3Ny42NTk0Nzk1LTEwLjIxODM1MjE0IDI4LjYxMTM4NzYtMTYuMzQ5MzYzOTYgNTkuMjY2NDQ0OTItMTguMzkzMDM0NTggODkuOTIxNTAzMTIgMTYuMzQ5MzYzOTYtOC4xNzQ2ODI0MiAzMi42OTg3Mjc5My0xNC4zMDU2OTMzNiA1MS4wOTE3NjI1LTE4LjM5MzAzNTQ1IDE4LjM5MzAzNDU3LTQuMDg3MzQxMjEgMzguODI5NzM5NzQtNC4wODczNDEyMSA1Ny4yMjI3NzQzMiAyLjA0MzY3MDYxIDIwLjQzNjcwNTE4IDguMTc0NjgyNDIgMzQuNzQyMzk4NTQgMjYuNTY3NzE3IDM4LjgyOTczOTc1IDQ5LjA0ODA5Mjc3IDI2LjU2NzcxNyAxMjAuNTc2NTYwNDUtOC4xNzQ2ODI0MiAxNjUuNTM3MzEyMDEtMjAuNDM2NzA1MTcgMjAyLjMyMzM4MTE1LTYuMTMxMDExODIgMTIuMjYyMDIyNzYtMTAuMjE4MzUyMTQgMjQuNTI0MDQ2MzgtMTIuMjYyMDIyNzYgMzYuNzg2MDY5MTQgMi4wNDM2NzA2IDAgNC4wODczNDEyMSAwIDYuMTMxMDExODItMi4wNDM2NzA2IDYuMTMxMDExODIgMCAxNC4zMDU2OTMzNiAyLjA0MzY3MDYgMjAuNDM2NzA0MyA0LjA4NzM0MTIxIDEyLjI2MjAyMjc2IDYuMTMxMDExODIgMjIuNDgwMzc1NzggMTYuMzQ5MzYzOTYgMjYuNTY3NzE2OTggMzAuNjU1MDU3MzIgMi4wNDM2NzA2IDQuMDg3MzQxMjEgMi4wNDM2NzA2IDguMTc0NjgyNDIgMi4wNDM2NzA2MSAxMC4yMTgzNTIxNXY2LjEzMTAxMTgyYy0yLjA0MzY3MDYgNDcuMDA0NDIyMTctMi4wNDM2NzA2IDk0LjAwODg0MzQ2IDAgMTQxLjAxMzI2NTYyIDAgMTguMzkzMDM0NTcgMi4wNDM2NzA2IDM0Ljc0MjM5ODU0IDQuMDg3MzQxMjEgNTMuMTM1NDMzMSAwIDEwLjIxODM1MjE0IDIuMDQzNjcwNiAxOC4zOTMwMzQ1NyA2LjEzMTAxMDk0IDI4LjYxMTM4NzYgNC4wODczNDEyMSAxNC4zMDU2OTMzNiAxMi4yNjIwMjI3NiAyNi41Njc3MTcgMjQuNTI0MDQ2MzggMzYuNzg2MDY5MTRzMzAuNjU1MDU3MzIgMTYuMzQ5MzYzOTYgNjMuMzUzNzg2MTQgMTAuMjE4MzUyMTZjMjAuNDM2NzA1MTgtMi4wNDM2NzA2IDQwLjg3MzQxMDM1LTEyLjI2MjAyMjc2IDU3LjIyMjc3NDMxLTI2LjU2NzcxNjEyIDEyLjI2MjAyMjc2LTE2LjM0OTM2Mzk2IDIwLjQzNjcwNTE4LTM0Ljc0MjM5ODU0IDIyLjQ4MDM3NTc4LTU1LjE3OTEwMzcxIDguMTc0NjgyNDItMzguODI5NzM5NzQgMjAuNDM2NzA1MTgtMTUzLjI3NTI4ODM4IDIyLjQ4MDM3NTc4LTE3My43MTE5OTQ0NCAwLTEyLjI2MjAyMjc2IDIuMDQzNjcwNi0yNi41Njc3MTcgOC4xNzQ2ODE1NS0zNi43ODYwNjkxNCA0LjA4NzM0MTIxLTguMTc0NjgyNDIgMTIuMjYyMDIyNzYtMTQuMzA1NjkzMzYgMjAuNDM2NzA1MTctMTguMzkzMDM0NTYgNC4wODczNDEyMS0yLjA0MzY3MDYgNi4xMzEwMTE4Mi0yLjA0MzY3MDYgMTAuMjE4MzUzMDQtNC4wODczNDEyMi00LjA4NzM0MTIxLTQuMDg3MzQxMjEtNi4xMzEwMTE4Mi04LjE3NDY4MjQyLTEwLjIxODM1MzA0LTEyLjI2MjAyMjc1LTEwLjIxODM1MjE0LTEyLjI2MjAyMjc2LTE4LjM5MzAzNDU3LTI2LjU2NzcxNy0yNC41MjQwNDU1LTQwLjg3MzQxMDM1LTQuMDg3MzQxMjEtNi4xMzEwMTE4Mi02LjEzMTAxMTgyLTEyLjI2MjAyMjc2LTEwLjIxODM1MzAzLTE4LjM5MzAzNDU4LTYuMTMxMDExODItMTAuMjE4MzUyMTQtMTAuMjE4MzUyMTQtMjAuNDM2NzA1MTgtMTguMzkzMDM0NTctMzIuNjk4NzI3OTItMTQuMzA1NjkzMzYtMjYuNTY3NzE3LTI2LjU2NzcxNy01NS4xNzkxMDM3MS0zNC43NDIzOTg1NC04NS44MzQxNjE5Mi04LjE3NDY4MjQyLTMwLjY1NTA1NzMyLTEwLjIxODM1MjE0LTU5LjI2NjQ0NDkyIDEwLjIxODM1MjE2LTgxLjc0NjgyMDcgMTYuMzQ5MzYzOTYtMTguMzkzMDM0NTcgNDcuMDA0NDIyMTctMjguNjExMzg3NiA5MS45NjUxNzM3Mi0yMi40ODAzNzU3OC0yLjA0MzY3MDYtNC4wODczNDEyMS0yLjA0MzY3MDYtOC4xNzQ2ODI0Mi00LjA4NzM0MTItMTIuMjYyMDIyNzUtOC4xNzQ2ODI0Mi0yNC41MjQwNDYzOC0yMi40ODAzNzU3OC00Ny4wMDQ0MjIxNy0zOC44Mjk3Mzk3Ni02NS4zOTc0NTY3NC00NC45NjA3NTE1Ni02MS4zMTAxMTU1Mi0xMTYuNDg5MjE5MjQtOTYuMDUyNTE0MDYtMTkyLjEwNTAyODEyLTk4LjA5NjE4NDY3bC04LjE3NDY4MjQyLTYuMTMxMDEwOTN6Ii8+PHBhdGggZmlsbD0iIzMwNjA5MiIgZD0iTTI3OC42MzMyNjQyNiAxMjEuMzQ3Mzc0NjFoLTE0LjMwNTY5NDI0Yy0zNi43ODYwNjkxNCAwLTczLjU3MjEzODI4IDE0LjMwNTY5MzM2LTk4LjA5NjE4NDY2IDQwLjg3MzQxMDM1LTI2LjU2NzcxNyAyNi41Njc3MTctNDQuOTYwNzUxNTYgNzEuNTI4NDY3NjgtNDAuODczNDA5NDggMTQ3LjE0NDI3NjU2IDQuMDg3MzQxMjEgMzIuNjk4NzI3OTMgMTAuMjE4MzUyMTQgNjUuMzk3NDU2NzQgMTYuMzQ5MzYzOTYgOTguMDk2MTg0NjcgMTAuMjE4MzUyMTQgNTEuMDkxNzYyNSAyNC41MjQwNDYzOCAxMDAuMTM5ODU1MjggNDIuOTE3MDgwOTYgMTQ5LjE4Nzk0NzE3IDEyLjI2MjAyMjc2IDQwLjg3MzQxMDM1IDMyLjY5ODcyNzkzIDc3LjY1OTQ3OTQ5IDU5LjI2NjQ0NDA0IDExMC4zNTgyMDgzIDYuMTMxMDExODIgOC4xNzQ2ODI0MiAxNi4zNDkzNjM5NiAxMi4yNjIwMjI3NiAyOC42MTEzODc2IDEyLjI2MjAyMjc2IDEyLjI2MjAyMjc2LTIuMDQzNjcwNiAyMi40ODAzNzU3OC04LjE3NDY4MjQyIDMwLjY1NTA1NzMzLTE4LjM5MzAzNDU4IDIyLjQ4MDM3NTc4LTI2LjU2NzcxNyA0NC45NjA3NTE1Ni01My4xMzU0MzMxIDY3LjQ0MTEyNzM0LTc1LjYxNTgwODg4LTM0Ljc0MjM5ODU0LTI4LjYxMTM4NzYtNTEuMDkxNzYyNS03My41NzIxMzgyOC00Mi45MTcwODA5Ni0xMTguNTMyODg5ODQgMi4wNDM2NzA2LTI0LjUyNDA0NjM4IDQuMDg3MzQxMjEtNDkuMDQ4MDkyNzcgNC4wODczNDEyMi03NS42MTU4MDg4OSAwLTIwLjQzNjcwNTE4LTIuMDQzNjcwNi0zMi42OTg3Mjc5My0yLjA0MzY3MDYxLTQwLjg3MzQxMDM2VjM0OC4xOTQ4MDEyN2MwLTQyLjkxNzA4MDk2IDguMTc0NjgyNDItODUuODM0MTYxOTEgMjIuNDgwMzc1NzgtMTI2LjcwNzU3MTM5IDEwLjIxODM1MjE0LTI4LjYxMTM4NzYgMjYuNTY3NzE3LTU1LjE3OTEwMzcxIDQ5LjA0ODA5MTg5LTc3LjY1OTQ4MDM3LTM0Ljc0MjM5ODU0LTEyLjI2MjAyMjc2LTcxLjUyODQ2NzY4LTE4LjM5MzAzNDU3LTEwOC4zMTQ1MzY4MS0yMC40MzY3MDUxOC02LjEzMTAxMTgyLTIuMDQzNjcwNi0xMC4yMTgzNTIxNC0yLjA0MzY3MDYtMTQuMzA1NjkzMzYtMi4wNDM2Njk3MnpNNzYwLjkzOTUwNTE4IDM5OS4yODY1NjM3N2MyLjA0MzY3MDYtMzIuNjk4NzI3OTMgOC4xNzQ2ODI0Mi01My4xMzU0MzMxIDguMTc0NjgyNDItNzUuNjE1ODA4ODgtMTAuMjE4MzUyMTQtMi4wNDM2NzA2LTE4LjM5MzAzNDU3LTIuMDQzNjcwNi0yOC42MTEzODc2LTIuMDQzNjcwNjItMTYuMzQ5MzYzOTYtMi4wNDM2NzA2LTMyLjY5ODcyNzkzIDQuMDg3MzQxMjEtNDcuMDA0NDIxMjggMTQuMzA1Njk0MjUtMTAuMjE4MzUyMTQgMTAuMjE4MzUyMTQtMTAuMjE4MzUyMTQgMzIuNjk4NzI3OTMtNi4xMzEwMTE4MiA1OS4yNjY0NDQ5MiA4LjE3NDY4MjQyIDI4LjYxMTM4NzYgMTguMzkzMDM0NTcgNTUuMTc5MTAzNzEgMzIuNjk4NzI3OTIgNzkuNzAzMTUwMSA2LjEzMTAxMTgyIDEyLjI2MjAyMjc2IDEyLjI2MjAyMjc2IDIyLjQ4MDM3NTc4IDE2LjM0OTM2Mzk3IDMyLjY5ODcyNzkyIDQuMDg3MzQxMjEgNi4xMzEwMTE4MiA4LjE3NDY4MjQyIDE0LjMwNTY5MzM2IDEwLjIxODM1MzAzIDIwLjQzNjcwNTE4IDIuMDQzNjcwNiA0LjA4NzM0MTIxIDQuMDg3MzQxMjEgMTAuMjE4MzUyMTQgOC4xNzQ2ODE1NCAxMi4yNjIwMjI3NiA4LjE3NDY4MjQyLTIwLjQzNjcwNTE4IDEyLjI2MjAyMjc2LTQwLjg3MzQxMDM1IDEwLjIxODM1MzAyLTYxLjMxMDExNTUzIDIuMDQzNjcwNi0yNC41MjQwNDYzOC00LjA4NzM0MTIxLTUzLjEzNTQzMzEtNC4wODczNDEyLTc5LjcwMzE1MDF6IG0tMTQuMzA1NjkzMzYtNjEuMzEwMTE0NjVjMCAyLjA0MzY3MDYgMCA0LjA4NzM0MTIxLTIuMDQzNjcwNiA2LjEzMTAxMDk0LTIuMDQzNjcwNiAyLjA0MzY3MDYtMi4wNDM2NzA2IDQuMDg3MzQxMjEtNC4wODczNDEyMiA2LjEzMTAxMTgxLTQuMDg3MzQxMjEgNC4wODczNDEyMS0xMC4yMTgzNTIxNCA2LjEzMTAxMTgyLTE0LjMwNTY5MzM2IDguMTc0NjgyNDMtNi4xMzEwMTE4MiAwLTEwLjIxODM1MjE0IDAtMTQuMzA1NjkzMzYtNC4wODczNDEyMS0yLjA0MzY3MDYtMi4wNDM2NzA2LTQuMDg3MzQxMjEtMi4wNDM2NzA2LTYuMTMxMDExODItNC4wODczNDEyMi0yLjA0MzY3MDYgMC0yLjA0MzY3MDYtMi4wNDM2NzA2LTIuMDQzNjcwNi00LjA4NzM0MTJzMC00LjA4NzM0MTIxIDIuMDQzNjcwNi02LjEzMTAxMTgybDQuMDg3MzQxMjItNC4wODczNDAzM2M2LjEzMTAxMTgyLTQuMDg3MzQxMjEgMTQuMzA1NjkzMzYtNi4xMzEwMTE4MiAyMC40MzY3MDUxOC02LjEzMTAxMTgyaDEwLjIxODM1MjE0YzIuMDQzNjcwNiAwIDQuMDg3MzQxMjEgMi4wNDM2NzA2IDYuMTMxMDExODIgMi4wNDM2NzA2MXY2LjEzMTAxMTgxeiIvPjxwYXRoIGZpbGw9IiMzMDYwOTIiIGQ9Ik00NzguOTEyOTc0OCAzNTYuMzY5NDgzNjljLTIuMDQzNjcwNi0xNC4zMDU2OTMzNi0xMC4yMTgzNTIxNC0yNi41Njc3MTctMjQuNTI0MDQ2MzgtMzIuNjk4NzI4ODEtNi4xMzEwMTE4Mi0yLjA0MzY3MDYtMTIuMjYyMDIyNzYtMi4wNDM2NzA2LTE4LjM5MzAzNDU3LTIuMDQzNjcwNjEtOC4xNzQ2ODI0MiAwLTE0LjMwNTY5MzM2IDIuMDQzNjcwNi0yMi40ODAzNzU3OCAyLjA0MzY3MDYxLTE0LjMwNTY5MzM2IDQuMDg3MzQxMjEtMjguNjExMzg3NiAxMC4yMTgzNTIxNC00Mi45MTcwODA5NiAxNi4zNDkzNjM5Ny00LjA4NzM0MTIxIDIuMDQzNjcwNi04LjE3NDY4MjQyIDYuMTMxMDExODItMTIuMjYyMDIyNzYgMTAuMjE4MzUzMDIgMCA2LjEzMTAxMTgyIDIuMDQzNjcwNiAxOC4zOTMwMzQ1NyAyLjA0MzY3MDYyIDM2Ljc4NjA2OTE1IDAgMjYuNTY3NzE3IDAgNTMuMTM1NDMzMS00LjA4NzM0MTIyIDc3LjY1OTQ3OTQ4LTEwLjIxODM1MjE0IDU1LjE3OTEwMzcxIDI2LjU2NzcxNyAxMDYuMjcwODY3MDkgODEuNzQ2ODIwNyAxMTYuNDg5MjE5MjQgNC4wODczNDEyMSAwIDYuMTMxMDExODIgMCAxMC4yMTgzNTIxNSAyLjA0MzY3MDYyIDQuMDg3MzQxMjEtMTIuMjYyMDIyNzYgMTAuMjE4MzUyMTQtMjYuNTY3NzE3IDEyLjI2MjAyMjc1LTQwLjg3MzQxMDM2IDEyLjI2MjAyMjc2LTM2Ljc4NjA2OTE0IDQyLjkxNzA4MDk2LTY3LjQ0MTEyNzM0IDE4LjM5MzAzNTQ1LTE4NS45NzQwMTYzMXogbS0xNC4zMDU2OTQyMyAyLjA0MzY3MDYxbC02LjEzMTAxMDk0IDYuMTMxMDEwOTNjLTQuMDg3MzQxMjEgNC4wODczNDEyMS0xMC4yMTgzNTIxNCA2LjEzMTAxMTgyLTE2LjM0OTM2NDg0IDQuMDg3MzQxMjEtNi4xMzEwMTE4Mi0yLjA0MzY3MDYtMTAuMjE4MzUyMTQtNC4wODczNDEyMS0xNC4zMDU2OTMzNi0xMC4yMTgzNTIxNC0yLjA0MzY3MDYtMi4wNDM2NzA2LTQuMDg3MzQxMjEtNC4wODczNDEyMS00LjA4NzM0MTIyLTYuMTMxMDExODItNC4wODczNDEyMS00LjA4NzM0MTIxLTQuMDg3MzQxMjEtNi4xMzEwMTE4Mi00LjA4NzM0MDMzLTguMTc0NjgyNDIgMC00LjA4NzM0MTIxIDQuMDg3MzQxMjEtNi4xMzEwMTE4MiA4LjE3NDY4MTU1LTguMTc0NjgxNTQgNC4wODczNDEyMS0yLjA0MzY3MDYgOC4xNzQ2ODI0Mi0yLjA0MzY3MDYgMTAuMjE4MzUzMDItMi4wNDM2NzA2MWg2LjEzMTAxMDk0YzYuMTMxMDExODIgMCAxMC4yMTgzNTIxNCAyLjA0MzY3MDYgMTQuMzA1Njk0MjQgNi4xMzEwMTA5NCAyLjA0MzY3MDYgMi4wNDM2NzA2IDQuMDg3MzQxMjEgMi4wNDM2NzA2IDYuMTMxMDEwOTQgNC4wODczNDEyMXMyLjA0MzY3MDYgNC4wODczNDEyMSAyLjA0MzY3MDYgOC4xNzQ2ODI0MmMtMi4wNDM2NzA2IDIuMDQzNjcwNi0yLjA0MzY3MDYgNC4wODczNDEyMS0yLjA0MzY3MDYgNi4xMzEwMTE4MnpNNzc3LjI4ODg2OTE0IDYxMS44MjgyOTc5NWMtNC4wODczNDEyMSAyLjA0MzY3MDYtOC4xNzQ2ODI0MiAyLjA0MzY3MDYtMTIuMjYyMDIyNzYgMi4wNDM2NzA2MS00LjA4NzM0MTIxIDIuMDQzNjcwNi02LjEzMTAxMTgyIDQuMDg3MzQxMjEtMTAuMjE4MzUzMDIgOC4xNzQ2ODE1NC0yLjA0MzY3MDYgOC4xNzQ2ODI0Mi00LjA4NzM0MTIxIDE2LjM0OTM2Mzk2LTQuMDg3MzQwMzMgMjQuNTI0MDQ2MzggMi4wNDM2NzA2IDIuMDQzNjcwNiA0LjA4NzM0MTIxIDIuMDQzNjcwNiA2LjEzMTAxMDkzIDIuMDQzNjcwNjEgOC4xNzQ2ODI0MiAyLjA0MzY3MDYgMTguMzkzMDM0NTcgNC4wODczNDEyMSAyOC42MTEzODc2IDQuMDg3MzQxMjEgMjQuNTI0MDQ2MzggMCA0Ny4wMDQ0MjIxNy00LjA4NzM0MTIxIDY5LjQ4NDc5NzA3LTEyLjI2MjAyMzYzIDEyLjI2MjAyMjc2LTYuMTMxMDExODIgMjQuNTI0MDQ2MzgtMTIuMjYyMDIyNzYgMzQuNzQyMzk5NDItMjIuNDgwMzc1NzktNTMuMTM1NDMzMSAxMC4yMTgzNTIxNC03OS43MDMxNTAxIDguMTc0NjgyNDItOTguMDk2MTg0NjcgMC02LjEzMTAxMTgyLTIuMDQzNjcwNi0xMC4yMTgzNTIxNC00LjA4NzM0MTIxLTE0LjMwNTY5NDI0LTYuMTMxMDEwOTN6TTQ3Ni44NjkzMDQyIDYxNS45MTU2MzgyOGMtMi4wNDM2NzA2IDAtNi4xMzEwMTE4MiAwLTEwLjIxODM1MzAzIDguMTc0NjgyNDItMTIuMjYyMDIyNzYgMTQuMzA1NjkzMzYtMTYuMzQ5MzYzOTYgMjQuNTI0MDQ2MzgtMjguNjExMzg2NzIgMzIuNjk4NzI3OTQtMTYuMzQ5MzYzOTYgMTAuMjE4MzUyMTQtMzIuNjk4NzI3OTMgMTYuMzQ5MzYzOTYtNTMuMTM1NDMzOTggMTguMzkzMDM0NTYtNi4xMzEwMTE4MiAwLTEyLjI2MjAyMjc2IDIuMDQzNjcwNi0xNi4zNDkzNjM5NiA2LjEzMTAxMTgybDIuMDQzNjcwNiAyLjA0MzY3MDYxYzQuMDg3MzQxMjEgMi4wNDM2NzA2IDEwLjIxODM1MjE0IDQuMDg3MzQxMjEgMTIuMjYyMDIyNzYgNi4xMzEwMTE4MSAxNi4zNDkzNjM5NiA0LjA4NzM0MTIxIDM0Ljc0MjM5ODU0IDYuMTMxMDExODIgNTMuMTM1NDMzOTggNC4wODczNDAzNCAyNC41MjQwNDYzOC00LjA4NzM0MTIxIDQ3LjAwNDQyMjE3LTE4LjM5MzAzNDU3IDU5LjI2NjQ0NDkyLTM4LjgyOTczOTc1IDQuMDg3MzQxMjEtNi4xMzEwMTE4MiA0LjA4NzM0MTIxLTEyLjI2MjAyMjc2IDAtMTguMzkzMDM0NTctMi4wNDM2NzA2LTYuMTMxMDExODItOC4xNzQ2ODI0Mi0xMi4yNjIwMjI3Ni0xMi4yNjIwMjM2NC0xNC4zMDU2OTMzNiAwLTYuMTMxMDExODItNC4wODczNDEyMS02LjEzMTAxMTgyLTYuMTMxMDEwOTMtNi4xMzEwMTE4MnoiLz48L3N2Zz4=;" parent="131" vertex="1">
                    <mxGeometry x="151.5" y="150.25" width="66.5" height="66.5" as="geometry"/>
                </mxCell>
            </root>
        </mxGraphModel>
    </diagram>
</mxfile>